<?xml version="1.0" encoding="utf-8"?>
<!-- Generator: Adobe Illustrator 24.0.0, SVG Export Plug-In . SVG Version: 6.00 Build 0)  -->
<svg version="1.1" id="Layer_1" xmlns="http://www.w3.org/2000/svg" xmlns:xlink="http://www.w3.org/1999/xlink" x="0px" y="0px"
	 viewBox="0 0 900 900" style="enable-background:new 0 0 900 900;" xml:space="preserve">
<style type="text/css">
	.st0{fill:#DCE7F2;stroke:#183D54;stroke-width:3;stroke-linecap:round;stroke-linejoin:round;stroke-miterlimit:10;}
	.st1{fill:#FFFFFF;stroke:#183D54;stroke-width:3;stroke-linecap:round;stroke-linejoin:round;stroke-miterlimit:10;}
	.st2{fill:none;stroke:#183D54;stroke-width:3;stroke-linecap:round;stroke-linejoin:round;stroke-miterlimit:10;}
	.st3{fill:#183D54;}
	.st4{clip-path:url(#SVGID_2_);}
	.st5{fill:#FFCD3C;}
	.st6{fill:#F3807B;}
	.st7{fill:#35EEBA;}
	.st8{fill:none;stroke:#FFFFFF;stroke-width:3;stroke-linecap:round;stroke-linejoin:round;stroke-miterlimit:10;}
</style>
<g id="crane">
	<path class="st0" d="M246,687.4l-51.7,29.8c-9.1,5.2-24.9,4.6-35.3-1.5l-61.2-35.3c-6.1-3.5-9-8-8.6-12.3V640
		c-0.3-3.6,1.7-7.1,6.1-9.6l66.9-38.6c9.1-5.2,24.9-4.6,35.3,1.5l61.2,35.3c5.7,3.3,8.6,7.5,8.6,11.5h0v29.4h0
		c0.2,3.5-1.8,6.8-6.1,9.2l-3,1.7"/>
	<path class="st1" d="M155.4,684l3.6,2.1c10.4,6,26.3,6.7,35.3,1.5l66.9-38.6c9-5.2,7.9-14.3-2.5-20.4l-61.2-35.3
		c-10.4-6-26.3-6.7-35.3-1.5l-66.9,38.6c-9.1,5.2-7.9,14.3,2.5,20.4l33.5,19.3"/>
	<line class="st2" x1="145.7" y1="678.4" x2="147.3" y2="679.4"/>
	<polygon class="st0" points="517.1,876.8 632.1,810.4 632.1,767.5 517.8,744.4 402.9,767.9 402.9,810.8 	"/>
	<polyline class="st1" points="483.5,814.4 517.1,833.8 632.1,767.5 517.8,701.5 402.9,767.9 466.3,804.5 	"/>
	<path class="st1" d="M525.8,748.8"/>
	<path class="st1" d="M509,748.8"/>
	<polygon class="st1" points="525.8,676.6 574.7,704.6 574.6,713.6 566.3,717.8 525.8,694.4 	"/>
	<path class="st1" d="M525.8,685.3"/>
	<line class="st2" x1="525.8" y1="685.3" x2="574.7" y2="713.6"/>
	<polygon class="st1" points="509,676.6 460.1,704.6 460.1,713.6 468.5,717.8 509,694.4 	"/>
	<path class="st1" d="M509,685.3"/>
	<line class="st2" x1="509" y1="685.3" x2="460.1" y2="713.6"/>
	<polyline class="st1" points="556.5,648.7 525.8,630.9 525.8,613.1 574.7,641 574.6,650 566.3,654.3 566.1,654.2 	"/>
	<path class="st1" d="M525.8,621.8"/>
	<line class="st2" x1="525.8" y1="621.8" x2="574.7" y2="650"/>
	<polygon class="st1" points="509,613.1 460.1,641 460.1,650 468.5,654.3 509,630.9 	"/>
	<path class="st1" d="M509,621.8"/>
	<line class="st2" x1="509" y1="621.8" x2="460.1" y2="650"/>
	<polygon class="st1" points="525.8,549.6 574.7,577.5 574.6,586.5 566.3,590.8 525.8,567.4 	"/>
	<path class="st1" d="M525.8,558.3"/>
	<line class="st2" x1="525.8" y1="558.3" x2="574.7" y2="586.5"/>
	<polygon class="st1" points="509,549.6 460.1,577.5 460.1,586.5 468.5,590.8 509,567.4 	"/>
	<path class="st1" d="M509,558.3"/>
	<line class="st2" x1="509" y1="558.3" x2="460.1" y2="586.5"/>
	<polygon class="st1" points="525.8,486.1 574.7,514 574.6,523 566.3,527.2 525.8,503.8 	"/>
	<path class="st1" d="M525.8,494.8"/>
	<line class="st2" x1="525.8" y1="494.8" x2="574.7" y2="523"/>
	<polygon class="st1" points="509,486.1 460.1,514 460.1,523 468.5,527.2 509,503.8 	"/>
	<path class="st1" d="M509,494.8"/>
	<line class="st2" x1="509" y1="494.8" x2="460.1" y2="523"/>
	<polygon class="st1" points="525.8,427 574.7,455 574.6,464 566.3,468.2 525.8,444.8 	"/>
	<path class="st1" d="M525.8,435.7"/>
	<line class="st2" x1="525.8" y1="435.7" x2="574.7" y2="464"/>
	<polygon class="st1" points="509,427 460.1,455 460.1,464 468.5,468.2 509,444.8 	"/>
	<path class="st1" d="M509,435.7"/>
	<line class="st2" x1="509" y1="435.7" x2="460.1" y2="464"/>
	<polygon class="st1" points="525.8,363.5 574.7,391.4 574.6,400.5 566.3,404.7 525.8,381.3 	"/>
	<path class="st1" d="M525.8,372.2"/>
	<line class="st2" x1="525.8" y1="372.2" x2="574.7" y2="400.4"/>
	<polygon class="st1" points="509,363.5 460.1,391.4 460.1,400.5 468.5,404.7 509,381.3 	"/>
	<path class="st1" d="M509,372.2"/>
	<line class="st2" x1="509" y1="372.2" x2="460.1" y2="400.4"/>
	<polygon class="st1" points="525.8,300 574.7,327.9 574.6,336.9 566.3,341.2 525.8,317.8 	"/>
	<path class="st1" d="M525.8,308.7"/>
	<line class="st2" x1="525.8" y1="308.7" x2="574.7" y2="336.9"/>
	<polyline class="st1" points="481.4,315.8 460.1,327.9 460.1,336.9 468.5,341.2 509,317.8 509,300 491.7,309.9 	"/>
	<path class="st1" d="M509,308.7"/>
	<line class="st2" x1="509" y1="308.7" x2="460.1" y2="336.9"/>
	<polygon class="st1" points="525.8,237.6 574.7,265.5 574.6,274.5 566.3,278.8 525.8,255.4 	"/>
	<path class="st1" d="M525.8,246.3"/>
	<line class="st2" x1="525.8" y1="246.3" x2="574.7" y2="274.5"/>
	<polygon class="st0" points="509,237.6 460.1,265.5 460.1,274.5 468.5,278.8 509,255.4 	"/>
	<path class="st1" d="M509,246.3"/>
	<line class="st2" x1="509" y1="246.3" x2="460.1" y2="274.5"/>
	<polygon class="st1" points="517.4,810 509,804.8 509,241.5 517.4,246.6 	"/>
	<polygon class="st1" points="517.4,810 525.8,805 525.8,241.5 517.4,246.6 	"/>
	<polyline class="st1" points="451.8,701.2 451.8,217.6 460.1,222.8 460.1,777.3 451.8,772.2 451.8,716.8 	"/>
	<polyline class="st0" points="468.5,484.9 468.5,208.1 460.1,213.3 460.1,777.3 468.5,772.2 468.5,499.3 	"/>
	<polygon class="st0" points="574.7,777.1 566.3,772 566.3,207.7 574.7,212.6 	"/>
	<polyline class="st1" points="583,547.4 583,217.4 574.7,222.6 574.7,777.1 583,772 583,576.5 	"/>
	<line class="st2" x1="583" y1="559.3" x2="583" y2="558"/>
	<polygon class="st1" points="509,758.8 460.1,730.9 460.1,721.9 468.5,717.6 509,741 	"/>
	<path class="st1" d="M509,750.1"/>
	<polygon class="st1" points="525.8,758.8 574.7,730.9 574.6,721.9 566.3,717.6 525.8,741 	"/>
	<path class="st1" d="M525.8,750.1"/>
	<path class="st1" d="M566.8,726.5"/>
	<line class="st2" x1="525.8" y1="750.1" x2="574.7" y2="721.9"/>
	<line class="st2" x1="509" y1="750.1" x2="460.1" y2="721.9"/>
	<polygon class="st1" points="525.8,695.3 574.7,667.4 574.6,658.4 566.3,654.1 525.8,677.5 	"/>
	<path class="st1" d="M525.8,686.6"/>
	<line class="st2" x1="525.8" y1="686.6" x2="574.7" y2="658.4"/>
	<polygon class="st1" points="509,695.3 460.1,667.4 460.1,658.4 468.5,654.1 509,677.5 	"/>
	<path class="st1" d="M509,686.6"/>
	<line class="st2" x1="509" y1="686.6" x2="460.1" y2="658.4"/>
	<polygon class="st1" points="525.8,631.8 574.7,603.8 574.6,594.8 566.3,590.6 525.8,614 	"/>
	<path class="st1" d="M525.8,623.1"/>
	<line class="st2" x1="525.8" y1="623.1" x2="574.7" y2="594.8"/>
	<polygon class="st1" points="509,631.8 460.1,603.8 460.1,594.8 468.5,590.6 509,614 	"/>
	<path class="st1" d="M509,623.1"/>
	<line class="st2" x1="509" y1="623.1" x2="460.1" y2="594.8"/>
	<polygon class="st1" points="525.8,568.2 574.7,540.3 574.6,531.3 566.3,527.1 525.8,550.5 	"/>
	<path class="st1" d="M525.8,559.6"/>
	<line class="st2" x1="525.8" y1="559.6" x2="574.7" y2="531.3"/>
	<polyline class="st1" points="492.5,540.9 509,550.5 509,568.2 460.1,540.3 460.1,531.3 468.5,527.1 485.4,536.8 	"/>
	<path class="st1" d="M509,559.6"/>
	<line class="st2" x1="509" y1="559.6" x2="460.1" y2="531.3"/>
	<polygon class="st1" points="525.8,509.2 574.7,481.3 574.6,472.3 566.3,468 525.8,491.5 	"/>
	<path class="st1" d="M525.8,500.5"/>
	<line class="st2" x1="525.8" y1="500.5" x2="574.7" y2="472.3"/>
	<polyline class="st1" points="487.9,479.3 509,491.5 509,509.2 460.1,481.3 460.1,472.3 468.5,468 468.6,468.1 	"/>
	<line class="st2" x1="478.9" y1="474" x2="479.8" y2="474.6"/>
	<path class="st1" d="M509,500.5"/>
	<line class="st2" x1="509" y1="500.5" x2="460.1" y2="472.3"/>
	<polygon class="st1" points="525.8,445.7 574.7,417.8 574.6,408.8 566.3,404.5 525.8,427.9 	"/>
	<path class="st1" d="M525.8,437"/>
	<line class="st2" x1="525.8" y1="437" x2="574.7" y2="408.8"/>
	<polygon class="st1" points="509,445.7 460.1,417.8 460.1,408.8 468.5,404.5 509,427.9 	"/>
	<path class="st1" d="M509,437"/>
	<line class="st2" x1="509" y1="437" x2="460.1" y2="408.8"/>
	<polygon class="st1" points="525.8,382.2 574.7,354.2 574.6,345.2 566.3,341 525.8,364.4 	"/>
	<path class="st1" d="M525.8,373.5"/>
	<line class="st2" x1="525.8" y1="373.5" x2="574.7" y2="345.2"/>
	<polyline class="st1" points="504.9,362 509,364.4 509,382.2 460.1,354.2 460.1,345.2 468.5,341 495.6,356.6 	"/>
	<path class="st1" d="M509,373.5"/>
	<line class="st2" x1="509" y1="373.5" x2="460.1" y2="345.2"/>
	<polygon class="st1" points="525.8,319.8 574.7,291.9 574.6,282.8 566.3,278.6 525.8,302 	"/>
	<path class="st1" d="M525.8,311.1"/>
	<line class="st2" x1="525.8" y1="311.1" x2="574.7" y2="282.9"/>
	<polygon class="st1" points="509,319.8 460.1,291.9 460.1,282.8 468.5,278.6 509,302 	"/>
	<path class="st1" d="M509,311.1"/>
	<line class="st2" x1="509" y1="311.1" x2="460.1" y2="282.9"/>
	<path class="st1" d="M525.8,186.2"/>
	<line class="st2" x1="525.8" y1="186.2" x2="574.7" y2="214.4"/>
	<path class="st1" d="M509,186.2"/>
	<line class="st2" x1="509" y1="186.2" x2="460.1" y2="214.4"/>
	<polygon class="st1" points="525.8,259.7 574.7,231.8 574.6,222.8 566.3,218.5 525.8,241.9 	"/>
	<path class="st1" d="M525.8,251"/>
	<line class="st2" x1="525.8" y1="251" x2="574.7" y2="222.8"/>
	<polygon class="st1" points="509,259.7 460.1,231.8 460.1,222.8 468.5,218.5 509,241.9 	"/>
	<path class="st1" d="M509,251"/>
	<line class="st2" x1="509" y1="251" x2="460.1" y2="222.8"/>
	<polygon class="st0" points="517.5,158.6 599.6,206 599.6,217.6 517.2,265.1 435.4,217.8 435.4,206.2 	"/>
	<polygon class="st0" points="517.5,158.6 435.4,206.2 517.2,253.6 599.6,206 	"/>
	<line class="st2" x1="517.2" y1="253.6" x2="517.2" y2="265.1"/>
	<path class="st3" d="M171.2,554.2c0.5-0.3,0.9-0.3,1.3-0.2l0,0l0.1,0.1c0,0,0,0,0.1,0l3.7,2v0c0.4,0.2,0.6,0.6,0.6,1.2
		c0.1,0.9,0.3,1.7,0.6,2.3c4.4-0.3,10.1-7.1,10.1-13.3c0-1.3-0.3-2.3-0.7-3.1c-0.5-0.1-0.9-0.2-1.4-0.5l-0.4-0.2l-3.1-1.7
		c-2.2-1.2-4.1-4-4.1-8.1v-11.8l5.3-3v4.1l3.6-2.1v10.7c0,3.9,1.6,6.5,4.3,7.4c2.6,0.9,4.3,3.6,4.3,7.8c0,11.7-12.4,24.6-19.5,20.6
		c-0.1,0-0.1-0.1-0.1-0.1l0,0l-3.4-1.9c0,0,0,0-0.1,0c-2-1.1-3.1-3.4-3.3-6.2C169,556.7,170,554.9,171.2,554.2z"/>
	<path class="st3" d="M174.9,556.2L174.9,556.2c1.1-0.6,2-0.2,2.1,1c0.1,1.8,0.8,3.2,2.1,3.9c4.5,2.5,12.2-5.5,12.2-12.9
		c0-3.1-1.5-4.9-3.6-5.1c-3.7-0.3-6-3.6-6-8.5v-11.8l5.3-3v10.7c0,3.9,1.6,6.5,4.3,7.4c2.6,0.9,4.3,3.6,4.3,7.8
		c0,11.7-12.4,24.6-19.5,20.6c-2-1.1-3.1-3.4-3.3-6.2C172.6,558.8,173.6,556.9,174.9,556.2z"/>
	<path class="st0" d="M165.8,505.2v8.2c0,10,8.1,18.1,18.1,18.1c10,0,18.1-8.1,18.1-18.1v-9c-0.1-0.6-0.4-1.2-0.7-1.8
		c-0.9-1.5-2.3-2.9-4.4-4.1c-7.1-4.1-18.6-4.1-25.7,0c-2.3,1.3-3.9,2.9-4.7,4.6C166.1,503.7,165.9,504.5,165.8,505.2z"/>
	<path class="st1" d="M183.6,512.5c4.5,0,9-1,12.5-3c2.5-1.4,4.1-3.2,4.8-5c0.1-0.3,0.2-0.6,0.3-0.9c0.2-0.9,0.2-1.8,0-2.7
		c-0.1-0.6-0.4-1.2-0.7-1.8c-0.8-1.5-2.2-2.9-4.2-4c-6.9-4-18-3.9-24.9,0c-2.2,1.3-3.7,2.8-4.5,4.4c-0.3,0.7-0.5,1.4-0.6,2.1
		c-0.1,0.5-0.1,0.9,0,1.4c0.1,0.5,0.1,0.9,0.3,1.4c0.2,0.6,0.5,1.2,0.9,1.8"/>
	<path class="st1" d="M177.1,511.9c0.1,0,0.2,0,0.3,0.1"/>
	<path class="st0" d="M183.7,385.4L183.7,385.4c2,0,3.6,1.6,3.6,3.6v108.6c0,2-1.6,3.6-3.6,3.6l0,0c-2,0-3.6-1.6-3.6-3.6V389
		C180.2,387,181.8,385.4,183.7,385.4z"/>
	<polygon class="st0" points="550.9,124.4 550.9,157.8 539.3,168.5 527.5,161.6 527.4,138 	"/>
	<line class="st2" x1="539.3" y1="164.4" x2="539.3" y2="131.2"/>
	<polygon class="st1" points="488.1,164.2 488.1,197.6 476.5,204.2 464.7,197.3 464.7,177.8 	"/>
	<line class="st2" x1="476.5" y1="204.2" x2="476.5" y2="171"/>
	<polygon class="st0" points="413.7,209.8 413.7,243.1 402.1,249.7 390.3,242.8 390.2,223.4 	"/>
	<line class="st2" x1="402.1" y1="245.5" x2="402.1" y2="212.4"/>
	<polygon class="st0" points="345.5,244.5 345.5,277.9 333.9,284.5 322.1,281.4 322,258.1 	"/>
	<line class="st2" x1="333.9" y1="284.5" x2="333.9" y2="251.3"/>
	<polygon class="st0" points="276.7,287 276.7,320.4 265.1,327 253.3,320.1 253.2,300.6 	"/>
	<line class="st2" x1="265.1" y1="327" x2="265.1" y2="293.8"/>
	<polygon class="st0" points="208.2,326.9 208.2,360.2 196.6,366.8 184.8,359.9 184.8,340.5 	"/>
	<line class="st2" x1="196.6" y1="366.8" x2="196.6" y2="333.7"/>
	<g>
		<polygon class="st1" points="663.2,254.5 564.2,198.2 564.2,180.7 642.4,153.1 741.3,191.9 741.3,209.4 		"/>
		<polygon class="st0" points="663.2,237 564.2,180.7 642.4,135.6 741.3,191.9 		"/>
		<line class="st2" x1="663.2" y1="237" x2="663.2" y2="254.5"/>
	</g>
	<g>
		<polygon class="st1" points="663.2,230 564.2,173.7 564.2,156.2 642.4,128.6 741.3,167.3 741.3,184.9 		"/>
		<polygon class="st0" points="663.2,212.5 564.2,156.2 642.4,111.1 741.3,167.3 		"/>
		<line class="st2" x1="663.2" y1="212.5" x2="663.2" y2="230"/>
	</g>
	<g>
		<polygon class="st1" points="663.2,205.5 564.2,149.2 564.2,131.7 642.4,104.1 741.3,142.8 741.3,160.3 		"/>
		<polygon class="st0" points="663.2,187.9 564.2,131.7 642.4,86.6 741.3,142.8 		"/>
		<line class="st2" x1="663.2" y1="187.9" x2="663.2" y2="205.5"/>
	</g>
	<g>
		<polyline class="st1" points="675.6,173.8 663.2,180.9 564.2,124.7 564.2,107.2 642.4,79.6 741.3,118.3 741.3,135.8 685.7,167.9 
					"/>
		<polygon class="st0" points="663.2,163.4 564.2,107.2 642.4,62 741.3,118.3 		"/>
		<line class="st2" x1="663.2" y1="163.4" x2="663.2" y2="180.9"/>
	</g>
	<g>
		<polygon class="st1" points="663.2,156.4 564.2,100.2 564.2,82.6 642.4,55 741.3,93.8 741.3,111.3 		"/>
		<path class="st0" d="M712,110.8"/>
		<polyline class="st0" points="711.6,110.9 663.2,138.9 564.2,82.6 642.4,37.5 741.3,93.8 719.5,106.4 		"/>
		<line class="st2" x1="663.2" y1="138.9" x2="663.2" y2="156.4"/>
	</g>
	<g>
		<polygon class="st1" points="663.2,131.9 564.2,75.6 564.2,58.1 642.4,13 741.3,69.3 741.3,86.8 		"/>
		<g>
			<g>
				<defs>
					<polygon id="SVGID_1_" points="663.2,114.4 741.3,69.3 643.1,13.4 566.7,57.2 					"/>
				</defs>
				<clipPath id="SVGID_2_">
					<use xlink:href="#SVGID_1_"  style="overflow:visible;"/>
				</clipPath>
				<g class="st4">
					<rect x="620.3" y="-22.2" class="st5" width="61.3" height="168.1"/>
					<rect x="569.5" y="-22.2" class="st6" width="61.3" height="168.1"/>
					<rect x="675" y="-22.2" class="st7" width="61.3" height="168.1"/>
				</g>
			</g>
		</g>
		<polyline class="st2" points="663.2,114.4 564.2,58.1 642.4,13 650,17.3 		"/>
		<line class="st2" x1="675.8" y1="107.1" x2="674.5" y2="107.9"/>
		<polyline class="st2" points="643.1,13.4 741.3,69.3 682.9,103 		"/>
		<line class="st2" x1="663.2" y1="114.4" x2="663.2" y2="131.9"/>
	</g>
	<line class="st2" x1="629.6" y1="93.8" x2="630.8" y2="44.2"/>
	<line class="st2" x1="674.4" y1="32.2" x2="675" y2="73.1"/>
	<line class="st2" x1="675" y1="84.6" x2="675" y2="98.2"/>
	<polygon class="st0" points="584.8,143.4 644,189.6 649.4,186.8 649.4,107.4 580.2,67.4 574.9,70.6 	"/>
	<polygon class="st1" points="574.9,149.7 644,189.6 644.1,110.2 574.9,70.6 	"/>
	<line class="st2" x1="649.4" y1="107.4" x2="644.1" y2="110.2"/>
	<polygon class="st1" points="582.4,142.1 109.8,413.9 109.8,401.4 582.4,129.6 	"/>
	<polygon class="st1" points="121.8,420.7 594.3,148.9 582.5,142 109.9,413.8 	"/>
	<polygon class="st0" points="121.8,408.2 594.3,136.4 582.5,129.6 109.9,401.4 	"/>
	<g>
		<polygon class="st0" points="146.8,366.3 146.8,393.6 137.4,399 127.7,393.4 127.6,373.4 		"/>
		<line class="st2" x1="137.4" y1="399" x2="137.4" y2="371.9"/>
	</g>
	<polygon class="st1" points="594.3,148.9 121.8,420.7 121.8,408.2 594.3,136.4 	"/>
	<polygon class="st0" points="516.1,219.1 487.2,201.5 477.7,207.1 477.7,217.4 497.7,229.4 	"/>
	<line class="st2" x1="477.7" y1="207.1" x2="504.3" y2="222.5"/>
	<polygon class="st1" points="581.6,181.7 552.8,164.1 543.2,169.6 543.2,180 563.3,192 	"/>
	<line class="st2" x1="543.2" y1="169.6" x2="569.9" y2="185"/>
	<polygon class="st0" points="448.6,257.5 419.8,240 410.2,245.5 410.2,255.8 430.3,267.8 	"/>
	<line class="st2" x1="410.2" y1="245.5" x2="436.9" y2="260.9"/>
	<polygon class="st0" points="381.1,296 352.3,278.4 342.7,283.9 342.7,294.2 362.8,306.2 	"/>
	<line class="st2" x1="342.7" y1="283.9" x2="369.4" y2="299.3"/>
	<polygon class="st0" points="313.7,334.4 284.8,316.8 275.3,322.3 275.3,332.7 295.3,344.7 	"/>
	<line class="st2" x1="275.2" y1="322.3" x2="301.9" y2="337.7"/>
	<polygon class="st0" points="246.2,372.8 217.4,355.2 207.8,360.7 207.8,371.1 227.9,383.1 	"/>
	<line class="st2" x1="207.8" y1="360.7" x2="234.4" y2="376.1"/>
	<polygon class="st0" points="175.9,411.2 147,393.6 137.5,399.1 137.5,409.5 157.5,421.5 	"/>
	<line class="st2" x1="137.4" y1="399.1" x2="167" y2="416.2"/>
	<line class="st2" x1="401" y1="250.3" x2="427.6" y2="265.7"/>
	<polyline class="st1" points="359.4,305.5 623.6,153.6 623.6,166.1 151,437.9 151,425.4 346.4,313 	"/>
	<polygon class="st1" points="162.9,444.7 635.5,172.9 623.6,166 151.1,437.8 	"/>
	<polyline class="st0" points="348,312.1 151.1,425.4 162.9,432.3 635.5,160.5 623.6,153.6 358.7,306 	"/>
	<polygon class="st1" points="635.5,172.9 162.9,444.8 162.9,432.3 635.5,160.5 	"/>
	<line class="st2" x1="401" y1="191.3" x2="404.3" y2="189.4"/>
	<polygon class="st1" points="123.1,377.3 595.6,105.5 583.7,98.7 111.2,370.5 	"/>
	<polyline class="st1" points="389.1,198.2 111.2,358 123.1,364.9 595.6,93.1 583.7,86.2 400,191.9 	"/>
	<polygon class="st0" points="595.6,105.6 123.1,377.4 123.1,364.9 595.6,93.1 	"/>
	<polygon class="st0" points="440.1,216.7 411.3,199.1 401.7,204.7 401.7,216.5 421.8,228.5 	"/>
	<line class="st2" x1="401.7" y1="204.6" x2="428.4" y2="220.1"/>
	<polygon class="st0" points="371.7,256.1 342.8,238.5 333.2,244 333.2,255.5 353.3,267.5 	"/>
	<line class="st2" x1="333.2" y1="244" x2="359.9" y2="259.4"/>
	<polygon class="st0" points="302.9,295.6 274.1,278 264.5,283.6 264.5,295.4 284.6,307.4 	"/>
	<line class="st2" x1="264.5" y1="283.6" x2="291.2" y2="299"/>
	<polygon class="st0" points="234.7,334.9 205.8,317.3 196.2,322.8 196.2,334.7 216.3,346.7 	"/>
	<line class="st2" x1="196.2" y1="322.8" x2="222.9" y2="338.2"/>
	<polygon class="st1" points="165.8,374.6 137,357 127.4,362.6 127.4,374.6 151.9,389.5 	"/>
	<line class="st2" x1="127.4" y1="362.5" x2="154.1" y2="378"/>
	<polygon class="st0" points="514.8,173.7 486,156.1 476.4,161.7 476.4,174.2 496.5,186.2 	"/>
	<line class="st2" x1="476.4" y1="161.7" x2="503.1" y2="177.1"/>
	<polygon class="st0" points="577.3,137.7 548.5,120.1 538.9,125.7 538.9,138.3 559,150.3 	"/>
	<line class="st2" x1="538.9" y1="125.7" x2="565.6" y2="141.1"/>
	<polygon class="st1" points="623.6,120.2 151,392 151,379.5 623.6,107.7 	"/>
	<polygon class="st1" points="162.9,398.8 635.5,127 635.6,114.8 623.6,120.1 151.1,391.9 	"/>
	<line class="st8" x1="356.8" y1="274.9" x2="388.6" y2="256.6"/>
	<polyline class="st1" points="459.8,215.6 635.5,114.6 623.6,107.7 151.1,379.5 162.9,386.4 358.3,274 	"/>
	<line class="st2" x1="387.6" y1="257.1" x2="460.1" y2="215.4"/>
	<line class="st2" x1="369.3" y1="267.7" x2="370.2" y2="267.2"/>
	<polygon class="st1" points="162.9,386.4 151.1,379.5 151.1,391.9 162.9,398.8 	"/>
	<polygon class="st1" points="122.9,365 111,358.1 111,370.5 122.9,377.4 	"/>
	<polygon class="st1" points="121.5,408.3 109.6,401.4 109.6,413.8 121.5,420.7 	"/>
	<polygon class="st1" points="162.9,432.5 151,425.6 151,438.1 162.9,445 	"/>
	<polygon class="st0" points="592.9,151.7 592.9,185 581.3,191.6 569.5,184.7 569.4,165.3 	"/>
	<line class="st2" x1="581.3" y1="191.6" x2="581.3" y2="158.5"/>
	<polygon class="st1" points="527.6,189.3 527.6,222.6 516,229.2 504.2,222.3 504.2,202.9 	"/>
	<line class="st2" x1="516" y1="229.2" x2="516" y2="196.1"/>
	<polygon class="st0" points="460.4,227.9 460.4,261.2 448.8,267.8 437,260.9 436.9,241.5 	"/>
	<line class="st2" x1="448.8" y1="267.8" x2="448.8" y2="234.7"/>
	<polygon class="st1" points="393.3,266.5 393.3,299.8 381.7,306.4 369.9,299.5 369.8,280.1 	"/>
	<line class="st2" x1="381.7" y1="306.4" x2="381.7" y2="273.3"/>
	<polygon class="st1" points="326.2,305.1 326.2,338.4 314.7,345 302.8,338.1 302.8,318.7 	"/>
	<line class="st2" x1="314.7" y1="345" x2="314.7" y2="311.9"/>
	<polygon class="st1" points="258.8,343.9 258.8,377.2 247.2,383.9 235.3,377 235.3,357.5 	"/>
	<line class="st2" x1="247.2" y1="383.9" x2="247.2" y2="350.7"/>
	<polygon class="st1" points="190.5,383.2 190.5,416.5 178.9,423.2 167,416.3 167,396.8 	"/>
	<line class="st2" x1="178.9" y1="423.2" x2="178.9" y2="390"/>
	<path class="st1" d="M572.2,176.4"/>
	<path class="st1" d="M595,315l-43,24.8c-2.7,1.6-5.2,1.7-7,0.8l0,0l-51.7-29.3c0,0,0,0,0,0l-0.5-0.3l0,0c-1.5-1.1-2.5-3.2-2.5-6.1
		v-28c0-9.8,3.4-21.1,9.5-31.4l28.9-49c5.9-10,13.8-18.2,22-22.9l20-11.6c2.7-1.5,5.1-1.7,6.9-0.8l0,0l51.7,29.3v0
		c1.9,1,3.1,3.2,3.1,6.5v85c0,6.3-4.5,14-10,17.2l-4.4,2.5"/>
	<path class="st1" d="M614.3,303.9l8.2-4.7c5.5-3.2,10-10.9,10-17.2v-85c0-6.3-4.5-8.9-10-5.7l-20,11.6c-8.2,4.7-16.1,12.9-22,22.9
		l-28.9,49c-6.1,10.3-9.5,21.6-9.5,31.4v28c0,6.3,4.5,8.9,10,5.7l44.4-25.6"/>
	<line class="st2" x1="606" y1="308.7" x2="607.7" y2="307.7"/>
	<path class="st0" d="M615.8,215.4v-2.7c0-3-2.1-4.1-4.7-2.7l-12.2,7.1c-6.3,3.6-12.3,9.9-16.8,17.5L560,272.1
		c-4.7,7.9-7.3,16.6-7.3,24v5c0,3,2.1,4.1,4.7,2.7l53.8-31c2.6-1.5,4.7-5.1,4.7-8v-33.4"/>
	<path class="st2" d="M741.3,69.3L670,28.7L650,17.3l-7.6-4.3l-78.2,45.1v17.5l6.1,3.5l-6.1,3.5v14.8L400,191.9l-11,6.3L111.2,358
		l10.8,6.2l-0.1,0.1l-10.8-6.3v12.4l11.9,6.9v-0.2l0.2,0.1v0l4.6-2.6l0,0l0,16.3l-17.8,10.2v0.2l-0.2-0.1v12.4l11.9,6.9v-0.2
		l0.3,0.1v0l17.6-10.1l18.2,10.9l9.5-5.3v0l-16,9.2v0.3l-0.1,0v12.4l11.9,6.9v-0.3l0.1,0.1v0l17.2-9.9v57.6
		c-3.3,0.4-6.4,1.3-8.9,2.8c-2.2,1.3-3.7,2.8-4.5,4.4c-0.3,0.7-0.5,1.4-0.6,2.1c-0.1,0.5-0.1,0.9,0,1.4c0,0.2,0.1,0.4,0.1,0.5
		c-0.2,0.5-0.4,1-0.4,1.6v8.2c0,8,5.1,14.7,12.2,17.1v2.2c0,4,1.9,6.9,4.1,8.1l3.1,1.7l0.4,0.2c0.1,0,0.2,0.1,0.3,0.1
		c0.3,0.1,0.6,0.2,0.8,0.3c0.1,0,0.2,0.1,0.2,0.1c0.4,0.8,0.7,1.8,0.7,3.1c0,6.2-5.6,13-10.1,13.3c-0.1-0.1-0.1-0.3-0.2-0.4
		c-0.1-0.2-0.2-0.4-0.2-0.7c-0.1-0.4-0.2-0.8-0.2-1.2c0,0,0,0,0,0c0-0.3-0.1-0.5-0.2-0.7c-0.1-0.1-0.2-0.2-0.2-0.3
		c-0.1-0.1-0.1-0.1-0.2-0.2l0,0l-3.7-2c0,0,0,0-0.1,0l-0.1-0.1l0,0c-0.4-0.1-0.8,0-1.3,0.2c-1.3,0.7-2.2,2.5-2.1,3.9
		c0.2,2.8,1.3,5.1,3.3,6.2c0,0,0,0,0.1,0l3.4,1.9l0,0c0.1,0,0.1,0.1,0.1,0.1c0.2,0.1,0.4,0.2,0.6,0.2c2.1,0.9,4.6,0.5,7.1-0.8
		c1.1-0.6,2.2-1.4,3.2-2.3c4.7-4.1,8.6-11.1,8.6-17.7c0-4.2-1.7-6.9-4.3-7.8c-2.3-0.8-3.9-2.9-4.2-6c0-0.2,0-0.5,0-0.8
		c8.5-1.5,15-8.9,15-17.8v-9c-0.1-0.6-0.4-1.2-0.7-1.8c0,0,0,0-0.1-0.1c0-0.5,0-1-0.1-1.5c-0.1-0.6-0.4-1.2-0.7-1.8
		c-0.8-1.5-2.2-2.9-4.2-4c-2.5-1.4-5.6-2.3-8.8-2.7v-61.7l264.5-152.1v422.6v15.6v22.8l-48.9,28.2l0,0l0,0l0,42.9l8.1,4.7l79.6,46
		l26.6,15.3l115-66.4v-42.9l0,0l-49-28.3V576.5v-17.2v-1.4v-10.6V322l12-6.9l0,0l23.1-13.3l4.4-2.5c2.1-1.2,4-3,5.6-5.2
		c1.1-1.4,2-3,2.7-4.6c1.1-2.5,1.7-5,1.7-7.4v-44.9l30.7,17.4l78.2-45.1v-17.5l-6.1-3.5l6.1-3.5v-17.5l-6.1-3.5l6.1-3.5v-17.5
		l-6.1-3.5l6.1-3.5v-17.5l-6.1-3.5l6.1-3.5V93.8l-6.1-3.5l6.1-3.5L741.3,69.3L741.3,69.3z"/>
	<path class="st0" d="M523.2,215.6l12.4-22.3l42.6,24.4l-31.9,54.3c-5.5,9.3-8.5,19.7-9,30.5l-0.4,8.7l-41.2-22.7l0.2-9
		c0.3-10.5,3.1-20.9,8.3-30.1l8-14.2"/>
	<line class="st2" x1="518.1" y1="224.9" x2="518.5" y2="224.1"/>
	<line class="st2" x1="228.4" y1="667.3" x2="182" y2="558.7"/>
	<line class="st2" x1="135" y1="607.5" x2="170.1" y2="563"/>
</g>
</svg>
