<?xml version="1.0" encoding="utf-8"?>
<!-- Generator: Adobe Illustrator 23.0.3, SVG Export Plug-In . SVG Version: 6.00 Build 0)  -->
<svg version="1.1" id="Layer_2" xmlns="http://www.w3.org/2000/svg" xmlns:xlink="http://www.w3.org/1999/xlink" x="0px" y="0px"
	 viewBox="0 0 488.1 388.2" style="enable-background:new 0 0 488.1 388.2;" xml:space="preserve">
<style type="text/css">
	.st0{fill:#DCE7F2;stroke:#183D54;stroke-width:1.5;stroke-linecap:round;stroke-linejoin:round;stroke-miterlimit:10;}
	.st1{fill:#FFFFFF;stroke:#183D54;stroke-width:1.5;stroke-linecap:round;stroke-linejoin:round;stroke-miterlimit:10;}
	.st2{fill:#35D0BA;stroke:#183D54;stroke-width:1.5;stroke-linecap:round;stroke-linejoin:round;stroke-miterlimit:10;}
	.st3{fill:#35EEBA;stroke:#183D54;stroke-width:1.5;stroke-linecap:round;stroke-linejoin:round;stroke-miterlimit:10;}
	.st4{fill:#F3807B;stroke:#183D54;stroke-width:1.5;stroke-linecap:round;stroke-linejoin:round;stroke-miterlimit:10;}
	.st5{fill:#FF8F8F;stroke:#183D54;stroke-width:1.5;stroke-linecap:round;stroke-linejoin:round;stroke-miterlimit:10;}
	.st6{fill:#EFA0A0;stroke:#183D54;stroke-width:1.5;stroke-linecap:round;stroke-linejoin:round;stroke-miterlimit:10;}
	.st7{fill:#FFCD3C;stroke:#183D54;stroke-width:1.5;stroke-linecap:round;stroke-linejoin:round;stroke-miterlimit:10;}
	.st8{fill:#FFED3C;stroke:#183D54;stroke-width:1.5;stroke-linecap:round;stroke-linejoin:round;stroke-miterlimit:10;}
	.st9{fill:#FFE8B6;stroke:#183D54;stroke-width:1.5;stroke-linecap:round;stroke-linejoin:round;stroke-miterlimit:10;}
	.st10{fill:#F7D186;stroke:#183D54;stroke-width:1.5;stroke-linecap:round;stroke-linejoin:round;stroke-miterlimit:10;}
	.st11{fill:#FFE8C0;stroke:#183D54;stroke-width:1.5;stroke-linecap:round;stroke-linejoin:round;stroke-miterlimit:10;}
	.st12{fill:none;stroke:#183D54;stroke-width:1.5;stroke-linecap:round;stroke-linejoin:round;stroke-miterlimit:10;}
	.st13{fill:#D8AE64;stroke:#183D54;stroke-width:1.5;stroke-linecap:round;stroke-linejoin:round;stroke-miterlimit:10;}
	.st14{fill:#F9D093;stroke:#183D54;stroke-width:1.5;stroke-linecap:round;stroke-linejoin:round;stroke-miterlimit:10;}
	.st15{fill:none;stroke:#B1CEE6;stroke-width:1.5;stroke-linecap:round;stroke-linejoin:round;stroke-dasharray:4.3358,4.3358;}
	.st16{fill:#FFBD85;stroke:#183D54;stroke-width:1.5;stroke-linecap:round;stroke-linejoin:round;stroke-miterlimit:10;}
	
		.st17{fill-rule:evenodd;clip-rule:evenodd;fill:#DCE7F2;stroke:#183D54;stroke-width:1.5;stroke-linecap:round;stroke-linejoin:round;stroke-miterlimit:10;}
	
		.st18{fill-rule:evenodd;clip-rule:evenodd;fill:#FFFFFF;stroke:#183D54;stroke-width:1.5;stroke-linecap:round;stroke-linejoin:round;stroke-miterlimit:10;}
	
		.st19{fill-rule:evenodd;clip-rule:evenodd;fill:#FFFFFF;stroke:#DCE7F2;stroke-width:1.5;stroke-linecap:round;stroke-linejoin:round;stroke-miterlimit:10;}
	.st20{fill:#DCE7F2;}
	.st21{fill-rule:evenodd;clip-rule:evenodd;fill:#FFFFFF;}
	
		.st22{fill-rule:evenodd;clip-rule:evenodd;fill:#F9D093;stroke:#183D54;stroke-width:1.5;stroke-linecap:round;stroke-linejoin:round;stroke-miterlimit:10;}
	.st23{clip-path:url(#SVGID_2_);fill:#35D0BA;}
	.st24{clip-path:url(#SVGID_4_);fill:#F3807B;}
	.st25{clip-path:url(#SVGID_6_);fill:#FFCD3C;}
	
		.st26{fill-rule:evenodd;clip-rule:evenodd;fill:none;stroke:#183D54;stroke-width:1.5;stroke-linecap:round;stroke-linejoin:round;stroke-miterlimit:10;}
</style>
<g id="app_icons_5_">
	<g>
		<path class="st0" d="M158.1,349.4L109,377.7c-8.8,5.1-24.2,4.4-34.3-1.4L15.3,342c-5.9-3.4-8.7-6.8-8.4-10.9v-5.7
			c-0.3-3.5,1.6-6.9,5.9-9.3l65-37.5c8.8-5.1,24.2-4.4,34.3,1.4l59.5,34.3c5.5,3.2,8.4,7.3,8.4,11.2h0v5.7h0c0.2,3.4-1.8,6.6-5.9,9
			l-7.7,4.5"/>
		<path class="st1" d="M49.5,355.7l25.3,14.6c11,6.3,24.7,7,34.3,1.4l65-37.5c8.8-5.1,7.7-13.9-2.5-19.8L112.1,280
			c-10.2-5.9-25.5-6.5-34.3-1.4l-65,37.5c-8.8,5.1-7.7,13.9,2.5,19.8l16.6,9.6"/>
		<line class="st1" x1="39.8" y1="350.1" x2="40.9" y2="350.7"/>
	</g>
	<g>
		<g>
			<path class="st2" d="M64.8,299.7c-0.1-1.2,0.6-2.4,2-3.2l22.4-12.9c3-1.8,8.3-1.5,11.8,0.5l20.5,11.8c1.9,1.1,2.9,2.5,2.9,3.8h0
				v9.8h0c0.1,1.2-0.6,2.3-2,3.1L100,325.6c-3,1.8-8.3,1.5-11.8-0.5l-20.5-11.8c-2-1.2-3-2.7-2.9-4.1V299.7z"/>
			<path class="st2" d="M100,315.6l22.4-12.9c3-1.8,2.7-4.8-0.8-6.8L101.1,284c-3.5-2-8.8-2.2-11.8-0.5l-22.4,12.9
				c-3,1.8-2.7,4.8,0.8,6.8l20.5,11.8C91.7,317.1,97,317.3,100,315.6z"/>
		</g>
		<g>
			<path class="st2" d="M64.8,289.8c-0.1-1.2,0.6-2.4,2-3.2l22.4-12.9c3-1.8,8.3-1.5,11.8,0.5l20.5,11.8c1.9,1.1,2.9,2.5,2.9,3.8h0
				v9.8h0c0.1,1.2-0.6,2.3-2,3.1L100,315.7c-3,1.8-8.3,1.5-11.8-0.5l-20.5-11.8c-2-1.2-3-2.7-2.9-4.1V289.8z"/>
			<path class="st2" d="M100,305.7l22.4-12.9c3-1.8,2.7-4.8-0.8-6.8l-20.5-11.8c-3.5-2-8.8-2.2-11.8-0.5l-22.4,12.9
				c-3,1.8-2.7,4.8,0.8,6.8l20.5,11.8C91.7,307.3,97,307.5,100,305.7z"/>
		</g>
		<g>
			<path class="st2" d="M64.8,280c-0.1-1.2,0.6-2.4,2-3.2l22.4-12.9c3-1.8,8.3-1.5,11.8,0.5l20.5,11.8c1.9,1.1,2.9,2.5,2.9,3.8h0
				v9.8h0c0.1,1.2-0.6,2.3-2,3.1L100,305.9c-3,1.8-8.3,1.5-11.8-0.5l-20.5-11.8c-2-1.2-3-2.7-2.9-4.1V280z"/>
			<path class="st2" d="M100,295.9l22.4-12.9c3-1.8,2.7-4.8-0.8-6.8l-20.5-11.8c-3.5-2-8.8-2.2-11.8-0.5l-22.4,12.9
				c-3,1.8-2.7,4.8,0.8,6.8l20.5,11.8C91.7,297.5,97,297.7,100,295.9z"/>
		</g>
		<g>
			<path class="st2" d="M64.8,270.1c-0.1-1.2,0.6-2.4,2-3.2L89.3,254c3-1.8,8.3-1.5,11.8,0.5l20.5,11.8c1.9,1.1,2.9,2.5,2.9,3.8h0
				v9.8h0c0.1,1.2-0.6,2.3-2,3.1L100,296c-3,1.8-8.3,1.5-11.8-0.5l-20.5-11.8c-2-1.2-3-2.7-2.9-4.1V270.1z"/>
			<path class="st3" d="M100,286.1l22.4-12.9c3-1.8,2.7-4.8-0.8-6.8l-20.5-11.8c-3.5-2-8.8-2.2-11.8-0.5l-22.4,12.9
				c-3,1.8-2.7,4.8,0.8,6.8l20.5,11.8C91.7,287.6,97,287.8,100,286.1z"/>
		</g>
	</g>
	<g>
		<g>
			<path class="st4" d="M31.6,318.8c-0.1-1.2,0.6-2.4,2-3.2l22.4-12.9c3-1.8,8.3-1.5,11.8,0.5L88.4,315c1.9,1.1,2.9,2.5,2.9,3.8h0
				v9.8h0c0.1,1.2-0.6,2.3-2,3.1l-22.4,12.9c-3,1.8-8.3,1.5-11.8-0.5l-20.5-11.8c-2-1.2-3-2.7-2.9-4.1V318.8z"/>
			<path class="st4" d="M66.8,334.7l22.4-12.9c3-1.8,2.7-4.8-0.8-6.8l-20.5-11.8c-3.5-2-8.8-2.2-11.8-0.5l-22.4,12.9
				c-3,1.8-2.7,4.8,0.8,6.8L55,334.2C58.5,336.3,63.8,336.5,66.8,334.7z"/>
		</g>
		<g>
			<path class="st4" d="M31.6,308.9c-0.1-1.2,0.6-2.4,2-3.2l22.4-12.9c3-1.8,8.3-1.5,11.8,0.5l20.5,11.8c1.9,1.1,2.9,2.5,2.9,3.8h0
				v9.8h0c0.1,1.2-0.6,2.3-2,3.1l-22.4,12.9c-3,1.8-8.3,1.5-11.8-0.5l-20.5-11.8c-2-1.2-3-2.7-2.9-4.1V308.9z"/>
			<path class="st4" d="M66.8,324.9l22.4-12.9c3-1.8,2.7-4.8-0.8-6.8l-20.5-11.8c-3.5-2-8.8-2.2-11.8-0.5l-22.4,12.9
				c-3,1.8-2.7,4.8,0.8,6.8L55,324.4C58.5,326.4,63.8,326.6,66.8,324.9z"/>
		</g>
		<g>
			<path class="st4" d="M31.6,299.1c-0.1-1.2,0.6-2.4,2-3.2L56.1,283c3-1.8,8.3-1.5,11.8,0.5l20.5,11.8c1.9,1.1,2.9,2.5,2.9,3.8h0
				v9.8h0c0.1,1.2-0.6,2.3-2,3.1L66.8,325c-3,1.8-8.3,1.5-11.8-0.5l-20.5-11.8c-2-1.2-3-2.7-2.9-4.1V299.1z"/>
			<path class="st5" d="M62.1,316.2c0.2,0,0.4,0,0.6,0"/>
			<path class="st6" d="M66.5,315.2c0.1-0.1,0.2-0.1,0.3-0.2l22.4-12.9c3-1.8,2.7-4.8-0.8-6.8l-20.5-11.8c-3.5-2-8.8-2.2-11.8-0.5
				l-22.4,12.9c-3,1.8-2.7,4.8,0.8,6.8L55,314.6c0.9,0.5,2,0.9,3.1,1.2"/>
			<path class="st5" d="M62.7,316.2c0.3,0,0.6-0.1,0.9-0.1"/>
		</g>
	</g>
	<g>
		<g>
			<path class="st7" d="M94.7,321.9c-0.1-1.2,0.6-2.4,2-3.2l22.4-12.9c3-1.8,8.3-1.5,11.8,0.5l20.5,11.8c1.9,1.1,2.9,2.5,2.9,3.8h0
				v9.8h0c0.1,1.2-0.6,2.3-2,3.1l-22.4,12.9c-3,1.8-8.3,1.5-11.8-0.5l-20.5-11.8c-2-1.2-3-2.7-2.9-4.1V321.9z"/>
			<path class="st8" d="M129.9,337.8l22.4-12.9c3-1.8,2.7-4.8-0.8-6.8l-20.5-11.8c-3.5-2-8.8-2.2-11.8-0.5l-22.4,12.9
				c-3,1.8-2.7,4.8,0.8,6.8l20.5,11.8C121.5,339.3,126.8,339.5,129.9,337.8z"/>
		</g>
		<g>
			<path class="st7" d="M94.7,312c-0.1-1.2,0.6-2.4,2-3.2l22.4-12.9c3-1.8,8.3-1.5,11.8,0.5l20.5,11.8c1.9,1.1,2.9,2.5,2.9,3.8h0
				v9.8h0c0.1,1.2-0.6,2.3-2,3.1l-22.4,12.9c-3,1.8-8.3,1.5-11.8-0.5l-20.5-11.8c-2-1.2-3-2.7-2.9-4.1V312z"/>
			<path class="st9" d="M112.4,324.2l5.6,3.3c3.5,2,8.8,2.2,11.8,0.5l22.4-12.9c3-1.8,2.7-4.8-0.8-6.8l-20.5-11.8
				c-3.5-2-8.8-2.2-11.8-0.5l-22.4,12.9c-3,1.8-2.7,4.8,0.8,6.8l11.3,6.5"/>
		</g>
	</g>
	<g>
		<g>
			<path class="st10" d="M63.3,338.1c-0.1-1.2,0.6-2.4,2-3.2l22.4-12.9c3-1.8,8.3-1.5,11.8,0.5l20.5,11.8c1.9,1.1,2.9,2.5,2.9,3.8h0
				v9.8h0c0.1,1.2-0.6,2.3-2,3.1l-22.4,12.9c-3,1.8-8.3,1.5-11.8-0.5l-20.5-11.8c-2-1.2-3-2.7-2.9-4.1V338.1z"/>
			<path class="st10" d="M98.5,354l22.4-12.9c3-1.8,2.7-4.8-0.8-6.8l-20.5-11.8c-3.5-2-8.8-2.2-11.8-0.5l-22.4,12.9
				c-3,1.8-2.7,4.8,0.8,6.8l20.5,11.8C90.2,355.5,95.5,355.7,98.5,354z"/>
		</g>
		<g>
			<path class="st10" d="M63.3,328.2c-0.1-1.2,0.6-2.4,2-3.2L87.8,312c3-1.8,8.3-1.5,11.8,0.5l20.5,11.8c1.9,1.1,2.9,2.5,2.9,3.8h0
				v9.8h0c0.1,1.2-0.6,2.3-2,3.1l-22.4,12.9c-3,1.8-8.3,1.5-11.8-0.5l-20.5-11.8c-2-1.2-3-2.7-2.9-4.1V328.2z"/>
			<path class="st10" d="M98.5,344.1l22.4-12.9c3-1.8,2.7-4.8-0.8-6.8l-20.5-11.8c-3.5-2-8.8-2.2-11.8-0.5L65.4,325
				c-3,1.8-2.7,4.8,0.8,6.8l20.5,11.8C90.2,345.6,95.5,345.9,98.5,344.1z"/>
		</g>
		<g>
			<path class="st10" d="M63.3,318.4c-0.1-1.2,0.6-2.4,2-3.2l22.4-12.9c3-1.8,8.3-1.5,11.8,0.5l20.5,11.8c1.9,1.1,2.9,2.5,2.9,3.8h0
				v9.8h0c0.1,1.2-0.6,2.3-2,3.1l-22.4,12.9c-3,1.8-8.3,1.5-11.8-0.5L66.2,332c-2-1.2-3-2.7-2.9-4.1V318.4z"/>
			<path class="st10" d="M98.5,334.3l22.4-12.9c3-1.8,2.7-4.8-0.8-6.8l-20.5-11.8c-3.5-2-8.8-2.2-11.8-0.5l-22.4,12.9
				c-3,1.8-2.7,4.8,0.8,6.8l20.5,11.8C90.2,335.9,95.5,336.1,98.5,334.3z"/>
		</g>
		<g>
			<path class="st10" d="M63.3,308.5c-0.1-1.2,0.6-2.4,2-3.2l22.4-12.9c3-1.8,8.3-1.5,11.8,0.5l20.5,11.8c1.9,1.1,2.9,2.5,2.9,3.8h0
				v9.8h0c0.1,1.2-0.6,2.3-2,3.1l-22.4,12.9c-3,1.8-8.3,1.5-11.8-0.5l-20.5-11.8c-2-1.2-3-2.7-2.9-4.1V308.5z"/>
			<path class="st11" d="M112.7,316.3l8.2-4.7c3-1.8,2.7-4.8-0.8-6.8l-20.5-11.8c-3.5-2-8.8-2.2-11.8-0.5l-22.4,12.9
				c-3,1.8-2.7,4.8,0.8,6.8L86.7,324c3.5,2,8.8,2.2,11.8,0.5l6.5-3.8"/>
			<line class="st5" x1="108.4" y1="318.8" x2="108.8" y2="318.5"/>
		</g>
	</g>
	<path class="st12" d="M6.9,331.1v-5.7c0-0.1,0-0.2,0-0.4c0-0.3,0-0.6,0-0.9c0-0.1,0-0.3,0.1-0.4c0-0.3,0.1-0.6,0.1-0.9
		c0-0.1,0.1-0.3,0.1-0.4c0.1-0.3,0.2-0.5,0.3-0.8c0.1-0.2,0.2-0.3,0.2-0.5c0.1-0.3,0.2-0.5,0.4-0.8c0.1-0.2,0.2-0.3,0.4-0.5
		c0.2-0.2,0.3-0.4,0.5-0.7c0.2-0.2,0.3-0.4,0.5-0.6c0.2-0.2,0.3-0.4,0.5-0.6c0.2-0.2,0.5-0.4,0.8-0.6c0.2-0.1,0.3-0.3,0.5-0.4
		c0.5-0.3,1-0.7,1.5-1c0,0,0,0,0,0l18.8-10.9v-6.1c0,0,0-0.1,0-0.1c0-0.1,0-0.2,0-0.3c0-0.1,0-0.1,0-0.1c0-0.1,0-0.2,0-0.3
		c0-0.1,0-0.1,0-0.2c0-0.1,0.1-0.2,0.1-0.3c0-0.1,0.1-0.1,0.1-0.2c0-0.1,0.1-0.2,0.1-0.3c0-0.1,0.1-0.1,0.1-0.2
		c0.1-0.1,0.1-0.2,0.2-0.2c0.1-0.1,0.1-0.1,0.2-0.2c0.1-0.1,0.1-0.1,0.2-0.2c0.1-0.1,0.2-0.2,0.3-0.2c0.1,0,0.1-0.1,0.2-0.1
		c0.2-0.1,0.3-0.2,0.5-0.3L56.1,283c1.9-1.1,4.7-1.4,7.3-1c0.5,0.1,1,0.2,1.4,0.3V280c0,0,0-0.1,0-0.1c0-0.1,0-0.2,0-0.3
		c0,0,0,0,0-0.1v-9.4c0,0,0-0.1,0-0.1c0-0.1,0-0.2,0-0.3c0-0.1,0-0.1,0-0.2c0-0.1,0-0.2,0-0.3c0-0.1,0-0.1,0-0.2
		c0-0.1,0.1-0.2,0.1-0.3c0-0.1,0.1-0.1,0.1-0.2c0-0.1,0.1-0.2,0.1-0.3c0-0.1,0.1-0.1,0.1-0.2c0.1-0.1,0.1-0.2,0.2-0.2
		c0.1-0.1,0.1-0.1,0.2-0.2c0.1-0.1,0.1-0.1,0.2-0.2c0.1-0.1,0.2-0.1,0.3-0.2c0.1,0,0.1-0.1,0.2-0.1c0.2-0.1,0.3-0.2,0.5-0.3
		L89.3,254c0.8-0.4,1.7-0.8,2.6-0.9c2.9-0.6,6.6-0.1,9.2,1.4l20.5,11.8c0,0,0,0,0,0c0.2,0.1,0.4,0.3,0.6,0.4c0.1,0,0.1,0.1,0.2,0.1
		c0.1,0.1,0.3,0.2,0.4,0.3c0.1,0.1,0.1,0.1,0.2,0.2c0.1,0.1,0.2,0.2,0.3,0.3c0.1,0.1,0.1,0.1,0.2,0.2c0.1,0.1,0.2,0.2,0.2,0.3
		c0,0.1,0.1,0.1,0.1,0.2c0.1,0.1,0.1,0.2,0.2,0.3c0,0.1,0.1,0.1,0.1,0.2c0.1,0.1,0.1,0.2,0.1,0.3c0,0.1,0,0.1,0.1,0.2
		c0,0.1,0.1,0.2,0.1,0.3c0,0.1,0,0.1,0,0.2c0,0.1,0,0.2,0,0.3c0,0,0,0.1,0,0.1h0v1.2l1,16.4l30.7,17.7l15.4,8.9c0,0,0,0,0,0
		c0.7,0.4,1.3,0.8,1.9,1.2c0.2,0.1,0.4,0.3,0.5,0.4c0.4,0.3,0.8,0.6,1.1,0.9c0.2,0.2,0.4,0.3,0.5,0.5c0.3,0.3,0.6,0.5,0.9,0.8
		c0.2,0.2,0.3,0.3,0.5,0.5c0.2,0.3,0.5,0.6,0.7,0.8c0.1,0.2,0.3,0.3,0.4,0.5c0.2,0.3,0.4,0.6,0.6,0.9c0.1,0.2,0.2,0.3,0.3,0.5
		c0.2,0.3,0.3,0.6,0.4,0.9c0.1,0.2,0.1,0.3,0.2,0.5c0.1,0.3,0.2,0.6,0.3,1c0,0.2,0.1,0.3,0.1,0.5c0.1,0.3,0.1,0.7,0.1,1
		c0,0.1,0,0.2,0,0.3h0v5.7h0c0.2,3.4-1.8,6.6-5.9,9l-7.7,4.5l-8.2,4.7L109,377.7c-8.8,5.1-24.2,4.4-34.3-1.4L15.3,342
		C9.4,338.6,6.5,335.2,6.9,331.1z"/>
</g>
<g id="app_icons_6_">
	<g>
		<path class="st0" d="M156.8,174.1l-49.1,28.3c-8.8,5.1-24.2,4.4-34.3-1.4L14,166.7c-5.9-3.4-8.7-6.8-8.4-10.9v-5.7
			c-0.3-3.5,1.6-6.9,5.9-9.3l65-37.5c8.8-5.1,24.2-4.4,34.3,1.4l59.5,34.3c5.5,3.2,8.4,7.3,8.4,11.2h0v5.7h0c0.2,3.4-1.8,6.6-5.9,9
			l-7.7,4.5"/>
		<path class="st1" d="M48.2,180.4L73.5,195c11,6.3,24.7,7,34.3,1.4l65-37.5c8.8-5.1,7.7-13.9-2.5-19.8l-59.5-34.3
			c-10.2-5.9-25.5-6.5-34.3-1.4l-65,37.5c-8.8,5.1-7.7,13.9,2.5,19.8l16.6,9.6"/>
		<line class="st1" x1="38.6" y1="174.9" x2="39.6" y2="175.5"/>
	</g>
	<g>
		<g>
			<path class="st13" d="M63.6,124.4c-0.1-1.2,0.6-2.4,2-3.2L88,108.3c3-1.8,8.3-1.5,11.8,0.5l20.5,11.8c1.9,1.1,2.9,2.5,2.9,3.8h0
				v9.8h0c0.1,1.2-0.6,2.3-2,3.1l-22.4,12.9c-3,1.8-8.3,1.5-11.8-0.5L66.5,138c-2-1.2-3-2.7-2.9-4.1V124.4z"/>
			<path class="st13" d="M98.8,140.3l22.4-12.9c3-1.8,2.7-4.8-0.8-6.8l-20.5-11.8c-3.5-2-8.8-2.2-11.8-0.5l-22.4,12.9
				c-3,1.8-2.7,4.8,0.8,6.8L87,139.9C90.5,141.9,95.8,142.1,98.8,140.3z"/>
		</g>
		<g>
			<path class="st13" d="M63.6,114.5c-0.1-1.2,0.6-2.4,2-3.2L88,98.4c3-1.8,8.3-1.5,11.8,0.5l20.5,11.8c1.9,1.1,2.9,2.5,2.9,3.8h0
				v9.8h0c0.1,1.2-0.6,2.3-2,3.1l-22.4,12.9c-3,1.8-8.3,1.5-11.8-0.5l-20.5-11.8c-2-1.2-3-2.7-2.9-4.1V114.5z"/>
			<path class="st13" d="M98.8,130.5l22.4-12.9c3-1.8,2.7-4.8-0.8-6.8L99.8,98.9c-3.5-2-8.8-2.2-11.8-0.5l-22.4,12.9
				c-3,1.8-2.7,4.8,0.8,6.8L87,130C90.5,132,95.8,132.2,98.8,130.5z"/>
		</g>
		<g>
			<path class="st13" d="M63.6,104.8c-0.1-1.2,0.6-2.4,2-3.2L88,88.6c3-1.8,8.3-1.5,11.8,0.5l20.5,11.8c1.9,1.1,2.9,2.5,2.9,3.8h0
				v9.8h0c0.1,1.2-0.6,2.3-2,3.1l-22.4,12.9c-3,1.8-8.3,1.5-11.8-0.5l-20.5-11.8c-2-1.2-3-2.7-2.9-4.1V104.8z"/>
			<path class="st13" d="M98.8,120.7l22.4-12.9c3-1.8,2.7-4.8-0.8-6.8L99.8,89.1c-3.5-2-8.8-2.2-11.8-0.5l-22.4,12.9
				c-3,1.8-2.7,4.8,0.8,6.8L87,120.2C90.5,122.2,95.8,122.4,98.8,120.7z"/>
		</g>
		<g>
			<path class="st13" d="M63.6,94.9c-0.1-1.2,0.6-2.4,2-3.2L88,78.7c3-1.8,8.3-1.5,11.8,0.5l20.5,11.8c1.9,1.1,2.9,2.5,2.9,3.8h0
				v9.8h0c0.1,1.2-0.6,2.3-2,3.1l-22.4,12.9c-3,1.8-8.3,1.5-11.8-0.5l-20.5-11.8c-2-1.2-3-2.7-2.9-4.1V94.9z"/>
			<path class="st14" d="M98.8,110.8l22.4-12.9c3-1.8,2.7-4.8-0.8-6.8L99.8,79.2c-3.5-2-8.8-2.2-11.8-0.5L65.6,91.7
				c-3,1.8-2.7,4.8,0.8,6.8L87,110.3C90.5,112.3,95.8,112.6,98.8,110.8z"/>
		</g>
	</g>
	<g>
		<g>
			<path class="st4" d="M30.4,143.5c-0.1-1.2,0.6-2.4,2-3.2l22.4-12.9c3-1.8,8.3-1.5,11.8,0.5l20.5,11.8c1.9,1.1,2.9,2.5,2.9,3.8h0
				v9.8h0c0.1,1.2-0.6,2.3-2,3.1l-22.4,12.9c-3,1.8-8.3,1.5-11.8-0.5l-20.5-11.8c-2-1.2-3-2.7-2.9-4.1V143.5z"/>
			<path class="st4" d="M65.6,159.5L88,146.5c3-1.8,2.7-4.8-0.8-6.8l-20.5-11.8c-3.5-2-8.8-2.2-11.8-0.5l-22.4,12.9
				c-3,1.8-2.7,4.8,0.8,6.8L53.8,159C57.3,161,62.5,161.2,65.6,159.5z"/>
		</g>
		<g>
			<path class="st4" d="M30.4,133.7c-0.1-1.2,0.6-2.4,2-3.2l22.4-12.9c3-1.8,8.3-1.5,11.8,0.5l20.5,11.8c1.9,1.1,2.9,2.5,2.9,3.8h0
				v9.8h0c0.1,1.2-0.6,2.3-2,3.1l-22.4,12.9c-3,1.8-8.3,1.5-11.8-0.5l-20.5-11.8c-2-1.2-3-2.7-2.9-4.1V133.7z"/>
			<path class="st4" d="M65.6,149.6L88,136.7c3-1.8,2.7-4.8-0.8-6.8L66.6,118c-3.5-2-8.8-2.2-11.8-0.5l-22.4,12.9
				c-3,1.8-2.7,4.8,0.8,6.8l20.5,11.8C57.3,151.1,62.5,151.4,65.6,149.6z"/>
		</g>
		<g>
			<path class="st4" d="M30.4,123.9c-0.1-1.2,0.6-2.4,2-3.2l22.4-12.9c3-1.8,8.3-1.5,11.8,0.5l20.5,11.8c1.9,1.1,2.9,2.5,2.9,3.8h0
				v9.8h0c0.1,1.2-0.6,2.3-2,3.1l-22.4,12.9c-3,1.8-8.3,1.5-11.8-0.5l-20.5-11.8c-2-1.2-3-2.7-2.9-4.1V123.9z"/>
			<path class="st5" d="M60.8,141c0.2,0,0.4,0,0.6,0"/>
			<path class="st6" d="M65.2,140c0.1-0.1,0.2-0.1,0.3-0.2L88,126.9c3-1.8,2.7-4.8-0.8-6.8l-20.5-11.8c-3.5-2-8.8-2.2-11.8-0.5
				l-22.4,12.9c-3,1.8-2.7,4.8,0.8,6.8l20.5,11.8c0.9,0.5,2,0.9,3.1,1.2"/>
			<path class="st5" d="M61.4,141c0.3,0,0.6-0.1,0.9-0.1"/>
		</g>
	</g>
	<g>
		<g>
			<path class="st15" d="M133.6,167.7l20.6-11.9c2.8-1.6,2.4-4.4-0.8-6.3l-18.9-10.9c-3.2-1.9-8.1-2.1-10.9-0.5L103,150
				c-2.8,1.6-2.4,4.4,0.8,6.3l18.9,10.9C125.9,169.1,130.8,169.3,133.6,167.7z"/>
		</g>
	</g>
	<g>
		<g>
			<path class="st10" d="M62.1,162.8c-0.1-1.2,0.6-2.4,2-3.2l22.4-12.9c3-1.8,8.3-1.5,11.8,0.5l20.5,11.8c1.9,1.1,2.9,2.5,2.9,3.8h0
				v9.8h0c0.1,1.2-0.6,2.3-2,3.1l-22.4,12.9c-3,1.8-8.3,1.5-11.8-0.5L65,176.4c-2-1.2-3-2.7-2.9-4.1V162.8z"/>
			<path class="st11" d="M97.3,178.7l22.4-12.9c3-1.8,2.7-4.8-0.8-6.8l-20.5-11.8c-3.5-2-8.8-2.2-11.8-0.5l-22.4,12.9
				c-3,1.8-2.7,4.8,0.8,6.8l20.5,11.8C89,180.3,94.2,180.5,97.3,178.7z"/>
		</g>
	</g>
	<path class="st12" d="M5.6,155.8v-5.7c0-0.1,0-0.2,0-0.4c0-0.3,0-0.6,0-0.9c0-0.1,0-0.3,0.1-0.4c0-0.3,0.1-0.6,0.1-0.9
		c0-0.1,0.1-0.3,0.1-0.4c0.1-0.3,0.2-0.5,0.3-0.8c0.1-0.2,0.2-0.3,0.2-0.5c0.1-0.3,0.2-0.5,0.4-0.8c0.1-0.2,0.2-0.3,0.4-0.5
		c0.2-0.2,0.3-0.4,0.5-0.7c0.2-0.2,0.3-0.4,0.5-0.6c0.2-0.2,0.3-0.4,0.5-0.6c0.2-0.2,0.5-0.4,0.8-0.6c0.2-0.1,0.3-0.3,0.5-0.4
		c0.5-0.3,1-0.7,1.5-1c0,0,0,0,0,0L30.4,130v-6.1c0,0,0-0.1,0-0.1c0-0.1,0-0.2,0-0.3c0-0.1,0-0.1,0-0.1c0-0.1,0-0.2,0-0.3
		c0-0.1,0-0.1,0-0.2c0-0.1,0.1-0.2,0.1-0.3c0-0.1,0.1-0.1,0.1-0.2c0-0.1,0.1-0.2,0.1-0.3c0-0.1,0.1-0.1,0.1-0.2
		c0.1-0.1,0.1-0.2,0.2-0.2c0.1-0.1,0.1-0.1,0.2-0.2c0.1-0.1,0.1-0.1,0.2-0.2c0.1-0.1,0.2-0.2,0.3-0.2c0.1,0,0.1-0.1,0.2-0.1
		c0.2-0.1,0.3-0.2,0.5-0.3l22.4-12.9c1.9-1.1,4.7-1.4,7.3-1c0.5,0.1,1,0.2,1.4,0.3v-2.3c0,0,0-0.1,0-0.1c0-0.1,0-0.2,0-0.3
		c0,0,0,0,0-0.1v-9.4c0,0,0-0.1,0-0.1c0-0.1,0-0.2,0-0.3c0-0.1,0-0.1,0-0.2c0-0.1,0-0.2,0-0.3c0-0.1,0-0.1,0-0.2
		c0-0.1,0.1-0.2,0.1-0.3c0-0.1,0.1-0.1,0.1-0.2c0-0.1,0.1-0.2,0.1-0.3c0-0.1,0.1-0.1,0.1-0.2c0.1-0.1,0.1-0.2,0.2-0.2
		c0.1-0.1,0.1-0.1,0.2-0.2c0.1-0.1,0.1-0.1,0.2-0.2c0.1-0.1,0.2-0.1,0.3-0.2c0.1,0,0.1-0.1,0.2-0.1c0.2-0.1,0.3-0.2,0.5-0.3L88,78.7
		c0.8-0.4,1.7-0.8,2.6-0.9c2.9-0.6,6.6-0.1,9.2,1.4l20.5,11.8c0,0,0,0,0,0c0.2,0.1,0.4,0.3,0.6,0.4c0.1,0,0.1,0.1,0.2,0.1
		c0.1,0.1,0.3,0.2,0.4,0.3c0.1,0.1,0.1,0.1,0.2,0.2c0.1,0.1,0.2,0.2,0.3,0.3c0.1,0.1,0.1,0.1,0.2,0.2c0.1,0.1,0.2,0.2,0.2,0.3
		c0,0.1,0.1,0.1,0.1,0.2c0.1,0.1,0.1,0.2,0.2,0.3c0,0.1,0.1,0.1,0.1,0.2c0.1,0.1,0.1,0.2,0.1,0.3c0,0.1,0,0.1,0.1,0.2
		c0,0.1,0.1,0.2,0.1,0.3c0,0.1,0,0.1,0,0.2c0,0.1,0,0.2,0,0.3c0,0,0,0.1,0,0.1h0v1.2l1,16.4l30.7,17.7l15.4,8.9c0,0,0,0,0,0
		c0.7,0.4,1.3,0.8,1.9,1.2c0.2,0.1,0.4,0.3,0.5,0.4c0.4,0.3,0.8,0.6,1.1,0.9c0.2,0.2,0.4,0.3,0.5,0.5c0.3,0.3,0.6,0.5,0.9,0.8
		c0.2,0.2,0.3,0.3,0.5,0.5c0.2,0.3,0.5,0.6,0.7,0.8c0.1,0.2,0.3,0.3,0.4,0.5c0.2,0.3,0.4,0.6,0.6,0.9c0.1,0.2,0.2,0.3,0.3,0.5
		c0.2,0.3,0.3,0.6,0.4,0.9c0.1,0.2,0.1,0.3,0.2,0.5c0.1,0.3,0.2,0.6,0.3,1c0,0.2,0.1,0.3,0.1,0.5c0.1,0.3,0.1,0.7,0.1,1
		c0,0.1,0,0.2,0,0.3h0v5.7h0c0.2,3.4-1.8,6.6-5.9,9l-7.7,4.5l-8.2,4.7l-49.1,28.3c-8.8,5.1-24.2,4.4-34.3-1.4L14,166.7
		C8.1,163.3,5.3,160,5.6,155.8z"/>
</g>
<g id="app_icons_7_">
	<g>
		<path class="st0" d="M457.8,344.6L408.8,373c-8.8,5.1-24.2,4.4-34.3-1.4L315,337.2c-5.9-3.4-8.7-6.8-8.4-10.9v-5.7
			c-0.3-3.5,1.6-6.9,5.9-9.3l65-37.5c8.8-5.1,24.2-4.4,34.3,1.4l59.5,34.3c5.5,3.2,8.4,7.3,8.4,11.2h0v5.7h0c0.2,3.4-1.8,6.6-5.9,9
			l-7.7,4.5"/>
		<path class="st1" d="M349.2,350.9l25.3,14.6c11,6.3,24.7,7,34.3,1.4l65-37.5c8.8-5.1,7.7-13.9-2.5-19.8l-59.5-34.3
			c-10.2-5.9-25.5-6.5-34.3-1.4l-65,37.5c-8.8,5.1-7.7,13.9,2.5,19.8l16.6,9.6"/>
		<line class="st1" x1="339.6" y1="345.3" x2="340.6" y2="345.9"/>
	</g>
	<g>
		<g>
			<path class="st2" d="M364.6,294.9c-0.1-1.2,0.6-2.4,2-3.2l22.4-12.9c3-1.8,8.3-1.5,11.8,0.5l20.5,11.8c1.9,1.1,2.9,2.5,2.9,3.8h0
				v9.8h0c0.1,1.2-0.6,2.3-2,3.1l-22.4,12.9c-3,1.8-8.3,1.5-11.8-0.5l-20.5-11.8c-2-1.2-3-2.7-2.9-4.1V294.9z"/>
			<path class="st2" d="M399.8,310.8l22.4-12.9c3-1.8,2.7-4.8-0.8-6.8l-20.5-11.8c-3.5-2-8.8-2.2-11.8-0.5l-22.4,12.9
				c-3,1.8-2.7,4.8,0.8,6.8l20.5,11.8C391.4,312.4,396.7,312.6,399.8,310.8z"/>
		</g>
		<g>
			<path class="st2" d="M364.6,285c-0.1-1.2,0.6-2.4,2-3.2l22.4-12.9c3-1.8,8.3-1.5,11.8,0.5l20.5,11.8c1.9,1.1,2.9,2.5,2.9,3.8h0
				v9.8h0c0.1,1.2-0.6,2.3-2,3.1l-22.4,12.9c-3,1.8-8.3,1.5-11.8-0.5l-20.5-11.8c-2-1.2-3-2.7-2.9-4.1V285z"/>
			<path class="st2" d="M399.8,301l22.4-12.9c3-1.8,2.7-4.8-0.8-6.8l-20.5-11.8c-3.5-2-8.8-2.2-11.8-0.5l-22.4,12.9
				c-3,1.8-2.7,4.8,0.8,6.8l20.5,11.8C391.4,302.5,396.7,302.7,399.8,301z"/>
		</g>
		<g>
			<path class="st2" d="M364.6,275.2c-0.1-1.2,0.6-2.4,2-3.2l22.4-12.9c3-1.8,8.3-1.5,11.8,0.5l20.5,11.8c1.9,1.1,2.9,2.5,2.9,3.8h0
				v9.8h0c0.1,1.2-0.6,2.3-2,3.1l-22.4,12.9c-3,1.8-8.3,1.5-11.8-0.5l-20.5-11.8c-2-1.2-3-2.7-2.9-4.1V275.2z"/>
			<path class="st2" d="M399.8,291.2l22.4-12.9c3-1.8,2.7-4.8-0.8-6.8l-20.5-11.8c-3.5-2-8.8-2.2-11.8-0.5L366.6,272
				c-3,1.8-2.7,4.8,0.8,6.8l20.5,11.8C391.4,292.7,396.7,292.9,399.8,291.2z"/>
		</g>
		<g>
			<path class="st2" d="M364.6,265.4c-0.1-1.2,0.6-2.4,2-3.2l22.4-12.9c3-1.8,8.3-1.5,11.8,0.5l20.5,11.8c1.9,1.1,2.9,2.5,2.9,3.8h0
				v9.8h0c0.1,1.2-0.6,2.3-2,3.1l-22.4,12.9c-3,1.8-8.3,1.5-11.8-0.5l-20.5-11.8c-2-1.2-3-2.7-2.9-4.1V265.4z"/>
			<path class="st3" d="M399.8,281.3l22.4-12.9c3-1.8,2.7-4.8-0.8-6.8l-20.5-11.8c-3.5-2-8.8-2.2-11.8-0.5l-22.4,12.9
				c-3,1.8-2.7,4.8,0.8,6.8l20.5,11.8C391.4,282.8,396.7,283,399.8,281.3z"/>
		</g>
	</g>
	<g>
		<g>
			<path class="st13" d="M331.4,314c-0.1-1.2,0.6-2.4,2-3.2l22.4-12.9c3-1.8,8.3-1.5,11.8,0.5l20.5,11.8c1.9,1.1,2.9,2.5,2.9,3.8h0
				v9.8h0c0.1,1.2-0.6,2.3-2,3.1l-22.4,12.9c-3,1.8-8.3,1.5-11.8-0.5l-20.5-11.8c-2-1.2-3-2.7-2.9-4.1V314z"/>
			<path class="st13" d="M366.6,330L389,317c3-1.8,2.7-4.8-0.8-6.8l-20.5-11.8c-3.5-2-8.8-2.2-11.8-0.5l-22.4,12.9
				c-3,1.8-2.7,4.8,0.8,6.8l20.5,11.8C358.2,331.5,363.5,331.7,366.6,330z"/>
		</g>
		<g>
			<path class="st13" d="M331.4,304.1c-0.1-1.2,0.6-2.4,2-3.2l22.4-12.9c3-1.8,8.3-1.5,11.8,0.5l20.5,11.8c1.9,1.1,2.9,2.5,2.9,3.8
				h0v9.8h0c0.1,1.2-0.6,2.3-2,3.1L366.6,330c-3,1.8-8.3,1.5-11.8-0.5l-20.5-11.8c-2-1.2-3-2.7-2.9-4.1V304.1z"/>
			<path class="st13" d="M366.6,320.1l22.4-12.9c3-1.8,2.7-4.8-0.8-6.8l-20.5-11.8c-3.5-2-8.8-2.2-11.8-0.5l-22.4,12.9
				c-3,1.8-2.7,4.8,0.8,6.8l20.5,11.8C358.2,321.6,363.5,321.8,366.6,320.1z"/>
		</g>
		<g>
			<path class="st13" d="M331.4,294.4c-0.1-1.2,0.6-2.4,2-3.2l22.4-12.9c3-1.8,8.3-1.5,11.8,0.5l20.5,11.8c1.9,1.1,2.9,2.5,2.9,3.8
				h0v9.8h0c0.1,1.2-0.6,2.3-2,3.1l-22.4,12.9c-3,1.8-8.3,1.5-11.8-0.5l-20.5-11.8c-2-1.2-3-2.7-2.9-4.1V294.4z"/>
			<path class="st13" d="M361.8,311.5c0.2,0,0.4,0,0.6,0"/>
			<path class="st14" d="M366.2,310.5c0.1-0.1,0.2-0.1,0.3-0.2l22.4-12.9c3-1.8,2.7-4.8-0.8-6.8l-20.5-11.8c-3.5-2-8.8-2.2-11.8-0.5
				l-22.4,12.9c-3,1.8-2.7,4.8,0.8,6.8l20.5,11.8c0.9,0.5,2,0.9,3.1,1.2"/>
			<path class="st13" d="M362.4,311.4c0.3,0,0.6-0.1,0.9-0.1"/>
		</g>
	</g>
	<path class="st12" d="M306.6,326.3v-5.7c0-0.1,0-0.2,0-0.4c0-0.3,0-0.6,0-0.9c0-0.1,0-0.3,0.1-0.4c0-0.3,0.1-0.6,0.1-0.9
		c0-0.1,0.1-0.3,0.1-0.4c0.1-0.3,0.2-0.5,0.3-0.8c0.1-0.2,0.2-0.3,0.2-0.5c0.1-0.3,0.2-0.5,0.4-0.8c0.1-0.2,0.2-0.3,0.4-0.5
		c0.2-0.2,0.3-0.4,0.5-0.7c0.2-0.2,0.3-0.4,0.5-0.6c0.2-0.2,0.3-0.4,0.5-0.6c0.2-0.2,0.5-0.4,0.8-0.6c0.2-0.1,0.3-0.3,0.5-0.4
		c0.5-0.3,1-0.7,1.5-1c0,0,0,0,0,0l18.8-10.9v-6.1c0,0,0-0.1,0-0.1c0-0.1,0-0.2,0-0.3c0-0.1,0-0.1,0-0.1c0-0.1,0-0.2,0-0.3
		c0-0.1,0-0.1,0-0.2c0-0.1,0.1-0.2,0.1-0.3c0-0.1,0.1-0.1,0.1-0.2c0-0.1,0.1-0.2,0.1-0.3c0-0.1,0.1-0.1,0.1-0.2
		c0.1-0.1,0.1-0.2,0.2-0.2c0.1-0.1,0.1-0.1,0.2-0.2c0.1-0.1,0.1-0.1,0.2-0.2c0.1-0.1,0.2-0.2,0.3-0.2c0.1,0,0.1-0.1,0.2-0.1
		c0.2-0.1,0.3-0.2,0.5-0.3l22.4-12.9c1.9-1.1,4.7-1.4,7.3-1c0.5,0.1,1,0.2,1.4,0.3v-2.3c0,0,0-0.1,0-0.1c0-0.1,0-0.2,0-0.3
		c0,0,0,0,0-0.1v-9.4c0,0,0-0.1,0-0.1c0-0.1,0-0.2,0-0.3c0-0.1,0-0.1,0-0.2c0-0.1,0-0.2,0-0.3c0-0.1,0-0.1,0-0.2
		c0-0.1,0.1-0.2,0.1-0.3c0-0.1,0.1-0.1,0.1-0.2c0-0.1,0.1-0.2,0.1-0.3c0-0.1,0.1-0.1,0.1-0.2c0.1-0.1,0.1-0.2,0.2-0.2
		c0.1-0.1,0.1-0.1,0.2-0.2c0.1-0.1,0.1-0.1,0.2-0.2c0.1-0.1,0.2-0.1,0.3-0.2c0.1,0,0.1-0.1,0.2-0.1c0.2-0.1,0.3-0.2,0.5-0.3
		l22.4-12.9c0.8-0.4,1.7-0.8,2.6-0.9c2.9-0.6,6.6-0.1,9.2,1.4l20.5,11.8c0,0,0,0,0,0c0.2,0.1,0.4,0.3,0.6,0.4c0.1,0,0.1,0.1,0.2,0.1
		c0.1,0.1,0.3,0.2,0.4,0.3c0.1,0.1,0.1,0.1,0.2,0.2c0.1,0.1,0.2,0.2,0.3,0.3c0.1,0.1,0.1,0.1,0.2,0.2c0.1,0.1,0.2,0.2,0.2,0.3
		c0,0.1,0.1,0.1,0.1,0.2c0.1,0.1,0.1,0.2,0.2,0.3c0,0.1,0.1,0.1,0.1,0.2c0.1,0.1,0.1,0.2,0.1,0.3c0,0.1,0,0.1,0.1,0.2
		c0,0.1,0.1,0.2,0.1,0.3c0,0.1,0,0.1,0,0.2c0,0.1,0,0.2,0,0.3c0,0,0,0.1,0,0.1h0v1.2l1,16.4l30.7,17.7l15.4,8.9c0,0,0,0,0,0
		c0.7,0.4,1.3,0.8,1.9,1.2c0.2,0.1,0.4,0.3,0.5,0.4c0.4,0.3,0.8,0.6,1.1,0.9c0.2,0.2,0.4,0.3,0.5,0.5c0.3,0.3,0.6,0.5,0.9,0.8
		c0.2,0.2,0.3,0.3,0.5,0.5c0.2,0.3,0.5,0.6,0.7,0.8c0.1,0.2,0.3,0.3,0.4,0.5c0.2,0.3,0.4,0.6,0.6,0.9c0.1,0.2,0.2,0.3,0.3,0.5
		c0.2,0.3,0.3,0.6,0.4,0.9c0.1,0.2,0.1,0.3,0.2,0.5c0.1,0.3,0.2,0.6,0.3,1c0,0.2,0.1,0.3,0.1,0.5c0.1,0.3,0.1,0.7,0.1,1
		c0,0.1,0,0.2,0,0.3h0v5.7h0c0.2,3.4-1.8,6.6-5.9,9l-7.7,4.5l-8.2,4.7L408.8,373c-8.8,5.1-24.2,4.4-34.3-1.4L315,337.2
		C309.1,333.8,306.2,330.4,306.6,326.3z"/>
</g>
<g id="cone_1_">
	<path class="st16" d="M222.4,343.5v-2.2h0c0-0.7,0.5-1.4,1.4-1.9l15.1-8.7c2-1.2,5.6-1,7.9,0.3l13.8,8c1.3,0.7,1.9,1.7,1.9,2.6h0
		v2.3h0c0,0.7-0.5,1.4-1.4,1.9l-15.1,8.7c-2,1.2-5.6,1-7.9-0.3l-13.8-8C223,345.4,222.4,344.5,222.4,343.5L222.4,343.5L222.4,343.5
		L222.4,343.5z"/>
	<path class="st16" d="M228.3,346.3l9.8,5.7c2.3,1.4,5.9,1.5,7.9,0.3l15.1-8.7c2-1.2,1.8-3.2-0.6-4.6l-13.8-8
		c-2.3-1.4-5.9-1.5-7.9-0.3l-15.1,8.7c-1.9,1.1-1.8,2.9,0,4.2"/>
	<path class="st16" d="M236.9,315.1l1-2.8l0,0c0.1-0.6,0.6-1.1,1.3-1.5c1.8-1,4.7-1.1,6.5,0c0.7,0.4,1.1,0.9,1.3,1.4l9.1,26h0
		c0.9,2.5-0.4,5.3-3.8,7.3c-5.4,3.1-14.2,3.2-19.6,0c-3.4-2-4.7-4.7-3.7-7.3l7.1-20.5"/>
	<ellipse transform="matrix(1 -5.422033e-03 5.422033e-03 1 -1.6931 1.319)" class="st1" cx="242.4" cy="312.9" rx="4.5" ry="2.6"/>
	<path class="st1" d="M245.3,334.7c1.6-0.3,3.2-0.8,4.5-1.5c1.5-0.9,2.5-1.9,2.9-3.1c0.1-0.3,0.2-0.7,0.2-1l0.6,1.7l1.5,4.4
		c-0.3,1.6-1.5,3.1-3.6,4.3c-4.9,2.9-12.9,2.9-17.8,0c-2.1-1.2-3.3-2.7-3.6-4.3l1.5-4.4l0.6-1.7c0,0.3,0.1,0.7,0.2,1
		c0.4,1.1,1.3,2.2,2.8,3c1.3,0.8,2.9,1.3,4.5,1.5"/>
	<path class="st0" d="M242,334.9c0.1,0,0.3,0,0.4,0"/>
	<path class="st1" d="M244.7,328.6c-2.9,0.5-6.2,0-8.5-1.3c-1.5-0.9-2.3-2-2.5-3.1l1-2.8l1-3c0.2,0.5,0.5,1,1.1,1.5
		c0.2,0.2,0.5,0.4,0.8,0.5c2.7,1.5,7,1.5,9.6,0c0.3-0.2,0.6-0.4,0.8-0.6c0.5-0.5,0.9-1,1.1-1.5l1,3l1,2.8c-0.2,1.1-1,2.3-2.5,3.1
		c-0.2,0.1-0.4,0.2-0.6,0.3"/>
</g>
<g id="cone_2_">
	<path class="st16" d="M30.5,232.3v-2.2h0c0-0.7,0.5-1.4,1.4-1.9l15.1-8.7c2-1.2,5.6-1,7.9,0.3l13.8,8c1.3,0.7,1.9,1.7,1.9,2.6h0
		v2.3h0c0,0.7-0.5,1.4-1.4,1.9l-15.1,8.7c-2,1.2-5.6,1-7.9-0.3l-13.8-8C31.2,234.2,30.5,233.2,30.5,232.3L30.5,232.3L30.5,232.3
		L30.5,232.3z"/>
	<path class="st16" d="M36.5,235l9.8,5.7c2.3,1.4,5.9,1.5,7.9,0.3l15.1-8.7c2-1.2,1.8-3.2-0.6-4.6l-13.8-8c-2.3-1.4-5.9-1.5-7.9-0.3
		l-15.1,8.7c-1.9,1.1-1.8,2.9,0,4.2"/>
	<path class="st16" d="M45,203.9l1-2.8l0,0c0.1-0.6,0.6-1.1,1.3-1.5c1.8-1,4.7-1.1,6.5,0c0.7,0.4,1.1,0.9,1.3,1.4l9.1,26h0
		c0.9,2.5-0.4,5.3-3.8,7.3c-5.4,3.1-14.2,3.2-19.6,0c-3.4-2-4.7-4.7-3.7-7.3l7.1-20.5"/>
	<ellipse transform="matrix(1 -5.422033e-03 5.422033e-03 1 -1.0926 0.2771)" class="st1" cx="50.6" cy="201.6" rx="4.5" ry="2.6"/>
	<path class="st1" d="M53.4,223.4c1.6-0.3,3.2-0.8,4.5-1.5c1.5-0.9,2.5-1.9,2.9-3.1c0.1-0.3,0.2-0.7,0.2-1l0.6,1.7l1.5,4.4
		c-0.3,1.6-1.5,3.1-3.6,4.3c-4.9,2.9-12.9,2.9-17.8,0c-2.1-1.2-3.3-2.7-3.6-4.3l1.5-4.4l0.6-1.7c0,0.3,0.1,0.7,0.2,1
		c0.4,1.1,1.3,2.2,2.8,3c1.3,0.8,2.9,1.3,4.5,1.5"/>
	<path class="st0" d="M50.1,223.6c0.1,0,0.3,0,0.4,0"/>
	<path class="st1" d="M56.2,216.4c0.2-0.1,0.4-0.2,0.6-0.3c1.5-0.9,2.4-2,2.5-3.1l-1-2.8l-1-3c-0.2,0.5-0.5,1-1.1,1.5
		c-0.2,0.2-0.5,0.4-0.8,0.6c-2.7,1.5-7,1.5-9.6,0c-0.3-0.2-0.6-0.3-0.8-0.5c-0.5-0.5-0.9-1-1.1-1.5l-1,3l-1,2.8
		c0.2,1.1,1,2.2,2.5,3.1c2.3,1.3,5.6,1.8,8.5,1.3"/>
</g>
<g>
	<g>
		<path class="st15" d="M402.6,360.1l20.6-11.9c2.8-1.6,2.4-4.4-0.8-6.3L403.6,331c-3.2-1.9-8.1-2.1-10.9-0.5l-20.6,11.9
			c-2.8,1.6-2.4,4.4,0.8,6.3l18.9,10.9C395,361.5,399.8,361.7,402.6,360.1z"/>
	</g>
</g>
<g>
	<g>
		<path class="st15" d="M438.1,340.4l20.6-11.9c2.8-1.6,2.4-4.4-0.8-6.3l-18.9-10.9c-3.2-1.9-8.1-2.1-10.9-0.5l-20.6,11.9
			c-2.8,1.6-2.4,4.4,0.8,6.3l18.9,10.9C430.4,341.8,435.3,342,438.1,340.4z"/>
	</g>
</g>
<g>
	<g>
		<g>
			<path class="st17" d="M377.4,186.1c0-11,7.8-24.4,17.3-29.9c4.9-2.8,9.3-3,12.4-1.2l0,0l10.2,5.6l0,0c3.2,1.8,5.2,5.6,5.2,11.2
				c0,11-7.8,24.4-17.3,29.9c-4.9,2.8-9.3,3-12.4,1.2l-10.3-5.6c0,0,0,0,0,0l-0.1,0l0,0C379.4,195.4,377.4,191.5,377.4,186.1z"/>
			
				<ellipse transform="matrix(0.5049 -0.8632 0.8632 0.5049 43.6993 439.8001)" class="st17" cx="405.2" cy="181.8" rx="24.5" ry="14.1"/>
			
				<ellipse transform="matrix(0.5049 -0.8632 0.8632 0.5049 43.6993 439.8001)" class="st17" cx="405.2" cy="181.8" rx="17.1" ry="9.9"/>
			
				<ellipse transform="matrix(0.4841 -0.875 0.875 0.4841 50.0642 446.2218)" class="st17" cx="403.5" cy="180.7" rx="14.3" ry="7.5"/>
			<path class="st18" d="M399.8,182.5c-0.1-1.9,1.2-4.6,2.9-6c1-0.8,2-1,2.6-0.6l0,0l2.3,1.5l0,0c0.4,0.3,0.7,0.8,0.8,1.6
				c0.1,1.9-1.2,4.6-2.9,6c-1,0.8-2,1-2.6,0.5l0,0l-2.3-1.5l0,0C400.1,183.8,399.9,183.3,399.8,182.5z"/>
			
				<ellipse transform="matrix(0.4841 -0.875 0.875 0.4841 50.1999 448.1892)" class="st18" cx="405.2" cy="181.5" rx="4.7" ry="2.5"/>
		</g>
		<g>
			<path class="st17" d="M301.3,229.5c0-11,7.8-24.4,17.3-29.9c4.9-2.8,9.3-3,12.4-1.2l0,0l10.2,5.6l0,0c3.2,1.8,5.2,5.6,5.2,11.2
				c0,11-7.8,24.4-17.3,29.9c-4.9,2.8-9.3,3-12.4,1.2l-10.3-5.6c0,0,0,0,0,0l-0.1,0l0,0C303.3,238.8,301.3,235,301.3,229.5z"/>
			
				<ellipse transform="matrix(0.5049 -0.8632 0.8632 0.5049 -31.4993 395.6398)" class="st17" cx="329.1" cy="225.3" rx="24.5" ry="14.1"/>
			
				<ellipse transform="matrix(0.5049 -0.8632 0.8632 0.5049 -31.4993 395.6398)" class="st17" cx="329.1" cy="225.3" rx="17.1" ry="9.9"/>
			
				<ellipse transform="matrix(0.4841 -0.875 0.875 0.4841 -27.2236 402.065)" class="st17" cx="327.4" cy="224.1" rx="14.3" ry="7.5"/>
			<path class="st18" d="M323.7,226c-0.1-1.9,1.2-4.6,2.9-6c1-0.8,2-1,2.6-0.6l0,0l2.3,1.5l0,0c0.4,0.3,0.7,0.8,0.8,1.6
				c0.1,1.9-1.2,4.6-2.9,6c-1,0.8-2,1-2.6,0.5l0,0l-2.3-1.5l0,0C324,227.2,323.8,226.7,323.7,226z"/>
			
				<ellipse transform="matrix(0.4841 -0.875 0.875 0.4841 -27.0879 404.0324)" class="st18" cx="329.1" cy="225" rx="4.7" ry="2.5"/>
		</g>
		<path class="st18" d="M238,175.2l14.7-8.4l45.1,39.5l-6.4,43.7l-60.1-34.7l-0.3-28.4C231.1,182,233.8,177.6,238,175.2z"/>
		<path class="st18" d="M433.6,143.2v24.6l-5.9,3.1l-4,2.3c0.1-0.9,0.1-1.7,0.1-2.6c0-13-9.1-18.2-20.4-11.7
			c-11.3,6.5-20.4,22.3-20.4,35.3c0,0.9,0,1.7,0.1,2.5l-16.4,9.8l-18.8,10.9c0.1-1.2,0.2-2.4,0.2-3.6c0-13.1-9.3-18.4-20.7-11.8
			c-11.4,6.6-20.7,22.6-20.7,35.8c0,1.2,0.1,2.3,0.2,3.4l-15.5,9V222c0-4.8,2.7-9.9,5.9-13.5l9.4-64.8l126.1-69.2l1.3,6.3"/>
		<path class="st18" d="M238.3,174.6l6.7-55.5c0.7-5.7,4.2-10.6,9.4-13l109.5-59.9c1.7-0.8,3.7-0.8,5.4,0l63.3,28.1l-115.2,65.4
			c-6.3,3.5-10.5,9.9-11.3,17l-8.8,51.7L238.3,174.6z"/>
		<path class="st17" d="M244,160.5l3.8-34.9c0.3-2.5,3-3.8,5.2-2.6l46.9,25.2c1.2,0.7,1.9,2,1.7,3.4l-6,34.6c-0.3,2.5-3,3.8-5.2,2.6
			l-44.7-25C244.5,163.2,243.9,161.8,244,160.5z"/>
		<path class="st17" d="M329.8,171.1l-19.2,11.1c-1.1,0.7-2.5-0.3-2.4-1.6l1.6-18.7c0.8-7.3,5-13.8,11.4-17.5l26.2-15.2
			c2-1.2,4.6,0.3,4.6,2.6v26.4l-14.3,8.2"/>
		<path class="st17" d="M388.6,137.5l-21,12.1c-1.2,0.7-2.8-0.3-2.6-1.7l-0.4-21.7c0-1.9-0.7-5.5,4.2-8.4l39.1-21.6
			c2.2-1.3,5,0.3,5,2.9v24.4l-15.6,9"/>
		<line class="st19" x1="352.7" y1="165" x2="342.7" y2="170.4"/>
		<g>
			<path class="st20" d="M277.9,114.7l97.3-52.1c3.4-1.9,9.9-7.8,9.9-7.8l16.4,7.4l-10.7,5c0,0,3.3,9.9-4.6,15.6l-80.9,44.7
				c-8.3,4.3-33.3,3.1-27.6-12.3L277.9,114.7z"/>
		</g>
		<g>
			<g>
				<path class="st1" d="M203.4,241.6l31-17.7c1.4-0.8,2.5-2.7,2.5-4.3v-83.3c0-2,1.4-4.5,3.2-5.6v0c0.8-0.4,1.4-0.5,2-0.4l0,0l0,0
					c0.1,0.1,0.3,0.1,0.4,0.2l4.9,2.6c0.7,0.3,1.2,1,1.2,2.2v85c0,3.1-2.2,6.8-4.8,8.4l-38.5,22L200,248L203.4,241.6z"/>
				<path class="st0" d="M208.7,244.5l31-17.7c1.4-0.8,2.5-2.7,2.5-4.3v-83.3c0-2,1.4-4.5,3.2-5.6l0,0c1.8-1,3.2-0.2,3.2,1.8v85
					c0,3.1-2.2,6.8-4.8,8.4l-38.5,22L208.7,244.5z"/>
				<line class="st1" x1="208.7" y1="244.5" x2="203.4" y2="241.6"/>
			</g>
			<path class="st0" d="M248.2,213.6l11-6.3c0.5-0.3,0.3-1-0.4-1.6l-0.5-0.4c-0.7-0.6-1.8-0.8-2.3-0.5l-11,6.3L248.2,213.6z"/>
			<polygon class="st0" points="265.1,204.5 265.7,191.7 249.1,181.9 243.8,185.5 243.8,191.9 			"/>
			<line class="st1" x1="263.9" y1="197.2" x2="244.1" y2="185.6"/>
			<polygon class="st0" points="265.2,226.5 265.2,220.7 265.1,215.7 248.5,207.9 243.8,208.9 243.8,215.4 			"/>
			<line class="st1" x1="264.3" y1="218.6" x2="244.1" y2="209"/>
			<g>
				<path class="st1" d="M229.6,258.4l31-17.7c1.4-0.8,2.5-2.7,2.5-4.3v-83.3c0-2,1.4-4.5,3.2-5.6v0c0.8-0.4,1.4-0.5,2-0.4l0,0l0,0
					c0.1,0.1,0.3,0.1,0.4,0.2l4.9,2.6c0.7,0.3,1.2,1,1.2,2.2v85c0,3.1-2.2,6.8-4.8,8.4l-38.5,22l-5.3-2.9L229.6,258.4z"/>
				<path class="st1" d="M268.3,205.9V156c0-2,1.4-4.5,3.2-5.6l0,0c1.8-1,3.2-0.2,3.2,1.8v85c0,3.1-2.2,6.8-4.8,8.4l-38.5,22
					l3.4-6.3l31-17.7c1.4-0.8,2.5-2.7,2.5-4.3v-17.9"/>
				<line class="st1" x1="268.3" y1="210.7" x2="268.3" y2="209.7"/>
				<line class="st1" x1="234.9" y1="261.3" x2="229.6" y2="258.4"/>
			</g>
		</g>
		<path class="st18" d="M387.2,163.1l38.8-23.4c1.9-1.1,1.7-3-0.5-4.3l-10-5.8L369.8,157l10,5.8C382,164,385.3,164.2,387.2,163.1z"
			/>
		<line class="st18" x1="418.6" y1="136.4" x2="383.6" y2="157.4"/>
		<line class="st18" x1="381.7" y1="140.2" x2="381" y2="111.4"/>
		
			<ellipse transform="matrix(0.9972 -7.416457e-02 7.416457e-02 0.9972 -16.343 21.6047)" class="st18" cx="282.7" cy="230.9" rx="4.1" ry="7.1"/>
		<polyline class="st18" points="428.2,94 413.8,85.6 356.5,117.6 373.6,127.7 		"/>
		<polygon class="st20" points="418,100.6 406.5,107.4 391.2,98.6 403.3,91.6 		"/>
		<polygon class="st20" points="396,113.3 384.5,120.1 369.1,111.5 381.1,104.4 		"/>
		<g>
			<polygon class="st21" points="427.1,102.7 374.9,134 374.8,137.9 379.8,136.9 394.8,128.2 423.8,110.7 			"/>
			<polyline class="st18" points="429,103.3 429,94.6 373.8,126.7 373.8,135.9 			"/>
			<path class="st18" d="M421.2,112.4c0.8,0.7,1.8,1.2,2.8,1.2c2.8,0,5-3.1,5-6.9v-6.9"/>
			<path class="st18" d="M413.2,117c0.8,0.7,1.8,1.2,2.8,1.2c2.8,0,5-3.1,5-6.9"/>
			<path class="st18" d="M405.6,121.1c0.8,0.7,1.8,1.2,2.8,1.2c2.8,0,5-3.1,5-6.9"/>
			<path class="st18" d="M397.8,125.3c0.8,0.7,1.8,1.2,2.8,1.2c2.8,0,5-3.1,5-6.9"/>
			<path class="st18" d="M389.9,130.4c0.8,0.7,1.8,1.2,2.8,1.2c2.8,0,5-3.1,5-6.9"/>
			<path class="st18" d="M382.1,135c0.8,0.7,1.8,1.2,2.8,1.2c2.8,0,5-3.1,5-6.9"/>
			<path class="st18" d="M373.9,136.1c0,2.1,1,2.9,1,2.9c0,0-0.2,0-0.2,0c0.8,0.7,1.7,1.1,2.8,1.1c2.8,0,5-3.1,5-6.9"/>
		</g>
		<line class="st17" x1="303.3" y1="140.5" x2="256.4" y2="115.5"/>
		<line class="st17" x1="418.2" y1="100.3" x2="403.2" y2="91.9"/>
		<line class="st17" x1="406.4" y1="106.9" x2="391.3" y2="98.5"/>
		<line class="st17" x1="395.9" y1="113.1" x2="380.8" y2="104.7"/>
		<line class="st17" x1="384" y1="119.7" x2="369" y2="111.3"/>
		<g>
			<path class="st22" d="M370.8,58.2L399.5,42c0.7-0.4,1.2-0.6,1.3-1.8V28.4c0-1.2-0.6-1.5-1.3-1.9l-1.7-0.7c0,0-0.5-0.2-0.8,0
				s-27.1,14.7-27.1,14.7"/>
			<g>
				<path class="st17" d="M303.2,118.7c-15.4,7.4-30-3.9-31.1-23.3c-1.8-30.8,12.2-39.6,27-47.8l21.7-12.2"/>
			</g>
			<path class="st17" d="M303.7,118.5l75.2-43.1c2.9-1.7,5.2-2.6,5.2-7.5V18.8c0-4.8-2.7-6.4-5.6-7.7l-7.2-2.8c0,0-2-0.8-3.3-0.1
				c-1.3,0.7-74.5,42.6-74.5,42.6"/>
			<g>
				<defs>
					<path id="SVGID_1_" d="M303.7,118.5l75.2-44.3c2.9-1.7,4.2-2.2,4.2-7.1l0.4-47c0-4.8-2-7.7-5-9l-7.2-2.8c0,0-2-0.8-3.3-0.1
						c-1.3,0.7-74.5,42.6-74.5,42.6"/>
				</defs>
				<clipPath id="SVGID_2_">
					<use xlink:href="#SVGID_1_"  style="overflow:visible;"/>
				</clipPath>
				<path class="st23" d="M378.9,75.4l-44.8-32.2l-13.2-7.9l48.6-27.4l15.3,6.5l-0.7,56.3C384.1,70.6,383.8,74.7,378.9,75.4z"/>
			</g>
			<g>
				<defs>
					<path id="SVGID_3_" d="M320.8,35.4l-21.7,12.2c-14.9,8.2-28.9,17-27,47.8c1.2,19.5,15.8,30.7,31.1,23.3l33.6-19.2l-33.5-25.3"
						/>
				</defs>
				<clipPath id="SVGID_4_">
					<use xlink:href="#SVGID_3_"  style="overflow:visible;"/>
				</clipPath>
				<path class="st24" d="M335.6,99.5l-32.3,18c0,0-15.8,9.3-26.2-7.8c-10.4-17-5.6-47.1,16.9-58.4l2.4,2.8L335.6,99.5z"/>
			</g>
			<g>
				<defs>
					<path id="SVGID_5_" d="M304.6,117.5l74-43.1c1.9-0.7,5.4-1.6,5.5-6.5V18.8c0-4.8-2.7-6.4-5.6-7.7l-7.2-2.8c0,0-2-0.8-3.3-0.1
						c-1.3,0.7-86.2,50.3-86.2,50.3l21.4,15.8"/>
				</defs>
				<clipPath id="SVGID_6_">
					<use xlink:href="#SVGID_5_"  style="overflow:visible;"/>
				</clipPath>
				<path class="st25" d="M378.9,75.4L336,44.5c-0.7-0.5-1.4-1.1-2.1-1.7c-0.5-0.5-11.2-7.9-11.2-7.9l-33.1,17l-9.9,9
					c0,0,8.2,0.6,11.6,5.9c2.6,3.9,8.8,4.6,12,7.4c7.4,6.6,33.5,25.3,33.5,25.3L378.9,75.4z"/>
			</g>
			<line class="st26" x1="379.1" y1="17.3" x2="318.5" y2="52"/>
			<line class="st17" x1="400.3" y1="27.7" x2="390.6" y2="33"/>
		</g>
		<path class="st17" d="M313.1,191L313.1,191c3.5,0.9,6.4-1.6,6.3-5.4l-0.1-11.7c0-3.9-2.9-7.7-6.4-8.6l0,0
			c-3.5-0.9-6.4,1.6-6.3,5.4l0.1,11.7C306.7,186.3,309.6,190.1,313.1,191z"/>
		<path class="st17" d="M311.4,185L311.4,185c1.6,0.4,2.9-0.7,2.8-2.5l-0.1-5.3c0-1.8-1.4-3.5-3-3.9l0,0c-1.6-0.4-2.9,0.7-2.8,2.5
			l0.1,5.3C308.5,182.9,309.8,184.6,311.4,185z"/>
		<path class="st26" d="M282.9,104.6c0,8.9,6.4,16.1,14.2,16.1"/>
		<line class="st18" x1="419.4" y1="101.5" x2="419.4" y2="105.2"/>
		<line class="st18" x1="407" y1="107.9" x2="407" y2="111.6"/>
		<line class="st18" x1="384.7" y1="120.7" x2="384.7" y2="124.4"/>
		<line class="st18" x1="395.9" y1="114.7" x2="395.9" y2="118.4"/>
	</g>
	<path class="st12" d="M231,211.8l-23.1,13.9c0,0-3.1,1.8-3.1,5.8c0,4,0,8.8,0,8.8l-2,0.9L200,248l5.3,2.8l6.7-3.8l17.6,10.2
		l-4.2,7.6l5.6,3.5l39.4-21.9c0,0,3.4-1.6,4.5-5l16.6,9.2l15.5-8.6l9.3,5.1c0,0,4.4,3.6,13.9-1.2c9.5-4.8,17.4-20.8,17.1-27.9
		l35.4-19.9l8.8,4.9c0,0,4.1,3.7,10.7,1.1c6.7-2.6,18.8-11.9,21.4-30.2l10.6-5.3l-0.4-93.9l-48.3-21.4v-2.2l15-8.7
		c1-0.6,1.5-1.6,1.5-2.7l-0.1-11.9c0-0.7-0.4-1.3-1-1.6l-2.9-1.4c-0.7-0.3-1.5-0.3-2.2,0.1L385,30.8V18.2c0-3.3-2-6.3-5.1-7.5
		l-8.6-3.5c-0.9-0.4-2-0.3-2.9,0.2l-75.8,43.2c-13,7.4-20.9,21.2-20.8,36.1l0.1,9.1l-16.5,9.1c-6.9,3.8-11.4,10.7-12,18.5l-0.5,6.5
		l-0.5,0.1c-3.5,0.6-6,3.6-6,7.2l-0.2,38.4l0,0c-3.3,3.6-5.7,7.9-5.6,12.8L231,211.8z"/>
	<line class="st12" x1="347.6" y1="53.2" x2="340.7" y2="48.3"/>
	<line class="st12" x1="360" y1="62" x2="352.3" y2="56.5"/>
	<line class="st12" x1="378.9" y1="75.4" x2="360" y2="62"/>
	<line class="st12" x1="336.9" y1="99.5" x2="303.3" y2="74.2"/>
	<path class="st26" d="M297.8,62l-1,0.7c-5.7,3.8-9.7,9.8-11,16.6l0,0"/>
	<g>
		<g>
			<path class="st7" d="M268.3,229.6c0.1-1.3-0.6-2.5-2.2-3.4l-23.9-13.8c-3.2-1.9-8.9-1.6-12.6,0.5l-21.8,12.6
				c-2,1.2-3.1,2.7-3.1,4.1h0v10.5h0c-0.1,1.2,0.7,2.4,2.2,3.3l23.9,13.8c3.2,1.9,8.9,1.6,12.6-0.5l21.8-12.6
				c2.2-1.3,3.2-2.9,3.1-4.4V229.6z"/>
			<path class="st9" d="M250,242.2l-6.5,3.8c-3.7,2.2-9.4,2.4-12.6,0.5L207,232.8c-3.2-1.9-2.8-5.1,0.9-7.3l21.8-12.6
				c3.7-2.2,9.4-2.4,12.6-0.5l23.9,13.8c3.2,1.9,2.8,5.1-0.9,7.3l-10.9,6.3"/>
		</g>
	</g>
</g>
</svg>
