<?xml version="1.0" encoding="utf-8"?>
<!-- Generator: Adobe Illustrator 23.0.3, SVG Export Plug-In . SVG Version: 6.00 Build 0)  -->
<svg version="1.1" id="Layer_1" xmlns="http://www.w3.org/2000/svg" xmlns:xlink="http://www.w3.org/1999/xlink" x="0px" y="0px"
	 viewBox="0 0 640 640" style="enable-background:new 0 0 640 640;" xml:space="preserve">
<style type="text/css">
	.st0{fill:#FFFFFF;stroke:#183D54;stroke-width:1.9601;stroke-linecap:round;stroke-linejoin:round;stroke-miterlimit:10;}
	.st1{opacity:0.25;fill:#99B4CC;}
	.st2{fill:none;stroke:#183D54;stroke-width:1.1816;stroke-linecap:round;stroke-linejoin:round;stroke-miterlimit:10;}
	.st3{fill:none;stroke:#183D54;stroke-width:1.9601;stroke-linecap:round;stroke-linejoin:round;stroke-miterlimit:10;}
	.st4{fill:#DCE7F2;stroke:#183D54;stroke-width:1.9601;stroke-linecap:round;stroke-linejoin:round;stroke-miterlimit:10;}
	.st5{fill:#DCE7F2;stroke:#183D54;stroke-width:2.2294;stroke-linecap:round;stroke-linejoin:round;stroke-miterlimit:10;}
	.st6{fill:#FFFFFF;stroke:#183D54;stroke-width:2.2294;stroke-linecap:round;stroke-linejoin:round;stroke-miterlimit:10;}
	.st7{fill:#F3807B;stroke:#173D54;stroke-width:1.8101;stroke-linecap:round;stroke-linejoin:round;stroke-miterlimit:10;}
	.st8{fill:#FFA4A4;stroke:#183D54;stroke-width:1.8101;stroke-linecap:round;stroke-linejoin:round;stroke-miterlimit:10;}
	.st9{fill:none;stroke:#183D54;stroke-width:1.8101;stroke-linecap:round;stroke-linejoin:round;stroke-miterlimit:10;}
	.st10{fill:#183D54;}
	.st11{fill:#FFCD3C;stroke:#173D54;stroke-width:1.8101;stroke-linecap:round;stroke-linejoin:round;stroke-miterlimit:10;}
	.st12{fill:#FFDC85;stroke:#183D54;stroke-width:1.8101;stroke-linecap:round;stroke-linejoin:round;stroke-miterlimit:10;}
	.st13{fill:#35D0BA;stroke:#173D54;stroke-width:1.8101;stroke-linecap:round;stroke-linejoin:round;stroke-miterlimit:10;}
	.st14{fill:#63FCE2;stroke:#183D54;stroke-width:1.8101;stroke-linecap:round;stroke-linejoin:round;stroke-miterlimit:10;}
	.st15{fill:#D8AE64;stroke:#173D54;stroke-width:1.8101;stroke-linecap:round;stroke-linejoin:round;stroke-miterlimit:10;}
	.st16{fill:#F9CD87;stroke:#173D54;stroke-width:1.8101;stroke-linecap:round;stroke-linejoin:round;stroke-miterlimit:10;}
	.st17{fill:#35D0BA;}
	.st18{fill:#FFCD3C;}
	.st19{fill:#F3807B;}
	.st20{fill:#DCE7F2;stroke:#183D54;stroke-width:2.1878;stroke-linecap:round;stroke-linejoin:round;stroke-miterlimit:10;}
	.st21{fill:none;stroke:#183D54;stroke-width:2.1878;stroke-linecap:round;stroke-linejoin:round;stroke-miterlimit:10;}
	.st22{fill:#FFFFFF;stroke:#183D54;stroke-width:2.1878;stroke-linecap:round;stroke-linejoin:round;stroke-miterlimit:10;}
	.st23{fill:none;stroke:#FFFFFF;stroke-width:2.1878;stroke-linecap:round;stroke-linejoin:round;stroke-miterlimit:10;}
	.st24{display:none;}
	.st25{display:inline;}
	
		.st26{display:inline;fill:#DCE7F2;stroke:#183D54;stroke-width:1.9601;stroke-linecap:round;stroke-linejoin:round;stroke-miterlimit:10;}
	
		.st27{display:inline;fill:#FFFFFF;stroke:#183D54;stroke-width:1.9601;stroke-linecap:round;stroke-linejoin:round;stroke-miterlimit:10;}
	
		.st28{display:inline;fill:none;stroke:#183D54;stroke-width:1.9601;stroke-linecap:round;stroke-linejoin:round;stroke-miterlimit:10;}
	.st29{fill:none;stroke:#FFFFFF;stroke-width:1.9601;stroke-linecap:round;stroke-linejoin:round;stroke-miterlimit:10;}
	.st30{fill:#FFFFFF;}
	.st31{opacity:0.75;fill:#35D0BA;}
	.st32{opacity:0.5;fill:#FFCD3C;}
	.st33{fill:#FFB5B5;}
	.st34{opacity:0.5;fill:#F7D186;}
</style>
<g>
	<g id="cloud_2_">
		<path class="st0" d="M110.7,569.2c-26.9-38.4-17.5-91.3,20.9-118.2c2.1-1.5,4.3-2.8,6.5-4.1c4.6-29.8,20.8-57.8,47.5-76.4
			c39.5-27.6,90.4-26.8,128.4-1.8c0.9-0.7,1.9-1.4,2.8-2.1c39.7-27.7,94.3-18,122,21.6c3.4,4.8,6.2,9.9,8.5,15.1
			c17.6-6.3,37.8-0.4,49,15.7c2.1,3,3.8,6.2,5,9.5c23.8-9.7,52-2.1,67.3,19.9c17.8,25.5,11.6,60.6-13.9,78.4
			c-17,11.9-38.3,13.1-55.9,5c-2.6,3.5-5.8,6.6-9.6,9.3c-10.3,7.2-22.6,9.2-33.9,6.6c-6.2,11-15,20.8-26,28.5
			c-18.3,12.8-39.8,17.6-60.3,15.2c-7,9.2-15.6,17.6-25.6,24.6c-45.9,32.1-107.2,25.8-145.7-12.2C165.6,610.5,130.8,598,110.7,569.2
			z"/>
		<path class="st1" d="M119.5,563.1c18.7,26.7,51,38.3,81.8,32.4c1.4-0.3,2.9,0.1,4,1.1c36.9,34.4,95.1,39.1,139.3,8.2
			c9.1-6.4,17-13.8,23.6-22c0.9-1.2,2.4-1.8,3.9-1.7c19.2,1.4,39.1-3.6,56.2-15.6c9.9-6.9,17.9-15.5,24-25.1c1-1.5,2.7-2.4,4.5-2.1
			c10.1,1.4,20.9-0.9,30-7.2c2.8-2,5.3-4.2,7.4-6.6c1.2-1.4,3.2-1.9,4.9-1.3c16.4,6.2,35.6,4.3,51.3-6.6
			c14.6-10.2,22.9-26.1,23.8-42.3c0.2-3.5-3.5-6-6.6-4.4c-14.3,7.3-30.6,8-44.7,2.7c-1.7-0.7-3.7-0.1-4.9,1.3
			c-2.2,2.4-4.6,4.6-7.4,6.6c-9.1,6.4-19.9,8.7-30,7.2c-1.8-0.3-3.5,0.6-4.5,2.1c-6,9.6-14.1,18.1-24,25.1
			c-17.2,12-37.1,17-56.2,15.6c-1.5-0.1-3,0.5-3.9,1.7c-6.6,8.2-14.5,15.6-23.6,22c-44.2,30.9-102.3,26.3-139.3-8.2
			c-1.1-1-2.5-1.4-4-1.1c-30.7,5.9-63.1-5.7-81.8-32.4c-8.7-12.4-13.3-26.5-14.1-40.7c-0.2-4.3-5.7-5.7-8.2-2.2
			C101.2,497,99.5,534.5,119.5,563.1z"/>
		<path class="st2" d="M499.3,423.6c0.8,1.6,1.6,3.2,2.2,4.8c23.8-9.7,52-2.1,67.3,19.9c17.8,25.5,11.6,60.6-13.9,78.4
			c-17,11.9-38.3,13.1-55.9,5c-2.6,3.5-5.8,6.6-9.6,9.3c-10.3,7.2-22.6,9.2-33.9,6.6c-6.2,11-15,20.8-26,28.5
			c-18.3,12.8-39.8,17.6-60.3,15.2c-7,9.2-15.6,17.6-25.6,24.6c-45.9,32.1-107.2,25.8-145.7-12.2c-32.3,6.9-67.1-5.6-87.2-34.4
			c-26.9-38.4-17.5-91.3,20.9-118.2c2.1-1.5,4.3-2.8,6.5-4.1c4.6-29.8,20.8-57.8,47.5-76.4c39.5-27.6,90.4-26.8,128.4-1.8
			c0.9-0.7,1.9-1.4,2.8-2.1c8.5-5.9,17.7-10.2,27.2-12.7"/>
		<path class="st2" d="M355.8,351.5c0.8-0.1,1.6-0.2,2.3-0.3"/>
	</g>
	<g id="crane_7_">
		<g>
			<polygon class="st0" points="302.2,400.7 283.7,411.4 279.9,409.4 279.9,405.4 302.2,392.5 			"/>
			<line class="st3" x1="279.9" y1="409.4" x2="302.2" y2="396.5"/>
			<polygon class="st0" points="310,400.7 328.5,411.4 332.3,409.4 332.3,405.4 310,392.5 			"/>
			<line class="st3" x1="332.3" y1="409.4" x2="310" y2="396.5"/>
			<polyline class="st0" points="283.7,382.2 283.7,382.5 279.9,380.5 279.9,376.2 302.2,363.5 302.2,371.5 288.2,379.8 			"/>
			<line class="st3" x1="279.9" y1="380.5" x2="302.2" y2="367.5"/>
			<polygon class="st0" points="310,371.5 328.5,382.5 332.3,380.5 332.3,376.2 310,363.5 			"/>
			<line class="st3" x1="332.3" y1="380.5" x2="310" y2="367.5"/>
			<polygon class="st0" points="302.2,342.5 283.7,353.3 279.9,351.2 279.9,347.2 302.2,334.3 			"/>
			<line class="st3" x1="279.9" y1="351.2" x2="302.2" y2="338.3"/>
			<polygon class="st0" points="310,342.5 328.5,353.3 332.3,351.2 332.3,347.2 310,334.3 			"/>
			<line class="st3" x1="332.3" y1="351.2" x2="310" y2="338.3"/>
			<g>
				<g>
					<polygon class="st0" points="302.2,313.3 283.7,324 279.9,322 279.9,318 302.2,305.3 					"/>
				</g>
				<line class="st3" x1="279.9" y1="322" x2="302.2" y2="309.1"/>
				<g>
					<polygon class="st0" points="310,313.3 328.5,324 332.3,322 332.3,318 310,305.3 					"/>
				</g>
				<line class="st3" x1="332.3" y1="322" x2="310" y2="309.1"/>
			</g>
			<g>
				<g>
					<polygon class="st0" points="302.2,286.4 283.7,297.1 279.9,295.1 279.9,291 302.2,278.1 					"/>
				</g>
				<line class="st3" x1="279.9" y1="295.1" x2="302.2" y2="282.1"/>
				<g>
					<polygon class="st0" points="310,286.4 328.5,297.1 332.3,295.1 332.3,291 310,278.1 					"/>
				</g>
				<line class="st3" x1="332.3" y1="295.1" x2="310" y2="282.1"/>
			</g>
			<g>
				<g>
					<polygon class="st0" points="302.2,257.2 283.7,267.9 279.9,265.9 279.9,261.8 302.2,249.1 					"/>
				</g>
				<line class="st3" x1="279.9" y1="265.9" x2="302.2" y2="252.9"/>
				<g>
					<polygon class="st0" points="310,257.2 328.5,267.9 332.3,265.9 332.3,261.8 310,249.1 					"/>
				</g>
				<line class="st3" x1="332.3" y1="265.9" x2="310" y2="252.9"/>
			</g>
			<g>
				<g>
					<polygon class="st0" points="302.2,228 283.7,238.9 279.9,236.9 279.9,232.6 302.2,219.9 					"/>
				</g>
				<line class="st3" x1="279.9" y1="236.9" x2="302.2" y2="223.9"/>
				<g>
					<polyline class="st0" points="318,224.4 310,219.9 310,228 328.5,238.9 332.3,236.9 332.3,232.6 322.7,227.1 					"/>
				</g>
				<line class="st3" x1="332.3" y1="236.9" x2="310" y2="223.9"/>
			</g>
			<g>
				<g>
					<polygon class="st0" points="302.2,199.4 283.7,210.1 279.9,208.3 279.9,204.1 302.2,191.4 					"/>
				</g>
				<line class="st3" x1="279.9" y1="208.1" x2="302.2" y2="195.2"/>
				<g>
					<polygon class="st4" points="310,199.4 328.5,210.1 332.3,208.3 332.3,204.1 310,191.4 					"/>
				</g>
				<line class="st3" x1="332.3" y1="208.1" x2="310" y2="195.2"/>
			</g>
			<g>
				<polygon class="st0" points="306.2,195.4 310,193.2 310,451.3 306.2,453.8 				"/>
				<polygon class="st0" points="306.2,195.4 302.2,193.2 302.2,451.3 306.2,453.8 				"/>
			</g>
			<g>
				<polyline class="st0" points="336.3,411 336.3,437.5 332.3,438.9 332.3,184.5 336.3,182.3 336.3,403.9 				"/>
				<polyline class="st4" points="328.5,311.3 328.5,439.4 332.3,438.9 332.3,180.2 328.5,177.8 328.5,304.6 				"/>
			</g>
			<g>
				<polygon class="st5" points="279.9,179.8 283.7,177.6 283.7,436.2 279.9,438.6 				"/>
				<polyline class="st6" points="276.1,346.6 276.1,436.2 279.9,438.6 279.9,184.5 276.1,182 276.1,333.4 				"/>
				<line class="st3" x1="276.1" y1="338.1" x2="276.1" y2="338.8"/>
			</g>
			<g>
				<g>
					<polygon class="st0" points="310,422.1 328.5,411.4 332.3,413.2 332.3,417.5 310,430.2 					"/>
				</g>
				<g>
					<polygon class="st0" points="302.2,422.1 283.7,411.4 279.9,413.2 279.9,417.5 302.2,430.2 					"/>
				</g>
				<line class="st3" x1="279.9" y1="413.4" x2="302.2" y2="426.4"/>
				<line class="st3" x1="332.3" y1="413.4" x2="310" y2="426.4"/>
			</g>
			<g>
				<g>
					<polygon class="st0" points="302.2,392.9 283.7,382.2 279.9,384.2 279.9,388.3 302.2,401.2 					"/>
				</g>
				<line class="st3" x1="279.9" y1="384.2" x2="302.2" y2="397.2"/>
				<g>
					<polygon class="st0" points="310,392.9 328.5,382.2 332.3,384.2 332.3,388.3 310,401.2 					"/>
				</g>
				<line class="st3" x1="332.3" y1="384.2" x2="310" y2="397.2"/>
			</g>
			<g>
				<g>
					<polygon class="st0" points="302.2,364 283.7,353 279.9,355 279.9,359.3 302.2,372 					"/>
				</g>
				<line class="st3" x1="279.9" y1="355" x2="302.2" y2="368"/>
				<g>
					<polygon class="st0" points="310,364 328.5,353 332.3,355 332.3,359.3 310,372 					"/>
				</g>
				<line class="st3" x1="332.3" y1="355" x2="310" y2="368"/>
			</g>
			<g>
				<g>
					<polygon class="st0" points="302.2,334.7 283.7,324 279.9,326.1 279.9,330.1 302.2,343 					"/>
				</g>
				<line class="st3" x1="279.9" y1="326.1" x2="302.2" y2="339"/>
				<g>
					<polyline class="st0" points="320.9,328.5 328.5,324 332.3,326.1 332.3,330.1 310,343 310,334.7 317.6,330.3 					"/>
				</g>
				<line class="st3" x1="332.3" y1="326.1" x2="310" y2="339"/>
			</g>
			<g>
				<g>
					<polygon class="st0" points="302.2,307.8 283.7,296.8 279.9,298.9 279.9,303.1 302.2,315.8 					"/>
				</g>
				<line class="st3" x1="279.9" y1="298.9" x2="302.2" y2="311.8"/>
				<g>
					<polyline class="st0" points="328.5,297.1 328.5,296.8 332.3,298.9 332.3,303.1 310,315.8 310,307.8 319.6,302.2 					"/>
					<line class="st3" x1="323.4" y1="300" x2="323.8" y2="299.7"/>
				</g>
				<line class="st3" x1="332.3" y1="298.9" x2="310" y2="311.8"/>
			</g>
			<g>
				<g>
					<polygon class="st0" points="302.2,278.6 283.7,267.9 279.9,269.9 279.9,273.9 302.2,286.8 					"/>
				</g>
				<line class="st3" x1="279.9" y1="269.9" x2="302.2" y2="282.8"/>
				<g>
					<polygon class="st0" points="310,278.6 328.5,267.9 332.3,269.9 332.3,273.9 310,286.8 					"/>
				</g>
				<line class="st3" x1="332.3" y1="269.9" x2="310" y2="282.8"/>
			</g>
			<g>
				<g>
					<polygon class="st0" points="302.2,249.4 283.7,238.7 279.9,240.7 279.9,244.7 302.2,257.6 					"/>
				</g>
				<line class="st3" x1="279.9" y1="240.7" x2="302.2" y2="253.6"/>
				<g>
					<polyline class="st0" points="316.2,245.8 328.5,238.7 332.3,240.7 332.3,244.7 310,257.6 310,249.4 311.8,248.2 					"/>
				</g>
				<line class="st3" x1="332.3" y1="240.7" x2="310" y2="253.6"/>
			</g>
			<g>
				<g>
					<polygon class="st0" points="302.2,220.8 283.7,210.1 279.9,212.1 279.9,216.1 302.2,229.1 					"/>
				</g>
				<line class="st3" x1="279.9" y1="212.1" x2="302.2" y2="225.1"/>
				<g>
					<polygon class="st0" points="310,220.8 328.5,210.1 332.3,212.1 332.3,216.1 310,229.1 					"/>
				</g>
				<line class="st3" x1="332.3" y1="212.1" x2="310" y2="225.1"/>
			</g>
			<g>
				<line class="st3" x1="279.9" y1="180.7" x2="302.2" y2="167.8"/>
				<line class="st3" x1="332.3" y1="180.7" x2="310" y2="167.8"/>
				<g>
					<polygon class="st0" points="302.2,193.2 283.7,182.5 279.9,184.5 279.9,188.7 302.2,201.4 					"/>
				</g>
				<line class="st3" x1="279.9" y1="184.5" x2="302.2" y2="197.4"/>
				<g>
					<polygon class="st0" points="310,193.2 328.5,182.5 332.3,184.5 332.3,188.7 310,201.4 					"/>
				</g>
				<line class="st3" x1="332.3" y1="184.5" x2="310" y2="197.4"/>
			</g>
		</g>
		<polygon class="st4" points="390.1,203.1 390.1,208.4 352.6,230.1 314.9,208.2 314.9,203.1 352.6,181.2 		"/>
		<polygon class="st4" points="314.9,203.1 352.6,224.7 390.1,203.1 352.6,181.2 		"/>
		<g>
			<g>
				<g>
					<path class="st7" d="M468.6,395l-0.9-0.6c-1.4-0.8-2-1.9-2-2.9l0,0v-9.3l0,0c0-1.4,0.9-2.6,2.8-3.7l19.5-11.3
						c3.4-1.9,8.3-2.2,11.3-0.5l21.3,12.2c1.4,0.8,2,2,1.9,3.1v9c0,1.2-0.9,2.8-2.8,3.9l-19.5,11.3c-3.4,1.9-8.3,2.2-11.3,0.5
						l-16.4-9.4"/>
					<path class="st8" d="M508.9,391.6l10.7-6.2c3.2-1.9,3.7-4.8,0.8-6.5L499,366.7c-2.9-1.7-8-1.4-11.3,0.5l-19.5,11.3
						c-3.2,1.9-3.7,4.8-0.8,6.5l21.3,12.2c2.9,1.7,8,1.4,11.3-0.5l1.1-0.6"/>
					<line class="st9" x1="503.8" y1="394.5" x2="504.3" y2="394.2"/>
				</g>
			</g>
			<path class="st10" d="M493.9,347.4c-0.2,1.3-0.7,2.5-1.6,2.9l0,0l-1.6,0.9l0,0l0,0c-3.3,2-8.9-4-8.9-9.4c0-2,0.9-3.1,2-3.6
				c1.3-0.4,2-1.6,2-3.3V330l1.6,0.9v-1.8l2.5,1.3v5.6c0,2-0.9,3.3-1.8,3.8l-1.3,0.9h-0.2c-0.2,0-0.4,0.2-0.7,0.2
				c0,0.2-0.2,0.7-0.2,1.3c0,2.7,2.7,5.8,4.7,6c0-0.4,0.2-0.7,0.2-1.1c0-0.2,0-0.4,0.2-0.4l0,0l1.8-0.9l0,0l0,0l0,0
				c0.2-0.2,0.4-0.2,0.7,0C493.7,346.1,494.1,346.9,493.9,347.4z"/>
			<path class="st10" d="M492.3,348.3c-0.2,1.3-0.7,2.5-1.6,2.9c-3.3,2-8.9-4-8.9-9.4c0-2,0.9-3.1,2-3.6c1.3-0.4,2-1.6,2-3.3V330
				l2.5,1.3v5.4c0,2.5-0.9,3.8-2.7,4c-0.9,0-1.6,0.9-1.6,2.2c0,3.6,3.6,7.1,5.6,6c0.4-0.2,0.9-0.9,0.9-1.8c0-0.4,0.4-0.7,0.9-0.4
				l0,0C492.1,346.9,492.6,347.8,492.3,348.3z"/>
			<path class="st4" d="M495.5,322.2c-0.4-0.7-1.1-1.3-2.2-2c-3.3-1.8-8.5-1.8-11.8,0c-0.9,0.7-1.6,1.3-2,2c0,0.2-0.2,0.7-0.2,0.9v4
				c0,4.5,3.8,8.2,8.2,8.2c4.5,0,8.2-3.6,8.2-8.2v-3.8C495.5,322.9,495.5,322.6,495.5,322.2z"/>
			<path class="st0" d="M494.3,323.8c0.2-0.4,0.4-0.7,0.4-0.9c0.2-0.2,0.2-0.4,0.2-0.7s0-0.4,0-0.7c0-0.2,0-0.7-0.2-0.9
				c-0.2-0.7-0.9-1.3-2-2c-3.1-1.8-8.2-1.8-11.4,0c-0.9,0.4-1.6,1.1-2,1.8c0,0.4-0.2,0.7-0.2,0.9c0,0.4,0,0.9,0,1.3
				c0.2,0.2,0.2,0.2,0.2,0.4c0.4,0.7,1.1,1.6,2.2,2.2c1.6,0.9,3.8,1.3,5.8,1.3"/>
			<path class="st4" d="M489,270v49.7c0,0.9-0.7,1.6-1.6,1.6l0,0c-0.9,0-1.6-0.7-1.6-1.6V270c0-0.9,0.7-1.6,1.6-1.6l0,0
				C488.3,268.5,489,269.1,489,270z"/>
			<path class="st0" d="M490.3,326.4L490.3,326.4"/>
			<line class="st3" x1="488.1" y1="347.8" x2="474.1" y2="389.1"/>
			<line class="st3" x1="493.7" y1="349.8" x2="511.8" y2="372.8"/>
		</g>
		<g>
			<g>
				<g>
					<path class="st11" d="M192.1,365.4l-16.4,9.4c-2.9,1.7-7.9,1.4-11.3-0.5l-19.5-11.3c-1.9-1.1-2.8-2.6-2.8-3.9v-9
						c-0.2-1.1,0.5-2.3,1.9-3.1l21.3-12.2c2.9-1.7,7.9-1.4,11.3,0.5l19.5,11.3c1.9,1.1,2.8,2.3,2.8,3.7l0,0v9.3l0,0
						c0,1.1-0.6,2.2-2,2.9l-0.9,0.6"/>
					<path class="st12" d="M163.3,364.3l1.1,0.6c3.2,1.9,8.3,2.2,11.3,0.5l21.3-12.2c2.9-1.7,2.5-4.6-0.8-6.5l-19.5-11.3
						c-3.2-1.9-8.3-2.2-11.3-0.5l-21.3,12.2c-2.9,1.7-2.5,4.6,0.8,6.5l10.7,6.2"/>
					<line class="st9" x1="160.2" y1="362.5" x2="160.7" y2="362.8"/>
				</g>
			</g>
			<path class="st10" d="M171.3,314.1c0.2-0.2,0.4-0.2,0.7,0l0,0l0,0l0,0l1.8,0.9l0,0c0.2,0,0.2,0.2,0.2,0.4c0,0.4,0.2,0.7,0.2,1.1
				c2-0.2,4.7-3.3,4.7-6c0-0.7-0.2-1.1-0.2-1.3c-0.2,0-0.4-0.2-0.7-0.2h-0.2l-1.3-0.9c-0.9-0.4-1.8-1.8-1.8-3.8v-5.6l2.5-1.3v1.8
				l1.6-0.9v4.9c0,1.8,0.7,2.9,2,3.3c1.1,0.4,2,1.6,2,3.6c0,5.4-5.6,11.4-8.9,9.4l0,0l0,0l-1.6-0.9l0,0c-0.9-0.4-1.3-1.6-1.6-2.9
				C170.4,315.2,170.8,314.3,171.3,314.1z"/>
			<path class="st10" d="M173.1,315L173.1,315c0.4-0.2,0.9,0,0.9,0.4c0,0.9,0.4,1.6,0.9,1.8c2,1.1,5.6-2.5,5.6-6
				c0-1.3-0.7-2.2-1.6-2.2c-1.8-0.2-2.7-1.6-2.7-4v-5.4l2.5-1.3v4.9c0,1.8,0.7,2.9,2,3.3c1.1,0.4,2,1.6,2,3.6
				c0,5.4-5.6,11.4-8.9,9.4c-0.9-0.4-1.3-1.6-1.6-2.9C172,316.1,172.4,315.2,173.1,315z"/>
			<path class="st4" d="M168.8,291.5v3.8c0,4.7,3.8,8.2,8.2,8.2s8.2-3.8,8.2-8.2v-4c0-0.2-0.2-0.7-0.2-0.9c-0.4-0.7-1.1-1.3-2-2
				c-3.3-1.8-8.5-1.8-11.8,0c-1.1,0.7-1.8,1.3-2.2,2C169.1,290.9,169.1,291.1,168.8,291.5z"/>
			<path class="st0" d="M177.1,294.9c2,0,4.2-0.4,5.8-1.3c1.1-0.7,1.8-1.6,2.2-2.2c0-0.2,0-0.2,0.2-0.4c0-0.4,0-0.9,0-1.3
				c0-0.2-0.2-0.4-0.2-0.9c-0.4-0.7-1.1-1.3-2-1.8c-3.1-1.8-8.2-1.8-11.4,0c-1.1,0.7-1.8,1.3-2,2c-0.2,0.2-0.2,0.7-0.2,0.9
				s0,0.4,0,0.7s0,0.4,0.2,0.7c0,0.2,0.2,0.4,0.4,0.9"/>
			<path class="st4" d="M177.1,236.7L177.1,236.7c0.9,0,1.6,0.7,1.6,1.6V288c0,0.9-0.7,1.6-1.6,1.6l0,0c-0.9,0-1.6-0.7-1.6-1.6
				v-49.7C175.5,237.4,176.2,236.7,177.1,236.7z"/>
			<path class="st0" d="M174.2,294.7L174.2,294.7"/>
			<line class="st3" x1="190.4" y1="357.4" x2="176.4" y2="316.1"/>
			<line class="st3" x1="152.7" y1="341" x2="170.8" y2="318.1"/>
		</g>
		<g>
			<g>
				<g>
					<path class="st13" d="M433.1,194.1l-0.9-0.6c-1.4-0.8-2-1.9-2-2.9l0,0v-9.3l0,0c0-1.4,0.9-2.6,2.8-3.7l19.5-11.3
						c3.4-1.9,8.3-2.2,11.3-0.5l21.3,12.2c1.4,0.8,2,2,1.9,3.1v9c0,1.2-0.9,2.8-2.8,3.9l-19.5,11.3c-3.4,1.9-8.3,2.2-11.3,0.5
						l-16.4-9.4"/>
					<path class="st14" d="M468.4,193.6l0.5-0.3l4.6-2.6l10.7-6.2c3.2-1.9,3.7-4.8,0.8-6.5l-21.3-12.2c-2.9-1.7-8-1.4-11.3,0.5
						l-19.5,11.3c-3.2,1.9-3.7,4.8-0.8,6.5l21.3,12.2c2.9,1.7,8,1.4,11.3-0.5l1.1-0.6"/>
				</g>
			</g>
			<path class="st10" d="M458.4,146.5c-0.2,1.3-0.7,2.5-1.6,2.9l0,0l-1.6,0.9l0,0l0,0c-3.3,2-8.9-4-8.9-9.4c0-2,0.9-3.1,2-3.6
				c1.3-0.4,2-1.6,2-3.3v-4.9l1.6,0.9v-1.8l2.5,1.3v5.6c0,2-0.9,3.3-1.8,3.8l-1.3,0.9h-0.2c-0.2,0-0.4,0.2-0.7,0.2
				c0,0.2-0.2,0.7-0.2,1.3c0,2.7,2.7,5.8,4.7,6c0-0.4,0.2-0.7,0.2-1.1c0-0.2,0-0.4,0.2-0.4l0,0l1.8-0.9l0,0l0,0l0,0
				c0.2-0.2,0.4-0.2,0.7,0C458.2,145.1,458.7,146,458.4,146.5z"/>
			<path class="st10" d="M456.9,147.3c-0.2,1.3-0.7,2.5-1.6,2.9c-3.3,2-8.9-4-8.9-9.4c0-2,0.9-3.1,2-3.6c1.3-0.4,2-1.6,2-3.3v-4.9
				l2.5,1.3v5.4c0,2.5-0.9,3.8-2.7,4c-0.9,0-1.6,0.9-1.6,2.2c0,3.6,3.6,7.1,5.6,6c0.4-0.2,0.9-0.9,0.9-1.8c0-0.4,0.4-0.7,0.9-0.4
				l0,0C456.7,146,457.1,146.9,456.9,147.3z"/>
			<path class="st4" d="M460,121.3c-0.4-0.7-1.1-1.3-2.2-2c-3.3-1.8-8.5-1.8-11.8,0c-0.9,0.7-1.6,1.3-2,2c0,0.2-0.2,0.7-0.2,0.9v4
				c0,4.5,3.8,8.2,8.2,8.2c4.5,0,8.2-3.6,8.2-8.2v-3.8C460,121.9,460,121.7,460,121.3z"/>
			<path class="st0" d="M458.9,122.8c0.2-0.4,0.4-0.7,0.4-0.9c0.2-0.2,0.2-0.4,0.2-0.7c0-0.2,0-0.4,0-0.7c0-0.2,0-0.7-0.2-0.9
				c-0.2-0.7-0.9-1.3-2-2c-3.1-1.8-8.2-1.8-11.4,0c-0.9,0.4-1.6,1.1-2,1.8c0,0.4-0.2,0.7-0.2,0.9c0,0.4,0,0.9,0,1.3
				c0.2,0.2,0.2,0.2,0.2,0.4c0.4,0.7,1.1,1.6,2.2,2.2c1.6,0.9,3.8,1.3,5.8,1.3"/>
			<path class="st4" d="M453.5,69.1v49.7c0,0.9-0.7,1.6-1.6,1.6l0,0c-0.9,0-1.6-0.7-1.6-1.6V69.1c0-0.9,0.7-1.6,1.6-1.6l0,0
				C452.9,67.5,453.5,68.2,453.5,69.1z"/>
			<path class="st0" d="M454.9,125.5L454.9,125.5"/>
			<line class="st3" x1="452.7" y1="146.9" x2="438.7" y2="188.2"/>
			<line class="st3" x1="458.2" y1="148.9" x2="476.4" y2="171.9"/>
		</g>
		<g>
			<g>
				<g>
					<path class="st15" d="M109.4,180l-0.9-0.6c-1.4-0.8-2-1.9-2-2.9l0,0v-9.3l0,0c0-1.4,0.9-2.6,2.8-3.7l19.5-11.3
						c3.4-1.9,8.3-2.2,11.3-0.5l21.3,12.2c1.4,0.8,2,2,1.9,3.1v9c0,1.2-0.9,2.8-2.8,3.9L141,191.1c-3.4,1.9-8.3,2.2-11.3,0.5
						l-16.4-9.4"/>
					<path class="st16" d="M144.7,179.5l0.5-0.3l4.6-2.6l10.7-6.2c3.2-1.9,3.7-4.8,0.8-6.5l-21.3-12.2c-2.9-1.7-8-1.4-11.3,0.5
						l-19.5,11.3c-3.2,1.9-3.7,4.8-0.8,6.5l21.3,12.2c2.9,1.7,8,1.4,11.3-0.5l1.1-0.6"/>
				</g>
			</g>
			<path class="st10" d="M134.8,132.4c-0.2,1.3-0.7,2.5-1.6,2.9l0,0l-1.6,0.9l0,0l0,0c-3.3,2-8.9-4-8.9-9.4c0-2,0.9-3.1,2-3.6
				c1.3-0.4,2-1.6,2-3.3V115l1.6,0.9v-1.8l2.5,1.3v5.6c0,2-0.9,3.3-1.8,3.8l-1.3,0.9h-0.2c-0.2,0-0.4,0.2-0.7,0.2
				c0,0.2-0.2,0.7-0.2,1.3c0,2.7,2.7,5.8,4.7,6c0-0.4,0.2-0.7,0.2-1.1c0-0.2,0-0.4,0.2-0.4l0,0l1.8-0.9l0,0l0,0l0,0
				c0.2-0.2,0.4-0.2,0.7,0C134.5,131.1,135,131.9,134.8,132.4z"/>
			<path class="st10" d="M133.2,133.3c-0.2,1.3-0.7,2.5-1.6,2.9c-3.3,2-8.9-4-8.9-9.4c0-2,0.9-3.1,2-3.6c1.3-0.4,2-1.6,2-3.3V115
				l2.5,1.3v5.4c0,2.5-0.9,3.8-2.7,4c-0.9,0-1.6,0.9-1.6,2.2c0,3.6,3.6,7.1,5.6,6c0.4-0.2,0.9-0.9,0.9-1.8c0-0.4,0.4-0.7,0.9-0.4
				l0,0C133,131.9,133.4,132.8,133.2,133.3z"/>
			<path class="st4" d="M136.3,107.2c-0.4-0.7-1.1-1.3-2.2-2c-3.3-1.8-8.5-1.8-11.8,0c-0.9,0.7-1.6,1.3-2,2c0,0.2-0.2,0.7-0.2,0.9v4
				c0,4.5,3.8,8.2,8.2,8.2s8.2-3.6,8.2-8.2v-3.8C136.3,107.9,136.3,107.6,136.3,107.2z"/>
			<path class="st0" d="M135.2,108.8c0.2-0.4,0.4-0.7,0.4-0.9c0.2-0.2,0.2-0.4,0.2-0.7c0-0.2,0-0.4,0-0.7c0-0.2,0-0.7-0.2-0.9
				c-0.2-0.7-0.9-1.3-2-2c-3.1-1.8-8.2-1.8-11.4,0c-0.9,0.4-1.6,1.1-2,1.8c0,0.4-0.2,0.7-0.2,0.9c0,0.4,0,0.9,0,1.3
				c0.2,0.2,0.2,0.2,0.2,0.4c0.4,0.7,1.1,1.6,2.2,2.2c1.6,0.9,3.8,1.3,5.8,1.3"/>
			<path class="st4" d="M129.9,55v49.7c0,0.9-0.7,1.6-1.6,1.6l0,0c-0.9,0-1.6-0.7-1.6-1.6V55c0-0.9,0.7-1.6,1.6-1.6l0,0
				C129.2,53.5,129.9,54.1,129.9,55z"/>
			<path class="st0" d="M131.2,111.4L131.2,111.4"/>
			<line class="st3" x1="129" y1="132.8" x2="115" y2="174.1"/>
			<line class="st3" x1="134.5" y1="134.8" x2="152.7" y2="157.8"/>
		</g>
		<g>
			<g>
				<polygon class="st0" points="310.6,186.3 265.2,160.9 265.2,152.9 300.8,140 346.4,157.6 346.4,165.6 				"/>
				<polygon class="st4" points="310.6,178.3 265.2,152.9 300.7,132 346.4,157.6 				"/>
				<line class="st3" x1="310.6" y1="178.3" x2="310.6" y2="186.3"/>
			</g>
			<g>
				<polygon class="st0" points="310.6,175.2 265.2,149.6 265.1,141.5 300.7,128.6 346.3,146.2 346.3,154.2 				"/>
				<polygon class="st4" points="310.5,167.1 265.1,141.5 300.7,120.6 346.3,146.2 				"/>
				<line class="st3" x1="310.5" y1="167.1" x2="310.6" y2="175.2"/>
			</g>
			<g>
				<polygon class="st0" points="310.5,163.8 265.1,138.4 265.1,130.4 300.7,117.5 346.2,135 346.3,143.1 				"/>
				<polygon class="st4" points="310.5,155.8 265.1,130.4 300.6,109.5 346.2,135 				"/>
				<line class="st3" x1="310.5" y1="155.8" x2="310.5" y2="163.8"/>
			</g>
			<g>
				<polyline class="st0" points="316.2,149.3 310.4,152.6 265,127 265,119 300.6,106.3 346.2,123.7 346.2,131.7 320.7,146.6 				
					"/>
				<polygon class="st4" points="310.4,144.6 265,119 300.5,98.3 346.2,123.7 				"/>
				<line class="st3" x1="310.4" y1="144.6" x2="310.4" y2="152.6"/>
			</g>
			<g>
				<polygon class="st0" points="310.4,141.5 265,115.9 264.9,107.9 300.5,95 346.1,112.5 346.2,120.6 				"/>
				<polyline class="st4" points="332.6,120.4 310.3,133.5 264.9,107.9 300.5,86.9 346.1,112.5 336.1,118.4 				"/>
				<line class="st3" x1="310.3" y1="133.5" x2="310.4" y2="141.5"/>
			</g>
			<g>
				<polygon class="st0" points="310.3,130.1 264.9,104.8 264.9,96.7 300.4,75.8 346,101.2 346.1,109.2 				"/>
				<polygon class="st17" points="324.7,89.9 345.9,101.4 324.1,113.6 				"/>
				<polygon class="st18" points="301.6,75.9 325.7,89.3 324.9,114.3 310.9,121.9 301.2,116.5 301,76.1 				"/>
				<polygon class="st19" points="266.5,97.1 301.1,76.2 301.3,116.6 				"/>
				<polyline class="st3" points="310.3,122.1 264.9,96.7 300.4,75.8 346,101.2 				"/>
				<line class="st3" x1="316" y1="118.7" x2="315.4" y2="119.2"/>
				<polyline class="st3" points="346,101.2 310.3,122.1 310.3,130.1 				"/>
			</g>
		</g>
		<g>
			<g>
				<polygon class="st20" points="120.5,31.9 120.5,42.4 115.2,45.5 110,40.7 110,25.8 				"/>
				<line class="st21" x1="115.2" y1="28.9" x2="115.2" y2="43.7"/>
			</g>
			<g>
				<polygon class="st0" points="148.7,49.9 148.7,58.6 143.5,61.7 138.2,58.6 138.2,43.7 				"/>
				<line class="st3" x1="143.5" y1="46.8" x2="143.5" y2="61.7"/>
			</g>
			<g>
				<polygon class="st20" points="182.2,70.2 182.2,79 176.9,82.2 171.7,79.2 171.7,64.1 				"/>
				<line class="st21" x1="176.9" y1="65.4" x2="176.9" y2="80.3"/>
			</g>
			<g>
				<polygon class="st4" points="212.8,86 212.8,96.5 207.6,97.8 202.3,94.7 202.3,79.8 				"/>
				<line class="st3" x1="207.6" y1="82.9" x2="207.6" y2="97.8"/>
			</g>
			<g>
				<polygon class="st4" points="243.9,105 243.9,113.7 238.4,116.8 233.4,114 233.4,98.9 				"/>
				<line class="st3" x1="238.4" y1="101.9" x2="238.4" y2="116.8"/>
			</g>
			<g>
				<polygon class="st4" points="274.7,122.9 274.7,131.7 269.3,134.7 264,131.9 264,116.8 				"/>
				<line class="st3" x1="269.3" y1="119.9" x2="269.3" y2="134.7"/>
			</g>
			<g>
				<polygon class="st0" points="95.8,28 308.4,150.3 308.4,156 95.8,33.7 				"/>
				<polygon class="st0" points="308.4,156 95.8,33.7 90.3,36.7 303,159 				"/>
				<polygon class="st4" points="308.4,150.3 95.8,28 90.3,31.3 303,153.6 				"/>
				<g>
					<polygon class="st4" points="300.3,137.8 300.3,146.8 296,149.2 291.8,146.8 291.8,134.5 					"/>
					<line class="st3" x1="296" y1="137.2" x2="296" y2="149.2"/>
				</g>
				<polygon class="st0" points="90.3,31.3 303,153.6 303,159 90.3,36.7 				"/>
			</g>
			<g>
				<polygon class="st4" points="133.8,73.1 142.8,67.6 142.8,63 138.7,60.4 125.5,68.5 				"/>
				<line class="st3" x1="131" y1="69.8" x2="142.8" y2="63"/>
			</g>
			<g>
				<polygon class="st22" points="104.3,56.2 113.5,50.7 113.5,46.1 109.1,43.5 96.2,51.6 				"/>
				<line class="st21" x1="101.5" y1="52.9" x2="113.5" y2="46.1"/>
			</g>
			<g>
				<polygon class="st4" points="164.3,90.3 173.2,84.9 173.2,80.3 168.8,77.6 155.9,85.7 				"/>
				<line class="st3" x1="161.2" y1="87.1" x2="173.2" y2="80.3"/>
			</g>
			<g>
				<polygon class="st4" points="194.7,107.6 203.6,102.2 203.6,97.6 199.3,94.9 186.3,103 				"/>
				<line class="st3" x1="191.6" y1="104.3" x2="203.6" y2="97.6"/>
			</g>
			<g>
				<polygon class="st4" points="224.9,124.9 234,119.4 234,114.8 229.7,112.2 216.8,120.3 				"/>
				<line class="st3" x1="222" y1="121.6" x2="234" y2="114.8"/>
			</g>
			<g>
				<polygon class="st4" points="255.3,142.2 264.2,136.7 264.2,132.1 260.1,129.5 247,137.6 				"/>
				<line class="st3" x1="252.4" y1="138.9" x2="264.2" y2="132.1"/>
			</g>
			<g>
				<polygon class="st4" points="287,159.5 296,154 296,149.4 291.6,146.8 278.7,154.9 				"/>
				<line class="st3" x1="282.6" y1="157.1" x2="296" y2="149.4"/>
			</g>
			<g>
				<line class="st3" x1="165.3" y1="89.2" x2="177.4" y2="82.5"/>
			</g>
			<g>
				<polyline class="st0" points="201.9,110.7 289.8,161.2 289.8,166.7 77.2,44.6 77.2,38.9 196.2,107.2 				"/>
				<polygon class="st0" points="289.8,166.7 77.2,44.4 71.9,47.7 284.6,169.8 				"/>
				<polyline class="st4" points="196.4,107.4 77.2,38.9 71.9,42 284.6,164.3 289.8,161.2 201.2,110.2 				"/>
				<polygon class="st0" points="71.9,42 284.6,164.3 284.6,170 71.9,47.7 				"/>
			</g>
			<g>
				<line class="st21" x1="175.8" y1="55.1" x2="177.4" y2="55.8"/>
				<polygon class="st0" points="307.8,136.5 95.1,14.2 89.9,17.3 302.5,139.6 				"/>
				<polyline class="st0" points="177.8,56.2 95.1,8.5 89.9,11.6 302.5,133.9 307.8,130.8 182.8,59.1 				"/>
				<polygon class="st4" points="89.9,11.6 302.5,133.9 302.5,139.6 89.9,17.3 				"/>
			</g>
			<g>
				<polygon class="st4" points="168,72.6 177.2,67.1 177.2,61.9 172.8,59.3 159.9,67.4 				"/>
				<line class="st3" x1="165.1" y1="68.7" x2="177.2" y2="61.9"/>
			</g>
			<g>
				<polygon class="st4" points="198.8,90.1 207.8,84.6 207.8,79.6 203.6,77 190.5,85.1 				"/>
				<line class="st3" x1="196" y1="86.4" x2="207.8" y2="79.6"/>
			</g>
			<g>
				<polygon class="st4" points="229.7,108.1 238.9,102.6 238.9,97.3 234.5,94.9 221.6,102.8 				"/>
				<line class="st3" x1="226.8" y1="104.3" x2="238.9" y2="97.3"/>
			</g>
			<g>
				<polygon class="st4" points="260.5,125.8 269.5,120.3 269.5,115.1 265.1,112.4 252.2,120.5 				"/>
				<line class="st3" x1="257.5" y1="121.8" x2="269.5" y2="115.1"/>
			</g>
			<g>
				<polygon class="st0" points="289.4,145 300.6,138.2 300.6,133 296.2,130.4 283.3,138.2 				"/>
				<line class="st3" x1="288.5" y1="139.8" x2="300.6" y2="133"/>
			</g>
			<g>
				<polygon class="st4" points="134.5,53.6 143.5,48.1 143.5,42.4 139.1,40 126.2,47.9 				"/>
				<line class="st3" x1="131.4" y1="49.4" x2="143.5" y2="42.4"/>
			</g>
			<g>
				<polygon class="st20" points="106.3,37.4 115.2,31.9 115.2,26.2 111.1,23.8 98,31.7 				"/>
				<line class="st21" x1="103.4" y1="33.2" x2="115.2" y2="26.2"/>
			</g>
			<g>
				<polygon class="st0" points="77.2,18.1 289.8,140.4 289.8,146.1 77.2,23.8 				"/>
				<polygon class="st0" points="289.8,146.1 77.2,23.8 71.9,21.4 71.9,26.9 284.6,149.2 				"/>
				<line class="st23" x1="183.1" y1="85.3" x2="197.3" y2="93.4"/>
				<polyline class="st0" points="196.6,93 284.6,143.7 289.8,140.4 77.2,18.1 71.9,21.4 150.9,66.7 				"/>
				<line class="st3" x1="150.7" y1="66.7" x2="183.5" y2="85.5"/>
				<line class="st21" x1="191.2" y1="89.9" x2="191.6" y2="90.1"/>
			</g>
			<polygon class="st0" points="284.6,149.2 289.8,146.1 289.8,140.4 284.6,143.7 			"/>
			<polygon class="st0" points="302.5,139.6 307.8,136.5 307.8,130.8 302.5,133.9 			"/>
			<polygon class="st0" points="303.2,159 308.4,156 308.4,150.3 303.2,153.6 			"/>
			<polygon class="st0" points="284.6,170 289.8,166.9 289.8,161.2 284.6,164.3 			"/>
			<g>
				<polygon class="st20" points="101.7,44.2 101.7,52.9 96.2,56 91,52.9 91,38 				"/>
				<line class="st21" x1="96.2" y1="41.1" x2="96.2" y2="56"/>
			</g>
			<g>
				<polygon class="st0" points="131,61 131,69.8 125.5,72.8 120.5,70 120.5,54.9 				"/>
				<line class="st3" x1="125.5" y1="58" x2="125.5" y2="72.8"/>
			</g>
			<g>
				<polygon class="st4" points="161.2,78.5 161.2,87.3 155.9,90.3 150.7,87.3 150.7,72.4 				"/>
				<line class="st3" x1="155.9" y1="75.5" x2="155.9" y2="90.3"/>
			</g>
			<g>
				<polygon class="st22" points="191.4,95.8 191.4,104.6 186.1,107.6 180.9,104.8 180.9,89.7 				"/>
				<line class="st21" x1="186.1" y1="92.7" x2="186.1" y2="107.6"/>
			</g>
			<g>
				<polygon class="st0" points="221.6,113.1 221.6,121.8 216.3,125.1 211.1,122.1 211.1,107 				"/>
				<line class="st3" x1="216.3" y1="110" x2="216.3" y2="125.1"/>
			</g>
			<g>
				<polygon class="st0" points="252,130.6 252,139.3 246.5,142.4 241.5,139.6 241.5,124.5 				"/>
				<line class="st3" x1="246.5" y1="127.5" x2="246.5" y2="142.4"/>
			</g>
			<g>
				<polygon class="st0" points="282.6,148.3 282.6,157.1 277.4,160.1 272.1,157.3 272.1,142.2 				"/>
				<line class="st3" x1="277.4" y1="145.2" x2="277.4" y2="160.1"/>
			</g>
		</g>
		<g>
			<g>
				<polygon class="st0" points="243.4,226.9 198,201.5 198,193.5 233.6,180.6 279.2,198.2 279.2,206.2 				"/>
				<polygon class="st4" points="243.4,218.9 198,193.5 233.5,172.6 279.2,198.2 				"/>
				<line class="st3" x1="243.4" y1="218.9" x2="243.4" y2="226.9"/>
			</g>
			<g>
				<polygon class="st0" points="243.4,215.8 198,190.2 197.9,182.1 233.5,169.2 279.1,186.8 279.1,194.8 				"/>
				<polygon class="st4" points="243.3,207.7 197.9,182.1 233.5,161.2 279.1,186.8 				"/>
				<line class="st3" x1="243.3" y1="207.7" x2="243.4" y2="215.8"/>
			</g>
			<g>
				<polygon class="st0" points="243.3,204.4 197.9,179 197.8,171 233.4,158.1 279,175.7 279.1,183.7 				"/>
				<polygon class="st4" points="243.2,196.4 197.8,171 233.4,150.1 279,175.7 				"/>
				<line class="st3" x1="243.2" y1="196.4" x2="243.3" y2="204.4"/>
			</g>
			<g>
				<polyline class="st0" points="249,189.9 243.2,193.3 197.8,167.7 197.8,159.6 233.4,146.9 279,164.3 279,172.3 253.4,187.2 				
					"/>
				<polygon class="st4" points="243.2,185.2 197.8,159.6 233.3,138.9 279,164.3 				"/>
				<line class="st3" x1="243.2" y1="185.2" x2="243.2" y2="193.3"/>
			</g>
			<g>
				<polygon class="st0" points="243.2,182.1 197.8,156.5 197.7,148.5 233.3,135.6 278.9,153.1 278.9,161.2 				"/>
				<polyline class="st4" points="265.3,161 243.1,174.1 197.7,148.5 233.3,127.5 278.9,153.1 268.9,159 				"/>
				<line class="st3" x1="243.1" y1="174.1" x2="243.2" y2="182.1"/>
			</g>
			<g>
				<polygon class="st0" points="243.1,170.7 197.7,145.4 197.6,137.3 233.2,116.4 278.8,141.8 278.9,149.8 				"/>
				<polygon class="st17" points="257.5,130.3 278.7,141.9 256.9,154 				"/>
				<polygon class="st18" points="234.4,116.4 258.4,129.8 257.7,154.8 243.7,162.4 234,157 233.8,116.6 				"/>
				<polygon class="st19" points="199.3,137.5 233.9,116.7 234.1,157.1 				"/>
				<polyline class="st3" points="243,162.7 197.6,137.3 233.2,116.4 278.8,141.8 				"/>
				<line class="st3" x1="248.8" y1="159.3" x2="248.2" y2="159.8"/>
				<polyline class="st3" points="278.8,141.8 243,162.7 243.1,170.7 				"/>
			</g>
		</g>
		<g>
			<g>
				<polygon class="st4" points="437.5,64.1 437.5,79.3 432.2,84.2 426.8,81.1 426.8,70.4 				"/>
				<line class="st3" x1="432.2" y1="82.4" x2="432.2" y2="67.2"/>
			</g>
			<g>
				<polygon class="st0" points="408.8,82.4 408.8,97.6 403.4,100.7 398.1,97.6 398.1,88.6 				"/>
				<line class="st3" x1="403.4" y1="100.7" x2="403.4" y2="85.5"/>
			</g>
			<g>
				<polygon class="st4" points="374.7,103.1 374.7,118.5 369.3,121.6 364,118.3 364,109.4 				"/>
				<line class="st3" x1="369.3" y1="119.6" x2="369.3" y2="104.5"/>
			</g>
			<g>
				<polygon class="st4" points="343.4,119.2 343.4,134.3 338.1,137.5 332.7,136.1 332.7,125.4 				"/>
				<line class="st3" x1="338.1" y1="137.5" x2="338.1" y2="122.3"/>
			</g>
			<g>
				<polygon class="st4" points="311.8,138.6 311.8,154 306.7,156.9 301.1,153.7 301.1,144.8 				"/>
				<line class="st3" x1="306.7" y1="156.9" x2="306.7" y2="141.7"/>
			</g>
			<g>
				<polygon class="st4" points="280.6,156.9 280.6,172.2 275.2,175.1 269.7,172 269.7,163.1 				"/>
				<line class="st3" x1="275.2" y1="175.1" x2="275.2" y2="160"/>
			</g>
			<g class="st24">
				<g class="st25">
					<polygon class="st0" points="489,123.6 443.8,98 443.8,90 479.4,77.3 524.9,95.1 524.9,103.1 					"/>
					<polygon class="st4" points="489,115.6 443.8,90 479.4,69.2 524.9,95.1 					"/>
					<line class="st3" x1="489" y1="115.6" x2="489" y2="123.6"/>
				</g>
				<g class="st25">
					<polygon class="st0" points="489,112.5 443.8,86.6 443.8,78.6 479.4,65.9 524.9,83.7 524.9,91.8 					"/>
					<polygon class="st4" points="489,104.5 443.8,78.6 479.4,57.9 524.9,83.7 					"/>
					<line class="st3" x1="489" y1="104.5" x2="489" y2="112.5"/>
				</g>
				<g class="st25">
					<polygon class="st0" points="489,101.1 443.8,75.5 443.8,67.5 479.4,54.8 524.9,72.6 524.9,80.6 					"/>
					<polygon class="st4" points="489,93.1 443.8,67.5 479.4,46.7 524.9,72.6 					"/>
					<line class="st3" x1="489" y1="93.1" x2="489" y2="101.1"/>
				</g>
				<g class="st25">
					<polyline class="st0" points="494.8,86.6 489,90 443.8,64.1 443.8,56.1 479.4,43.6 524.9,61.2 524.9,69.2 499.3,84 					"/>
					<polygon class="st4" points="489,82 443.8,56.1 479.4,35.6 524.9,61.2 					"/>
					<line class="st3" x1="489" y1="82" x2="489" y2="90"/>
				</g>
				<g class="st25">
					<polygon class="st0" points="489,78.8 443.8,53 443.8,44.9 479.4,32.2 524.9,50.1 524.9,58.1 					"/>
					<polyline class="st4" points="511.3,57.9 489,70.8 443.8,44.9 479.4,24.2 524.9,50.1 514.9,55.9 					"/>
					<line class="st3" x1="489" y1="70.8" x2="489" y2="78.8"/>
				</g>
				<g class="st25">
					<polygon class="st0" points="489,67.5 443.8,41.8 443.8,33.8 479.4,13.1 524.9,38.7 524.9,46.7 					"/>
					<polyline class="st3" points="489,59.4 443.8,33.8 479.4,13.1 483,15.1 					"/>
					<line class="st3" x1="494.8" y1="56.1" x2="494.2" y2="56.5"/>
					<polyline class="st3" points="479.9,13.3 524.9,38.7 498.2,54.3 					"/>
					<line class="st3" x1="489" y1="59.4" x2="489" y2="67.5"/>
				</g>
			</g>
			<g class="st24">
				<polygon class="st26" points="453.1,72.8 480.3,94 482.8,92.7 482.8,56.3 451.1,38 448.7,39.4 				"/>
				<polygon class="st27" points="448.7,75.7 480.3,94 480.3,57.7 448.7,39.4 				"/>
				<line class="st28" x1="482.8" y1="56.3" x2="480.3" y2="57.7"/>
			</g>
			<g>
				<g>
					<polygon class="st0" points="452,72.1 131.2,255.8 131.2,250 452,66.3 					"/>
					<polygon class="st0" points="136.8,259 457.6,75.3 452,72.1 131.2,255.8 					"/>
					<polygon class="st4" points="136.8,253.4 457.6,69.7 452,66.3 131.2,250 					"/>
					<g>
						<polygon class="st4" points="252.3,174.9 252.3,187.4 248,189.9 243.6,187.4 243.6,178.3 						"/>
						<line class="st3" x1="248" y1="189.9" x2="248" y2="177.6"/>
					</g>
					<polygon class="st0" points="457.6,75.3 136.8,259 136.8,253.4 457.6,69.7 					"/>
				</g>
				<polygon class="st0" points="136.5,253.4 131.2,250 131.2,255.8 136.5,259 				"/>
			</g>
			<g>
				<polygon class="st4" points="421.7,107.6 408.3,99.3 404.1,102 404.1,106.7 413.2,112.3 				"/>
				<line class="st3" x1="404.1" y1="102" x2="416.1" y2="108.9"/>
			</g>
			<g>
				<polygon class="st0" points="451.6,90.4 438.4,82.2 434,84.9 434,89.5 443.3,95.1 				"/>
				<line class="st3" x1="434" y1="84.9" x2="446.2" y2="91.8"/>
			</g>
			<g>
				<polygon class="st4" points="390.7,125.2 377.6,117 373.1,119.6 373.1,124.3 382.2,129.9 				"/>
				<line class="st3" x1="373.1" y1="119.6" x2="385.4" y2="126.5"/>
			</g>
			<g>
				<polygon class="st4" points="359.7,142.8 346.6,134.6 342.1,137.2 342.1,141.9 351.3,147.5 				"/>
				<line class="st3" x1="342.1" y1="137.2" x2="354.4" y2="144.2"/>
			</g>
			<g>
				<polygon class="st4" points="328.7,160.4 315.6,152.2 311.1,154.9 311.1,159.5 320.5,165.1 				"/>
				<line class="st3" x1="311.1" y1="154.9" x2="323.4" y2="161.8"/>
			</g>
			<g>
				<polygon class="st4" points="298,178 284.6,169.8 280.4,172.5 280.4,177.1 289.5,182.7 				"/>
				<line class="st3" x1="280.4" y1="172.5" x2="292.4" y2="179.4"/>
			</g>
			<g>
				<polygon class="st4" points="265.6,195.7 252.5,187.4 248,190.1 248,194.8 257.2,200.3 				"/>
				<line class="st3" x1="248" y1="190.1" x2="261.6" y2="197.9"/>
			</g>
			<g>
				<polygon class="st4" points="239.4,210.1 226.3,201.9 221.8,204.6 221.8,209.3 231,214.8 				"/>
				<line class="st3" x1="221.8" y1="204.6" x2="235.4" y2="212.4"/>
			</g>
			<g>
				<polygon class="st4" points="215.1,224.6 202,216.4 197.5,219.1 197.5,223.7 206.7,229.3 				"/>
				<line class="st3" x1="197.5" y1="219.1" x2="211.1" y2="226.9"/>
			</g>
			<g>
				<polygon class="st4" points="192.3,237.3 179.1,229.1 174.7,231.8 174.7,236.5 183.8,242 				"/>
				<line class="st3" x1="174.7" y1="231.8" x2="188.3" y2="239.6"/>
			</g>
			<g>
				<polygon class="st4" points="169.4,250.3 156.3,242 151.8,244.7 151.8,249.4 161,255 				"/>
				<line class="st3" x1="151.8" y1="244.7" x2="165.4" y2="252.5"/>
			</g>
			<g>
				<line class="st3" x1="368.9" y1="121.9" x2="381.1" y2="128.8"/>
			</g>
			<g>
				<g>
					<polyline class="st0" points="349.7,147.1 471,77.5 471,83.3 147.5,268.9 147.5,263.3 343.9,150.6 					"/>
					<polygon class="st0" points="152.8,272 476.3,86.4 471,83.1 147.5,268.9 					"/>
					<polyline class="st4" points="344.6,150.2 147.5,263.3 152.8,266.4 476.3,80.6 471,77.5 349.5,147.3 					"/>
					<polygon class="st0" points="476.3,86.4 152.8,272.2 152.8,266.4 476.3,80.6 					"/>
				</g>
				<polygon class="st0" points="152.8,266.4 147.5,263.3 147.5,269.1 152.8,272.2 				"/>
			</g>
			<g>
				<g>
					<line class="st3" x1="368.9" y1="94.7" x2="370.4" y2="94"/>
					<polygon class="st0" points="133,241.7 458,55.4 452.7,52.3 127.7,238.6 					"/>
					<polyline class="st0" points="363.3,98 127.7,232.8 133,236 458,49.6 452.7,46.5 368.4,95.1 					"/>
					<polygon class="st4" points="458,55.4 133,241.7 133,236 458,49.6 					"/>
				</g>
				<polygon class="st0" points="133,236 127.7,232.8 127.7,238.6 133,241.7 				"/>
			</g>
			<g>
				<polygon class="st4" points="386.7,106.5 373.5,98.2 369.1,100.9 369.1,106.3 378.5,111.8 				"/>
				<line class="st3" x1="369.1" y1="100.9" x2="381.3" y2="107.8"/>
			</g>
			<g>
				<polygon class="st4" points="355.5,124.5 342.1,116.3 337.9,119 337.9,124.1 347,129.7 				"/>
				<line class="st3" x1="337.9" y1="119" x2="349.9" y2="125.9"/>
			</g>
			<g>
				<polygon class="st4" points="323.8,142.6 310.7,134.6 306.2,137 306.2,142.4 315.6,147.9 				"/>
				<line class="st3" x1="306.2" y1="137" x2="318.5" y2="144.2"/>
			</g>
			<g>
				<polygon class="st4" points="292.6,160.7 279.5,152.4 275,155.1 275,160.4 284.1,166 				"/>
				<line class="st3" x1="275" y1="155.1" x2="287.3" y2="162"/>
			</g>
			<g>
				<polygon class="st0" points="261,178.7 247.8,170.7 243.3,173.4 243.3,178.7 254.7,185.6 				"/>
				<line class="st3" x1="243.3" y1="173.4" x2="255.6" y2="180.3"/>
			</g>
			<g>
				<polygon class="st4" points="421,86.6 407.9,78.6 403.4,81.1 403.4,86.9 412.6,92.4 				"/>
				<line class="st3" x1="403.4" y1="81.1" x2="415.7" y2="88.2"/>
			</g>
			<g>
				<polygon class="st4" points="449.8,70.1 436.4,62.1 432.2,64.6 432.2,70.4 441.3,75.9 				"/>
				<line class="st3" x1="432.2" y1="64.6" x2="444.2" y2="71.7"/>
			</g>
			<g>
				<polygon class="st0" points="210.5,207.7 197.3,199.7 192.8,202.3 192.8,207.7 204.2,214.6 				"/>
				<line class="st3" x1="192.8" y1="202.3" x2="205.1" y2="209.3"/>
			</g>
			<g>
				<polygon class="st0" points="187.6,220.4 174.4,212.4 170,215 170,220.4 181.4,227.3 				"/>
				<line class="st3" x1="170" y1="215" x2="182.2" y2="222"/>
			</g>
			<g>
				<polygon class="st0" points="164.7,233.3 151.6,225.3 147.1,228 147.1,233.3 158.5,240.2 				"/>
				<line class="st3" x1="147.1" y1="228" x2="159.4" y2="234.9"/>
			</g>
			<g>
				<polygon class="st0" points="234.8,193.2 221.6,185.2 217.1,187.9 217.1,193.2 228.5,200.1 				"/>
				<line class="st3" x1="217.1" y1="187.9" x2="229.4" y2="194.8"/>
			</g>
			<g>
				<polygon class="st0" points="246.1,197.2 246.1,212.6 240.8,215.5 235.4,212.4 235.4,203.5 				"/>
				<line class="st3" x1="240.8" y1="215.5" x2="240.8" y2="200.3"/>
			</g>
			<g>
				<polygon class="st0" points="221.8,211.7 221.8,227.1 216.5,230 211.1,226.9 211.1,217.9 				"/>
				<line class="st3" x1="216.5" y1="230" x2="216.5" y2="214.8"/>
			</g>
			<g>
				<polygon class="st0" points="199,224.4 199,239.8 193.6,242.7 188.3,239.6 188.3,230.7 				"/>
				<line class="st3" x1="193.6" y1="242.7" x2="193.6" y2="227.5"/>
			</g>
			<g>
				<polygon class="st0" points="176.1,237.3 176.1,252.7 170.8,255.6 165.4,252.5 165.4,243.6 				"/>
				<line class="st3" x1="170.8" y1="255.6" x2="170.8" y2="240.5"/>
			</g>
			<g>
				<g>
					<polygon class="st0" points="471,62.1 142.4,251.2 142.4,245.4 471,56.3 					"/>
					<polygon class="st0" points="147.7,254.3 476.3,65.2 476.3,59.7 471,62.1 142.4,251.2 					"/>
					<line class="st29" x1="348.6" y1="133" x2="363.1" y2="124.8"/>
					<polyline class="st0" points="395.8,105.8 476.3,59.7 471,56.3 142.4,245.4 147.7,248.7 349.2,132.6 					"/>
					<line class="st3" x1="362.6" y1="125" x2="396.1" y2="105.8"/>
					<line class="st3" x1="354.4" y1="129.7" x2="354.8" y2="129.4"/>
				</g>
				<polygon class="st0" points="147.7,248.7 142.4,245.4 142.4,251.2 147.7,254.3 				"/>
			</g>
			<g>
				<polygon class="st4" points="456.9,76.6 456.9,91.8 451.6,94.9 446,91.8 446,82.8 				"/>
				<line class="st3" x1="451.6" y1="94.9" x2="451.6" y2="79.7"/>
			</g>
			<g>
				<polygon class="st0" points="426.8,93.8 426.8,109.2 421.7,112 416.1,108.9 416.1,100 				"/>
				<line class="st3" x1="421.7" y1="112" x2="421.7" y2="96.9"/>
			</g>
			<g>
				<polygon class="st4" points="396.1,111.6 396.1,126.8 390.7,129.9 385.4,126.8 385.4,117.8 				"/>
				<line class="st3" x1="390.7" y1="129.9" x2="390.7" y2="114.7"/>
			</g>
			<g>
				<polygon class="st0" points="365.3,129.2 365.3,144.6 359.9,147.5 354.6,144.4 354.6,135.5 				"/>
				<line class="st3" x1="359.9" y1="147.5" x2="359.9" y2="132.3"/>
			</g>
			<g>
				<polygon class="st0" points="334.5,146.8 334.5,162.2 329.2,165.3 323.8,162 323.8,153.1 				"/>
				<line class="st3" x1="329.2" y1="165.3" x2="329.2" y2="149.9"/>
			</g>
			<g>
				<polygon class="st0" points="303.5,164.7 303.5,180 298.4,182.9 292.8,179.8 292.8,170.9 				"/>
				<line class="st3" x1="298.4" y1="182.9" x2="298.4" y2="167.8"/>
			</g>
			<g>
				<polygon class="st0" points="272.3,182.7 272.3,198.1 267,201 261.6,197.9 261.6,189 				"/>
				<line class="st3" x1="267" y1="201" x2="267" y2="185.8"/>
			</g>
		</g>
		<g>
			<g>
				<polygon class="st0" points="386.4,231.7 340.9,206.3 340.9,198.3 376.5,185.4 422.1,202.9 422.1,211 				"/>
				<polygon class="st4" points="386.3,223.6 340.9,198.3 376.4,177.3 422.1,202.9 				"/>
				<line class="st3" x1="386.3" y1="223.6" x2="386.4" y2="231.7"/>
			</g>
			<g>
				<polygon class="st0" points="386.3,220.5 340.9,194.9 340.8,186.9 376.4,174 422,191.6 422.1,199.6 				"/>
				<polygon class="st4" points="386.2,212.5 340.8,186.9 376.4,166 422,191.6 				"/>
				<line class="st3" x1="386.2" y1="212.5" x2="386.3" y2="220.5"/>
			</g>
			<g>
				<polygon class="st0" points="386.2,209.2 340.8,183.8 340.8,175.8 376.4,162.8 421.9,180.4 422,188.4 				"/>
				<polygon class="st4" points="386.2,201.1 340.8,175.8 376.3,154.8 421.9,180.4 				"/>
				<line class="st3" x1="386.2" y1="201.1" x2="386.2" y2="209.2"/>
			</g>
			<g>
				<polyline class="st0" points="391.9,194.6 386.2,198 340.7,172.4 340.7,164.4 376.3,151.7 421.9,169 421.9,177.1 396.4,191.9 
									"/>
				<polygon class="st4" points="386.1,190 340.7,164.4 376.3,143.7 421.9,169 				"/>
				<line class="st3" x1="386.1" y1="190" x2="386.2" y2="198"/>
			</g>
			<g>
				<polygon class="st0" points="386.1,186.9 340.7,161.3 340.6,153.2 376.2,140.3 421.8,157.9 421.9,165.9 				"/>
				<polyline class="st4" points="408.3,165.8 386,178.8 340.6,153.2 376.2,132.3 421.8,157.9 411.8,163.7 				"/>
				<line class="st3" x1="386" y1="178.8" x2="386.1" y2="186.9"/>
			</g>
			<g>
				<polygon class="st0" points="386,175.5 340.6,150.1 340.6,142.1 376.1,121.2 421.7,146.5 421.8,154.5 				"/>
				<polygon class="st17" points="400.5,135 421.7,146.5 400,158.6 				"/>
				<polygon class="st18" points="376.7,121.5 400.7,134.8 399.9,159.9 386,167.5 376.3,162 376.1,121.6 				"/>
				<polygon class="st19" points="341.5,142 376.1,121.2 376.3,161.6 				"/>
				<polyline class="st3" points="386,167.5 340.6,142.1 376.1,121.2 421.7,146.5 				"/>
				<line class="st3" x1="391.8" y1="164.1" x2="391.1" y2="164.5"/>
				<polyline class="st3" points="421.7,146.5 386,167.5 386,175.5 				"/>
			</g>
		</g>
		<g>
			<g>
				<polygon class="st20" points="357,167.1 357,177.6 351.7,180.7 346.5,175.9 346.5,161 				"/>
				<line class="st21" x1="351.7" y1="164.1" x2="351.7" y2="179"/>
			</g>
			<g>
				<polygon class="st0" points="385.2,185.1 385.2,193.8 380,196.9 374.7,193.8 374.7,179 				"/>
				<line class="st3" x1="380" y1="182" x2="380" y2="196.9"/>
			</g>
			<g>
				<polygon class="st20" points="418.7,205.4 418.7,214.2 413.4,217.5 408.2,214.4 408.2,199.3 				"/>
				<line class="st21" x1="413.4" y1="200.6" x2="413.4" y2="215.5"/>
			</g>
			<g>
				<polygon class="st4" points="449.3,221.2 449.3,231.7 444.1,233 438.8,229.9 438.8,215.1 				"/>
				<line class="st3" x1="444.1" y1="218.1" x2="444.1" y2="233"/>
			</g>
			<g>
				<polygon class="st4" points="480.4,240.2 480.4,249 474.9,252 469.9,249.2 469.9,234.1 				"/>
				<line class="st3" x1="474.9" y1="237.1" x2="474.9" y2="252"/>
			</g>
			<g>
				<polygon class="st4" points="511.2,258.2 511.2,266.9 505.8,270 500.5,267.1 500.5,252 				"/>
				<line class="st3" x1="505.8" y1="255.1" x2="505.8" y2="270"/>
			</g>
			<g>
				<polygon class="st0" points="332.3,163.2 544.9,285.5 544.9,291.2 332.3,168.9 				"/>
				<polygon class="st0" points="544.9,291.2 332.3,168.9 326.8,172 539.5,294.2 				"/>
				<polygon class="st4" points="544.9,285.5 332.3,163.2 326.8,166.5 539.5,288.8 				"/>
				<g>
					<polygon class="st4" points="536.8,273 536.8,282 532.5,284.4 528.3,282 528.3,269.7 					"/>
					<line class="st3" x1="532.5" y1="272.4" x2="532.5" y2="284.4"/>
				</g>
				<polygon class="st0" points="326.8,166.5 539.5,288.8 539.5,294.2 326.8,172 				"/>
			</g>
			<g>
				<polygon class="st4" points="370.3,208.3 379.3,202.8 379.3,198.2 375.2,195.6 362,203.7 				"/>
				<line class="st3" x1="367.5" y1="205" x2="379.3" y2="198.2"/>
			</g>
			<g>
				<polygon class="st22" points="340.8,191.4 350,186 350,181.4 345.6,178.7 332.7,186.8 				"/>
				<line class="st21" x1="338" y1="188.1" x2="350" y2="181.4"/>
			</g>
			<g>
				<polygon class="st4" points="400.8,225.6 409.7,220.1 409.7,215.5 405.3,212.9 392.4,221 				"/>
				<line class="st3" x1="397.7" y1="222.3" x2="409.7" y2="215.5"/>
			</g>
			<g>
				<polygon class="st4" points="431.2,242.8 440.1,237.4 440.1,232.8 435.8,230.1 422.8,238.2 				"/>
				<line class="st3" x1="428.1" y1="239.6" x2="440.1" y2="232.8"/>
			</g>
			<g>
				<polygon class="st4" points="461.4,260.1 470.5,254.7 470.5,250.1 466.2,247.4 453.3,255.5 				"/>
				<line class="st3" x1="458.5" y1="256.8" x2="470.5" y2="250.1"/>
			</g>
			<g>
				<polygon class="st4" points="491.8,277.4 500.7,271.9 500.7,267.3 496.6,264.7 483.4,272.8 				"/>
				<line class="st3" x1="488.9" y1="274.1" x2="500.7" y2="267.3"/>
			</g>
			<g>
				<polygon class="st4" points="523.5,294.7 532.5,289.2 532.5,284.6 528.1,282 515.2,290.1 				"/>
				<line class="st3" x1="519.1" y1="292.3" x2="532.5" y2="284.6"/>
			</g>
			<g>
				<line class="st3" x1="401.8" y1="224.5" x2="413.9" y2="217.7"/>
			</g>
			<g>
				<polyline class="st0" points="438.4,245.9 526.3,296.4 526.3,301.9 313.7,179.8 313.7,174.1 432.7,242.4 				"/>
				<polygon class="st0" points="526.3,301.9 313.7,179.6 308.4,182.9 521.1,305 				"/>
				<polyline class="st4" points="432.9,242.6 313.7,174.1 308.4,177.2 521.1,299.5 526.3,296.4 437.7,245.5 				"/>
				<polygon class="st0" points="308.4,177.2 521.1,299.5 521.1,305.2 308.4,182.9 				"/>
			</g>
			<g>
				<line class="st21" x1="412.3" y1="190.3" x2="413.9" y2="191"/>
				<polygon class="st0" points="544.3,271.7 331.6,149.4 326.4,152.5 539,274.8 				"/>
				<polyline class="st0" points="414.3,191.4 331.6,143.7 326.4,146.8 539,269.1 544.3,266 419.3,194.3 				"/>
				<polygon class="st4" points="326.4,146.8 539,269.1 539,274.8 326.4,152.5 				"/>
			</g>
			<g>
				<polygon class="st4" points="404.5,207.8 413.7,202.4 413.7,197.1 409.3,194.5 396.4,202.6 				"/>
				<line class="st3" x1="401.6" y1="203.9" x2="413.7" y2="197.1"/>
			</g>
			<g>
				<polygon class="st4" points="435.3,225.3 444.3,219.9 444.3,214.8 440.1,212.2 427,220.3 				"/>
				<line class="st3" x1="432.5" y1="221.6" x2="444.3" y2="214.8"/>
			</g>
			<g>
				<polygon class="st4" points="466.2,243.3 475.4,237.8 475.4,232.6 471,230.1 458.1,238 				"/>
				<line class="st3" x1="463.3" y1="239.6" x2="475.4" y2="232.6"/>
			</g>
			<g>
				<polygon class="st4" points="497,261 506,255.5 506,250.3 501.6,247.6 488.7,255.7 				"/>
				<line class="st3" x1="494" y1="257.1" x2="506" y2="250.3"/>
			</g>
			<g>
				<polygon class="st0" points="525.9,280.2 537,273.5 537,268.2 532.7,265.6 519.8,273.5 				"/>
				<line class="st3" x1="525" y1="275" x2="537" y2="268.2"/>
			</g>
			<g>
				<polygon class="st4" points="371,188.8 380,183.3 380,177.6 375.6,175.2 362.7,183.1 				"/>
				<line class="st3" x1="367.9" y1="184.6" x2="380" y2="177.6"/>
			</g>
			<g>
				<polygon class="st20" points="342.8,172.6 351.7,167.1 351.7,161.5 347.6,159 334.5,166.9 				"/>
				<line class="st21" x1="339.9" y1="168.5" x2="351.7" y2="161.5"/>
			</g>
			<g>
				<polygon class="st0" points="313.7,153.4 526.3,275.7 526.3,281.3 313.7,159 				"/>
				<polygon class="st0" points="526.3,281.3 313.7,159 308.4,156.6 308.4,162.1 521.1,284.4 				"/>
				<line class="st23" x1="419.6" y1="220.5" x2="433.8" y2="228.6"/>
				<polyline class="st0" points="433.1,228.2 521.1,278.9 526.3,275.7 313.7,153.4 308.4,156.6 387.4,201.9 				"/>
				<line class="st3" x1="387.2" y1="201.9" x2="420" y2="220.7"/>
				<line class="st21" x1="427.7" y1="225.1" x2="428.1" y2="225.3"/>
			</g>
			<polygon class="st0" points="521.1,284.4 526.3,281.3 526.3,275.7 521.1,278.9 			"/>
			<polygon class="st0" points="539,274.8 544.3,271.7 544.3,266 539,269.1 			"/>
			<polygon class="st0" points="539.7,294.2 544.9,291.2 544.9,285.5 539.7,288.8 			"/>
			<polygon class="st0" points="521.1,305.2 526.3,302.1 526.3,296.4 521.1,299.5 			"/>
			<g>
				<polygon class="st20" points="338.2,179.4 338.2,188.1 332.7,191.2 327.5,188.1 327.5,173.3 				"/>
				<line class="st21" x1="332.7" y1="176.3" x2="332.7" y2="191.2"/>
			</g>
			<g>
				<polygon class="st0" points="367.5,196.2 367.5,205 362,208.1 357,205.2 357,190.1 				"/>
				<line class="st3" x1="362" y1="193.2" x2="362" y2="208.1"/>
			</g>
			<g>
				<polygon class="st4" points="397.7,213.7 397.7,222.5 392.4,225.6 387.2,222.5 387.2,207.6 				"/>
				<line class="st3" x1="392.4" y1="210.7" x2="392.4" y2="225.6"/>
			</g>
			<g>
				<polygon class="st22" points="427.9,231 427.9,239.8 422.6,242.8 417.4,240 417.4,224.9 				"/>
				<line class="st21" x1="422.6" y1="228" x2="422.6" y2="242.8"/>
			</g>
			<g>
				<polygon class="st0" points="458.1,248.3 458.1,257.1 452.8,260.3 447.6,257.3 447.6,242.2 				"/>
				<line class="st3" x1="452.8" y1="245.2" x2="452.8" y2="260.3"/>
			</g>
			<g>
				<polygon class="st0" points="488.5,265.8 488.5,274.6 483,277.6 478,274.8 478,259.7 				"/>
				<line class="st3" x1="483" y1="262.7" x2="483" y2="277.6"/>
			</g>
			<g>
				<polygon class="st0" points="519.1,283.5 519.1,292.3 513.9,295.3 508.6,292.5 508.6,277.4 				"/>
				<line class="st3" x1="513.9" y1="280.5" x2="513.9" y2="295.3"/>
			</g>
		</g>
		<g>
			<path class="st0" d="M294.3,226.4l-2-1.1c-2.7-1.3-4.7-4.9-4.7-7.8v-39c0-1.3,0.4-2.5,1.3-2.9l0,0l23.6-13.4l0,0
				c0.9-0.4,2-0.2,3.1,0.4l9.1,5.4c3.8,2.2,7.4,6,10,10.5L348,201c2.9,4.9,4.5,10,4.5,14.5v12.9c0,1.3-0.4,2.5-1.1,2.9l0,0l-0.2,0.2
				l0,0l-23.6,13.4l0,0c-0.7,0.4-1.8,0.2-3.1-0.4l-19.6-11.4"/>
			<g>
				<path class="st0" d="M303.9,232.9l20.3,11.8c2.7,1.3,4.7,0.2,4.7-2.7v-12.9c0-4.5-1.6-9.8-4.5-14.5l-13.2-22.5
					c-2.7-4.5-6.2-8.2-10-10.5l-9.1-5.4c-2.7-1.3-4.7-0.2-4.7,2.7v39c0,2.9,2.2,6.2,4.7,7.8l3.8,2.2"/>
				<line class="st3" x1="299" y1="229.7" x2="299.6" y2="230.2"/>
				<path class="st4" d="M295.7,198.1v15.4c0,1.6,1.1,3.1,2.2,3.8l24.7,14.3c1.3,0.9,2.2,0.2,2.2-1.1v-2.2c0-3.3-1.1-7.4-3.3-10.9
					l-10-17.2c-2.2-3.6-4.9-6.5-7.8-8l-5.6-3.3c-1.3-0.9-2.2-0.2-2.2,1.1v1.3"/>
			</g>
			<path class="st4" d="M342.7,196.5l3.6,6.5c2.5,4.2,3.6,8.9,3.8,13.8l0.2,4l-19,10.5l-0.2-4c0-4.9-1.6-9.8-4-14l-14.7-25
				l19.6-11.1l5.8,10.3"/>
			<line class="st3" x1="339.8" y1="191.4" x2="340" y2="191.6"/>
		</g>
	</g>
	<path class="st30" d="M354.5,473.8c2.1-19.4-12-36.8-31.4-38.9c-8.1-0.9-15.9,1.1-22.4,5.1c-7.6-7.9-17.8-13.3-29.6-14.5
		c-26.4-2.8-50,16.3-52.8,42.7s16.3,50,42.7,52.8c13,1.4,25.3-2.5,34.8-10c1.5,0.6,3.1,0.9,4.8,1.1c6.7,0.7,12.9-2,17-6.7
		C336.2,506.4,352.5,492.6,354.5,473.8z"/>
	<path class="st3" d="M338.3,440.2c-7.3-5.2-15.2-5.3-15.2-5.3c-8.1-0.9-15.9,1.1-22.4,5.1c0,0-13.4-15.5-35.8-14.8"/>
	<g>
		<line class="st3" x1="399.9" y1="159.2" x2="400.5" y2="134.8"/>
		<line class="st3" x1="375.9" y1="121.9" x2="376.3" y2="146.1"/>
		<line class="st3" x1="376.3" y1="152.5" x2="376.3" y2="161.6"/>
	</g>
	<g>
		<line class="st3" x1="325" y1="113.1" x2="325.6" y2="89.7"/>
		<line class="st3" x1="300.4" y1="75.8" x2="301.2" y2="100.7"/>
		<line class="st3" x1="301.2" y1="107" x2="301.2" y2="116.5"/>
	</g>
	<g>
		<line class="st3" x1="258.5" y1="153.6" x2="259.1" y2="129.9"/>
		<line class="st3" x1="233.2" y1="118.2" x2="233.5" y2="140.9"/>
		<line class="st3" x1="233.5" y1="147.3" x2="233.7" y2="156.8"/>
	</g>
	<g>
		<circle class="st31" cx="71.9" cy="242.3" r="9.5"/>
		<circle class="st32" cx="556.1" cy="386.7" r="9.5"/>
		<circle class="st33" cx="386.7" cy="473.3" r="9.5"/>
		<circle class="st33" cx="519.1" cy="141.9" r="9.5"/>
		<circle class="st34" cx="387.3" cy="171.4" r="4.4"/>
		<circle class="st32" cx="328.5" cy="521.3" r="6.6"/>
		<circle class="st33" cx="234.8" cy="463.9" r="3.7"/>
		<circle class="st31" cx="390.1" cy="318.9" r="5.1"/>
		<circle class="st34" cx="231" cy="272" r="4.4"/>
		<circle class="st32" cx="245.6" cy="305.2" r="4.4"/>
		<circle class="st33" cx="274.7" cy="6.4" r="4.4"/>
		<circle class="st31" cx="199.1" cy="311.1" r="5.9"/>
		<circle class="st33" cx="91" cy="136.9" r="5.9"/>
	</g>
</g>
</svg>
