<?xml version="1.0" encoding="utf-8"?>
<!-- Generator: Adobe Illustrator 23.0.3, SVG Export Plug-In . SVG Version: 6.00 Build 0)  -->
<svg version="1.1" id="Layer_3" xmlns="http://www.w3.org/2000/svg" xmlns:xlink="http://www.w3.org/1999/xlink" x="0px" y="0px"
	 viewBox="0 0 554 400" style="enable-background:new 0 0 554 400;" xml:space="preserve">
<style type="text/css">
	.st0{fill:none;stroke:#183D54;stroke-width:1.5;stroke-linecap:round;stroke-linejoin:round;stroke-miterlimit:10;}
	.st1{opacity:0.1;fill:#FFFFFF;stroke:#183D54;stroke-width:1.5;stroke-linecap:round;stroke-linejoin:round;stroke-miterlimit:10;}
	.st2{fill:#DCE7F2;stroke:#183D54;stroke-width:1.5;stroke-linecap:round;stroke-linejoin:round;stroke-miterlimit:10;}
	.st3{fill:#FFFFFF;stroke:#183D54;stroke-width:1.5;stroke-linecap:round;stroke-linejoin:round;stroke-miterlimit:10;}
	.st4{fill:none;stroke:#B1CEE6;stroke-width:1.5;stroke-linecap:round;stroke-linejoin:round;stroke-dasharray:3.1862,3.1862;}
	.st5{fill:#2785C5;stroke:#183D54;stroke-miterlimit:10;}
	.st6{display:none;}
	.st7{display:inline;fill:none;stroke:#2768C5;stroke-linecap:round;stroke-linejoin:round;stroke-miterlimit:10;}
	.st8{opacity:0.6;}
	.st9{fill:#183D54;}
	.st10{fill:#2785C5;}
	.st11{fill:none;stroke:#20719E;stroke-width:0.2377;stroke-linecap:round;stroke-linejoin:round;stroke-miterlimit:10;}
	.st12{fill:#D8AE64;stroke:#183D54;stroke-width:1.5;stroke-linecap:round;stroke-linejoin:round;stroke-miterlimit:10;}
	.st13{fill:#F9D093;stroke:#183D54;stroke-width:1.5;stroke-linecap:round;stroke-linejoin:round;stroke-miterlimit:10;}
	.st14{fill:#183D54;stroke:#183D54;stroke-miterlimit:10;}
	.st15{fill:#FFFFFF;stroke:#183D54;stroke-linecap:round;stroke-linejoin:round;stroke-miterlimit:10;}
	.st16{fill:#35D0BA;stroke:#183D54;stroke-width:1.5;stroke-linecap:round;stroke-linejoin:round;stroke-miterlimit:10;}
	.st17{fill:#35EEBA;stroke:#183D54;stroke-width:1.5;stroke-linecap:round;stroke-linejoin:round;stroke-miterlimit:10;}
	.st18{fill:#F3807B;stroke:#183D54;stroke-width:1.5;stroke-linecap:round;stroke-linejoin:round;stroke-miterlimit:10;}
	.st19{fill:#EFA0A0;stroke:#183D54;stroke-width:1.5;stroke-linecap:round;stroke-linejoin:round;stroke-miterlimit:10;}
	.st20{fill:#FFCD3C;stroke:#183D54;stroke-width:1.5;stroke-linecap:round;stroke-linejoin:round;stroke-miterlimit:10;}
	.st21{fill:#FFE8B6;stroke:#183D54;stroke-width:1.5;stroke-linecap:round;stroke-linejoin:round;stroke-miterlimit:10;}
	.st22{fill:none;stroke:#183D54;stroke-linecap:round;stroke-linejoin:round;stroke-miterlimit:10;}
	.st23{opacity:0.5;fill:#F7971D;}
	.st24{fill:none;stroke:#F7971D;stroke-width:1.5;stroke-linecap:round;stroke-linejoin:round;stroke-miterlimit:10;}
	.st25{fill:none;stroke:#F7971D;stroke-width:1.5;stroke-miterlimit:10;}
	.st26{fill:#004680;}
	.st27{fill:#FFFFFF;stroke:#004680;stroke-width:1.5;stroke-linecap:round;stroke-linejoin:round;stroke-miterlimit:10;}
	.st28{clip-path:url(#SVGID_6_);}
	.st29{fill:#FFFFFF;}
	.st30{fill:#A8C9FB;}
	.st31{fill:#FFB5B5;}
	.st32{fill:#E04646;}
	.st33{fill:#FFF3B8;}
	.st34{fill:#DDD247;}
	.st35{fill:#BDFFBF;}
	.st36{fill:#05D305;}
	.st37{fill:none;stroke:#EDEDED;stroke-width:1.5;stroke-linecap:round;stroke-linejoin:round;stroke-miterlimit:10;}
	.st38{fill:#F7D186;stroke:#183D54;stroke-width:1.5;stroke-linecap:round;stroke-linejoin:round;stroke-miterlimit:10;}
	.st39{fill:none;stroke:#EDEDED;stroke-width:1.3232;stroke-linecap:round;stroke-linejoin:round;stroke-miterlimit:10;}
</style>
<polyline class="st0" points="491,224 537.6,201.9 384.2,114.7 "/>
<g id="user_card_4">
	<path class="st1" d="M376.9,344.7l11.3,6.5c4.5,2.6,11.2,2.8,15,0.6l136.2-78.6c3.9-2.2,3.4-6.1-1.1-8.7l-100.1-57.8
		c-4.5-2.6-11.2-2.8-15-0.6L287,284.7c-3.9,2.2-3.4,6.1,1.1,8.7l73,42.2L376.9,344.7z"/>
	<line class="st0" x1="258.1" y1="378.9" x2="349.4" y2="321.3"/>
	<path class="st2" d="M542,261.9v-6c0-0.1,0-0.1,0-0.2v0h0c0-1.7-1.2-3.5-3.7-4.9L438.2,193c-4.5-2.6-11.2-2.8-15-0.6L287,271
		c-1.7,1-2.6,2.3-2.6,3.7h0v6.3h0c0,1.7,1.2,3.5,3.7,5l100.1,57.8c4.5,2.6,11.2,2.8,15,0.6l136.2-78.6
		C541.2,264.7,542,263.3,542,261.9L542,261.9z"/>
	<path class="st3" d="M376.9,330.9l11.3,6.5c4.5,2.6,11.2,2.8,15,0.6l136.2-78.6c3.9-2.2,3.4-6.1-1.1-8.7L438.2,193
		c-4.5-2.6-11.2-2.8-15-0.6L287,271c-3.9,2.2-3.4,6.1,1.1,8.7l73,42.2"/>
	<line class="st3" x1="365.9" y1="324.6" x2="366.9" y2="325.2"/>
	<path class="st0" d="M542,255.7L542,255.7L542,255.7L542,255.7c0-0.2,0-0.5-0.1-0.7c0,0,0,0,0-0.1c0-0.2-0.1-0.4-0.2-0.6
		c0,0,0-0.1,0-0.1c-0.1-0.2-0.1-0.3-0.2-0.5c0,0,0-0.1-0.1-0.1c-0.1-0.2-0.2-0.3-0.3-0.5c0-0.1-0.1-0.1-0.1-0.2
		c-0.1-0.1-0.2-0.3-0.4-0.4c-0.1-0.1-0.1-0.1-0.2-0.2c-0.1-0.1-0.3-0.3-0.4-0.4c-0.1-0.1-0.1-0.1-0.2-0.2c-0.2-0.1-0.3-0.3-0.5-0.4
		c-0.1-0.1-0.1-0.1-0.2-0.2c-0.3-0.2-0.5-0.4-0.8-0.5L438.2,193c-1.1-0.6-2.4-1.1-3.7-1.5c-2-0.5-4.1-0.7-6.1-0.6
		c-2,0.1-3.8,0.6-5.3,1.5L287,271c-0.4,0.2-0.7,0.5-1,0.7c0,0-0.1,0.1-0.1,0.1c-0.3,0.3-0.5,0.5-0.7,0.8c0,0-0.1,0.1-0.1,0.1
		c-0.2,0.3-0.3,0.6-0.4,0.9c0,0,0,0.1,0,0.1c-0.1,0.3-0.2,0.6-0.2,0.9h0v6.3h0c0,1.7,1.2,3.5,3.7,5l100.1,57.8
		c4.5,2.6,11.2,2.9,15,0.6l136.2-78.6c1.8-1,2.6-2.4,2.6-3.8h0v-6C542,255.8,542,255.8,542,255.7z"/>
	<g id="Inner_card_3_">
		<g>
			<g>
				<path class="st4" d="M398.3,249.8l-15.2-8.8c-2.1-1.2-1.8-3.3,0.6-4.6l13.9-8c2.4-1.4,6-1.5,8-0.3l15.2,8.8
					c2.1,1.2,1.8,3.3-0.6,4.6l-13.9,8C404,250.9,400.4,251,398.3,249.8z"/>
			</g>
		</g>
		<g id="vog_wheels_7_">
			<defs>
				<polygon id="SVGID_1_" points="298.9,271.6 355.9,239 459.1,297.9 402.5,330.1 				"/>
			</defs>
			<clipPath id="SVGID_2_">
				<use xlink:href="#SVGID_1_"  style="overflow:visible;"/>
			</clipPath>
			
				<use xlink:href="#SVGID_1_"  style="overflow:visible;fill:none;stroke:#183D54;stroke-width:1.5;stroke-linecap:round;stroke-linejoin:round;stroke-miterlimit:10;"/>
		</g>
		<g>
			<g>
				<path class="st5" d="M358.8,294.5l6.3-3.9c0.2-0.1,0.2-0.3,0-0.5l-5.9-3.8c-0.2-0.2-0.6-0.1-0.8,0l-5.3,4.5
					c-0.1,0.1-0.1,0.3,0.1,0.4l4.9,3.2C358.3,294.6,358.6,294.6,358.8,294.5z"/>
				<path class="st5" d="M357.7,294.7l-4.8-3.1c-0.2-0.2-0.6-0.1-0.8,0l-3.9,3.3c-0.1,0.1-0.1,0.3,0.1,0.4l4,2.6
					c0.2,0.1,0.5,0.2,0.7,0l4.6-2.9C357.9,295,357.9,294.8,357.7,294.7z"/>
				<path class="st5" d="M358.1,295.4l-4.6,2.9c-0.2,0.1-0.2,0.3,0,0.5l4.1,2.6c0.2,0.1,0.5,0.1,0.7,0.1l5.3-2.4
					c0.2-0.1,0.3-0.3,0-0.5l-4.8-3.1C358.7,295.3,358.3,295.3,358.1,295.4z"/>
				<path class="st5" d="M359.3,295.2l4.9,3.2c0.2,0.1,0.5,0.1,0.7,0.1l7.2-3.3c0.2-0.1,0.3-0.3,0-0.5l-5.9-3.8
					c-0.2-0.1-0.5-0.2-0.7,0l-6.3,3.9C359,294.9,359.1,295.1,359.3,295.2z"/>
			</g>
			<g class="st6">
				<path class="st7" d="M360,293.7l5.1-3.2c0.2-0.1,0.2-0.3,0-0.5l-5.9-3.8c-0.2-0.2-0.6-0.1-0.8,0l-4.1,3.5"/>
				<path class="st7" d="M358.1,294.4c0.2,0.1,0.5,0.2,0.7,0"/>
				<path class="st7" d="M354.3,289.8l-1.2,1c-0.1,0.1-0.1,0.3,0.1,0.4l3.2,2.1"/>
				<path class="st7" d="M348.8,294.5l-0.6,0.5c-0.1,0.1-0.1,0.3,0.1,0.4l4,2.6c0.2,0.1,0.5,0.2,0.7,0l4.6-2.9
					c0.2-0.1,0.2-0.3,0-0.5l-4.8-3.1c-0.2-0.2-0.6-0.1-0.8,0l-1.4,1.2"/>
				<path class="st7" d="M356.9,296.2l-3.4,2.1c-0.2,0.1-0.2,0.3,0,0.5l4.1,2.6c0.2,0.1,0.5,0.1,0.7,0.1l5.3-2.4
					c0.2-0.1,0.3-0.3,0-0.5l-1.7-1.1"/>
				<line class="st7" x1="359.3" y1="295.2" x2="361.2" y2="296.4"/>
				<path class="st7" d="M359.2,294.7c-0.2,0.1-0.2,0.3,0,0.5"/>
				<line class="st7" x1="360.4" y1="294" x2="359.2" y2="294.7"/>
				<path class="st7" d="M360.4,294"/>
				<path class="st7" d="M362.8,292.5"/>
				<line class="st7" x1="363.9" y1="291.9" x2="362.8" y2="292.5"/>
				<path class="st7" d="M363.9,291.9"/>
				<path class="st7" d="M364.9,291.2"/>
				<path class="st7" d="M362.7,297.5l1.5,1c0.2,0.1,0.5,0.1,0.7,0.1l7.2-3.3c0.2-0.1,0.3-0.3,0-0.5l-5.9-3.8
					c-0.2-0.1-0.5-0.2-0.7,0l-0.6,0.4"/>
				<path class="st7" d="M362.7,297.5"/>
				<path class="st7" d="M361.2,296.4"/>
			</g>
			<g class="st8">
				<path class="st9" d="M363,284.9 M364.8,286.1 M363,284.9l-0.8-0.5l0.8-0.5l6.2,1.7l0,0l-2.6-4l0.7-0.5l5.5,3.6l-0.6,0.4
					l-4.5-2.9l0,0l2.7,4l-0.3,0.2l-6.3-1.8l0,0l4.5,2.9l-0.6,0.4l-2.9-1.9"/>
				<g>
					<path class="st9" d="M369.7,279.9c0.1,0.1,0.2,0.2,0.2,0.3c0,0.1,0,0.2-0.2,0.2c-0.1,0.1-0.2,0.1-0.4,0.1c-0.1,0-0.3,0-0.4-0.1
						c-0.1-0.1-0.2-0.2-0.2-0.3c0-0.1,0-0.2,0.1-0.2c0.1-0.1,0.2-0.1,0.4-0.1C369.5,279.8,369.6,279.8,369.7,279.9z M374.2,282.9
						 M373.2,282.3 M374,283.5l-3.6-2.3l0.6-0.4l2.1,1.4l1,0.7l0.7,0.5l-0.3,0.2l-0.3,0.2L374,283.5 M374,283.5"/>
				</g>
				<g>
					<path class="st9" d="M373.3,280.1c-0.1-0.5,0.2-0.9,0.8-1.2c0.3-0.2,0.7-0.3,1-0.4l0.6,0.4c-0.5,0-0.9,0.1-1.2,0.3
						c-0.4,0.2-0.5,0.5-0.5,0.9c0.1,0.3,0.3,0.7,0.8,0.9c0.5,0.3,0.9,0.5,1.4,0.5c0.5,0,0.9-0.1,1.3-0.3c0.3-0.2,0.5-0.5,0.5-0.8
						l0.6,0.4c-0.1,0.3-0.3,0.6-0.7,0.8c-0.3,0.2-0.7,0.3-1.1,0.4c-0.4,0.1-0.9,0-1.3-0.1c-0.4-0.1-0.9-0.3-1.2-0.5
						C373.4,280.7,373.3,280.1,373.3,280.1z"/>
				</g>
				<g>
					<path class="st9" d="M378.7,276.9c-0.2,0-0.4,0.1-0.6,0.2c-0.3,0.2-0.3,0.4-0.2,0.6c0.1,0.3,0.4,0.5,0.8,0.8l2,1.3l-0.6,0.4
						l-3.9-2.6l0.6-0.4l0.8,0.5l0,0c-0.2-0.2-0.3-0.4-0.3-0.6c0-0.2,0.1-0.4,0.3-0.5c0.1-0.1,0.3-0.2,0.4-0.2L378.7,276.9z"/>
				</g>
				<path class="st9" d="M380.4,274.9c0.5-0.3,1.1-0.5,1.8-0.4c0.7,0,1.3,0.3,2,0.7c0.6,0.4,1,0.8,1,1.3c0.1,0.4-0.2,0.8-0.7,1.2
					c-0.5,0.3-1.1,0.5-1.8,0.4c-0.7,0-1.3-0.3-1.9-0.6C380.6,277.4,378.3,276.1,380.4,274.9 M380.4,274.9 M383.9,277.3
					c0.6-0.4,0.5-0.8,0.5-0.8c-0.1-0.3-0.3-0.6-0.8-0.9c-0.5-0.3-1-0.5-1.4-0.5c-0.5,0-0.9,0-1.3,0.3c-0.4,0.2-0.5,0.5-0.5,0.8
					c0.1,0.3,0.3,0.6,0.8,0.9c0.5,0.3,0.9,0.5,1.4,0.5C383.1,277.6,383.5,277.5,383.9,277.3 M383.9,277.3"/>
				<g>
					<path class="st9" d="M386.1,273.6c0.5-0.1,0.9-0.2,1.2-0.1 M388.4,273.9c0.9,0.7-0.3,1.5-0.3,1.5c-0.3,0.2-0.7,0.3-1.1,0.4
						l-0.7-0.4c0.5,0,1-0.1,1.3-0.3c0.8-0.5,0.1-0.9-0.2-0.9c-0.4-0.1-0.6,0-1.1,0.1c-1.5,0.3-2-0.2-2-0.2c-0.3-0.2-0.5-0.5-0.5-0.8
						c0-0.3,0.2-0.6,0.6-0.8c0.3-0.2,0.6-0.3,1-0.4l0.6,0.4c-0.4,0-0.8,0.1-1.1,0.3c-0.2,0.1-0.3,0.2-0.3,0.4c0,0.1,0.1,0.3,0.2,0.4
						c0.2,0.1,0.4,0.2,0.5,0.2c0.2,0,0.5,0,0.9-0.1C387.1,273.5,387.7,273.3,388.4,273.9z"/>
				</g>
				<g>
					<path class="st9" d="M391.7,270.4c0.6,0.4,1,0.8,1,1.3c0.1,0.4-0.2,0.8-0.7,1.2c-0.5,0.3-1.1,0.5-1.8,0.4
						c-0.7,0-1.3-0.3-1.9-0.6c-0.6-0.4-1-0.9-1.1-1.3c-0.1-0.4,0.2-0.9,0.8-1.2c0.5-0.3,1.1-0.5,1.8-0.4
						C390.4,269.8,391.1,270,391.7,270.4z M391.2,270.8c-0.5-0.3-1-0.5-1.4-0.5c-0.5,0-0.9,0-1.3,0.3c-0.4,0.2-0.5,0.5-0.5,0.8
						c0.1,0.3,0.3,0.6,0.8,0.9c0.5,0.3,0.9,0.5,1.4,0.5c0.5,0,0.9-0.1,1.3-0.3c0.4-0.2,0.5-0.5,0.5-0.8
						C391.9,271.4,391.7,271.1,391.2,270.8z"/>
				</g>
				<g>
					<path class="st9" d="M390.3,266.4c0.2-0.1,0.3-0.2,0.5-0.2l0.6,0.4c-0.2,0-0.3,0.1-0.5,0.2c-0.4,0.3-0.3,0.6,0.2,0.9l0.6,0.4
						l0.8-0.5l0.5,0.3l-0.8,0.5l0.9,0.6l2.5,1.6l-0.6,0.4l-3.4-2.2l-0.6,0.4l-0.5-0.3l0.6-0.4l-0.6-0.4c-0.4-0.3-0.6-0.5-0.6-0.8
						C389.8,267.1,389.8,266.7,390.3,266.4z"/>
				</g>
				<path class="st9" d="M395.7,268l-0.8-0.5 M393.7,267.4l-0.5-0.3l0.6-0.4l-1-0.6l0.4-0.5l1.2,0.8l0.9-0.6l0.5,0.3l-0.9,0.6
					l2.2,1.4c0.3,0.2,0.5,0.3,0.7,0.3c0.2,0,0.4,0,0.6-0.1c0.1-0.1,0.2-0.2,0.2-0.3l0.5,0.3c-0.1,0.1-0.2,0.3-0.4,0.4
					c-0.6,0.4-1.3,0.3-2.1-0.2l-0.9-0.6l-1.4-0.9l-0.3,0.2L393.7,267.4"/>
			</g>
			<g>
				<g>
					<path class="st10" d="M371.9,288.4l-0.4-0.6l0.7-0.4l8,2.5l-0.7,0.4l-2.2-0.7l-2.3,1.4l1.1,1.4l-0.7,0.4l-0.4-0.6 M372.2,288.8
						 M372.9,289.8l-0.7-1 M372.9,289.8 M373.8,290.9 M374.3,291.6l-0.5-0.7 M374.8,292.3l-0.5-0.7 M376.3,289.4l-3.7-1.2l0,0
						l1.8,2.4L376.3,289.4z"/>
				</g>
				<path class="st10" d="M378.7,285.4l0.9-0.6 M377.3,286.3l0.6-0.4 M379.6,284.8l0.2,0.1l1.2,3.7l2.3-1.4l0.6,0.4l-3.2,2l-0.2-0.1
					l-1.1-3.7l-2.1,1.3l-0.6-0.4l0.6-0.4"/>
				<g>
					<path class="st10" d="M386.4,284.9c-0.1-0.3-0.3-0.5-0.7-0.8l-2.4-1.6l0.6-0.4l4.2,2.7l-0.6,0.4l-0.7-0.4l0,0
						c0.3,0.5,0.1,0.9-0.4,1.2c-0.9,0.6-2,0.5-3.2-0.3l-2.5-1.6l0.6-0.4l1.5,1l1.1,0.7c0.4,0.3,1.1,0.4,1.6,0.3
						c0.2-0.1,0.5-0.2,0.6-0.4C386.5,285,386.4,284.9,386.4,284.9z M383.3,285.1l0.9,0.6"/>
				</g>
				<g>
					<path class="st10" d="M388.2,280.4c-0.2,0-0.4,0.1-0.6,0.2c-0.3,0.2-0.4,0.4-0.2,0.7c0.1,0.3,0.4,0.6,0.8,0.9l2.1,1.4l-0.6,0.4
						l-4.2-2.7l0.6-0.4l0.9,0.6l0,0c-0.2-0.2-0.3-0.5-0.3-0.7c0-0.2,0.1-0.4,0.4-0.5c0.2-0.1,0.3-0.2,0.4-0.2L388.2,280.4z"/>
				</g>
				<g>
					<path class="st10" d="M391.6,280.3l-0.5,0.3c0.5,0.3,1,0.5,1.4,0.5c0.5,0,0.9-0.1,1.3-0.3c0.4-0.3,0.7-0.6,0.7-1l0.6,0.4
						c-0.1,0.4-0.4,0.8-0.9,1.1c-0.5,0.3-1.2,0.5-1.9,0.4c-0.7-0.1-1.4-0.3-2.1-0.8c-0.4-0.3-0.7-0.6-0.9-0.9
						c-0.2-0.3-0.2-0.6-0.2-0.9c0.1-0.3,0.3-0.5,0.6-0.7c0.5-0.3,1.1-0.4,1.7-0.4c0.6,0.1,1.3,0.3,1.9,0.7l0.4,0.2l-1.3,0.8
						 M392.6,278.9c-0.4-0.2-0.8-0.4-1.2-0.4c-0.4,0-0.7,0-1,0.2c-0.3,0.2-0.4,0.4-0.4,0.7c0,0.3,0.2,0.5,0.5,0.8L392.6,278.9z"/>
				</g>
			</g>
			<g>
				<path class="st11" d="M371.9,288.4l-0.4-0.6l0.7-0.4l8,2.5l-0.7,0.4l-2.2-0.7l-2.3,1.4l1.1,1.4l-0.7,0.4l-0.4-0.6 M372.2,288.8
					 M372.9,289.8l-0.7-1 M372.9,289.8 M373.8,290.9 M374.3,291.6l-0.5-0.7 M374.8,292.3l-0.5-0.7 M376.3,289.4l-3.7-1.2l0,0
					l1.8,2.4L376.3,289.4z"/>
				<path class="st11" d="M378.7,285.4l0.9-0.6 M377.3,286.3l0.6-0.4 M379.6,284.8l0.2,0.1l1.2,3.7l2.3-1.4l0.6,0.4l-3.2,2l-0.2-0.1
					l-1.1-3.7l-2.1,1.3l-0.6-0.4l0.6-0.4"/>
				<path class="st11" d="M386.4,284.9c-0.1-0.3-0.3-0.5-0.7-0.8l-2.4-1.6l0.6-0.4l4.2,2.7l-0.6,0.4l-0.7-0.4l0,0
					c0.3,0.5,0.1,0.9-0.4,1.2c-0.9,0.6-2,0.5-3.2-0.3l-2.5-1.6l0.6-0.4l1.5,1 M384.9,285.9c0.4,0,0.7,0,1-0.2 M383.3,285.1l0.9,0.6"
					/>
				<path class="st11" d="M388.2,280.4c-0.2,0-0.4,0.1-0.6,0.2c-0.3,0.2-0.4,0.4-0.2,0.7c0.1,0.3,0.4,0.6,0.8,0.9l2.1,1.4l-0.6,0.4
					l-4.2-2.7l0.6-0.4l0.9,0.6l0,0c-0.2-0.2-0.3-0.5-0.3-0.7c0-0.2,0.1-0.4,0.4-0.5c0.2-0.1,0.3-0.2,0.4-0.2L388.2,280.4z"/>
				<path class="st11" d="M391.6,280.3l-0.5,0.3c0.5,0.3,1,0.5,1.4,0.5c0.5,0,0.9-0.1,1.3-0.3c0.4-0.3,0.7-0.6,0.7-1l0.6,0.4
					c-0.1,0.4-0.4,0.8-0.9,1.1c-0.5,0.3-1.2,0.5-1.9,0.4c-0.7-0.1-1.4-0.3-2.1-0.8c-0.4-0.3-0.7-0.6-0.9-0.9
					c-0.2-0.3-0.2-0.6-0.2-0.9c0.1-0.3,0.3-0.5,0.6-0.7c0.5-0.3,1.1-0.4,1.7-0.4c0.6,0.1,1.3,0.3,1.9,0.7l0.4,0.2l-1.3,0.8
					 M392.6,278.9c-0.4-0.2-0.8-0.4-1.2-0.4c-0.4,0-0.7,0-1,0.2c-0.3,0.2-0.4,0.4-0.4,0.7c0,0.3,0.2,0.5,0.5,0.8L392.6,278.9z"/>
			</g>
		</g>
		<g id="app_icon_26_">
			<path class="st12" d="M415.9,259.8l10.4,6c2.1,1.2,5.6,1,8-0.3l13.9-8c1.4-0.8,2-1.8,2-2.8v-6.4c0.1-0.8-0.4-1.6-1.4-2.2
				l-15.2-8.8c-2.1-1.2-5.6-1-8,0.3l-13.9,8c-1.3,0.7-2,1.7-2,2.6h0v6.7h0c0,0.8,0.4,1.5,1.4,2.1l1.1,0.6"/>
			<line class="st2" x1="414.1" y1="258.8" x2="414.2" y2="258.9"/>
			<path class="st13" d="M434.7,258.5l-0.4,0.3c-2.4,1.4-6,1.5-8,0.3l-15.2-8.8c-2.1-1.2-1.8-3.3,0.6-4.6l13.9-8
				c2.4-1.4,6-1.5,8-0.3l15.2,8.8c2.1,1.2,1.8,3.3-0.6,4.6l-10.8,6.2"/>
			<g>
				<path class="st0" d="M418.9,250c-0.6-2.3,0.6-4.8,3.6-6.6c4.6-2.9,11.6-3,15.7-0.4c4.1,2.7,3.7,7.2-0.9,10
					c-4.6,2.9-11.6,3-15.7,0.4"/>
				<g>
					
						<ellipse transform="matrix(0.9955 -9.476624e-02 9.476624e-02 0.9955 -21.8829 41.4385)" class="st9" cx="425.3" cy="251.1" rx="1.4" ry="0.9"/>
					
						<ellipse transform="matrix(0.9955 -9.476624e-02 9.476624e-02 0.9955 -21.7422 42.1765)" class="st9" cx="433.2" cy="250" rx="1.4" ry="0.9"/>
					
						<ellipse transform="matrix(0.9955 -9.476624e-02 9.476624e-02 0.9955 -21.4031 41.5958)" class="st9" cx="427.2" cy="246.1" rx="1.4" ry="0.9"/>
					
						<ellipse transform="matrix(0.9955 -9.476624e-02 9.476624e-02 0.9955 -21.4846 42.0132)" class="st9" cx="431.6" cy="247.2" rx="1.4" ry="0.9"/>
					<g>
						<path class="st14" d="M436,250.2c-0.6-0.4-0.5-1,0.1-1.4c0.6-0.4,1.6-0.4,2.1,0c0.6,0.4,0.5,1-0.1,1.4
							C437.5,250.6,436.6,250.6,436,250.2z M438,249c-0.4-0.3-1.2-0.3-1.7,0c-0.5,0.3-0.5,0.8-0.1,1.1s1.2,0.3,1.7,0
							C438.4,249.7,438.5,249.3,438,249z"/>
					</g>
					<g>
						<path class="st14" d="M433.4,246.1c-0.6-0.4-0.5-1,0.1-1.4c0.6-0.4,1.6-0.4,2.1,0c0.6,0.4,0.5,1-0.1,1.4
							S434,246.4,433.4,246.1z M435.4,244.8c-0.4-0.3-1.2-0.3-1.7,0c-0.5,0.3-0.5,0.8-0.1,1.1s1.2,0.3,1.7,0
							S435.9,245.1,435.4,244.8z"/>
					</g>
					<g>
						<path class="st14" d="M426.9,244.3c-0.6-0.4-0.5-1,0.1-1.4c0.6-0.4,1.6-0.4,2.1,0c0.6,0.4,0.5,1-0.1,1.4
							C428.5,244.7,427.5,244.7,426.9,244.3z M429,243.1c-0.4-0.3-1.2-0.3-1.7,0c-0.5,0.3-0.5,0.8-0.1,1.1c0.4,0.3,1.2,0.3,1.7,0
							C429.3,243.8,429.4,243.4,429,243.1z"/>
					</g>
				</g>
				<line class="st15" x1="425.3" y1="251.1" x2="427.2" y2="246.1"/>
				<line class="st15" x1="425.3" y1="251.1" x2="431.6" y2="247.2"/>
				<line class="st15" x1="433.2" y1="250" x2="425.1" y2="251.1"/>
			</g>
		</g>
		<g id="app_icon_25_">
			<path class="st16" d="M452.4,214.5c0.1-0.8-0.4-1.6-1.4-2.2l-15.2-8.8c-2.1-1.2-5.6-1-8,0.3l-13.9,8c-1.3,0.7-2,1.7-2,2.6h0v6.7
				h0c0,0.8,0.4,1.5,1.4,2.1l15.2,8.8c2.1,1.2,5.6,1,8-0.3l13.9-8c1.4-0.8,2-1.8,2-2.8V214.5z"/>
			<path class="st17" d="M419.4,220l-6-3.5c-2.1-1.2-1.8-3.3,0.6-4.6l13.9-8c2.4-1.4,6-1.5,8-0.3l15.2,8.8c2.1,1.2,1.8,3.3-0.6,4.6
				l-13.9,8c-2.4,1.4-6,1.5-8,0.3l-4.4-2.5"/>
			<line class="st3" x1="422.2" y1="221.6" x2="421.9" y2="221.5"/>
			<g>
				<path class="st0" d="M441.5,217.4c-0.6,0.6-1.3,1.3-2.2,1.8c-4.5,2.7-11.4,2.7-15.3,0c-3.9-2.7-3.5-7,1-9.7s11.4-2.7,15.3,0
					c2,1.3,2.8,3.1,2.7,4.9"/>
				<path class="st0" d="M426.9,212.9c-2.1,1-3.8,2.5-4.8,4.6"/>
				<path class="st0" d="M426.9,212.9"/>
				<path class="st0" d="M441.5,210.4c0,0-6.1-0.4-11.6,1.3"/>
				<path class="st0" d="M423.7,210.4c0,0-0.6,7.4,13.1,9.9"/>
				<path class="st0" d="M439.9,209.1c0,0-10.3,5-6.1,11.9"/>
				<path class="st0" d="M428,212.4c0,0,0.2-0.1,0.3-0.1"/>
			</g>
		</g>
		<g id="app_icon_24_">
			<path class="st18" d="M480.4,230.6c0.1-0.8-0.4-1.6-1.4-2.2l-15.2-8.8c-2.1-1.2-5.6-1-8,0.3l-13.9,8c-1.3,0.7-2,1.7-2,2.6h0v6.7
				h0c0,0.8,0.4,1.5,1.4,2.1l15.2,8.8c2.1,1.2,5.6,1,8-0.3l13.9-8c1.4-0.8,2-1.8,2-2.8V230.6z"/>
			<path class="st19" d="M458.3,242c-0.6-0.1-1.2-0.3-1.7-0.6l-15.2-8.8c-2.1-1.2-1.8-3.3,0.6-4.6l13.9-8c2.4-1.4,6-1.5,8-0.3
				l15.2,8.8c2.1,1.2,1.8,3.3-0.6,4.6l-13.9,8c-0.9,0.5-2.1,0.9-3.3,1"/>
			<path class="st3" d="M459.8,242.2C459.7,242.2,459.7,242.2,459.8,242.2"/>
			<g>
				<path class="st0" d="M465.8,224.3c1,0.3,2,0.7,2.8,1.3c4.1,2.7,3.7,7.1-0.8,10s-11.6,3-15.7,0.3c-4.1-2.7-3.7-7.1,0.8-10
					c1.5-0.9,3.3-1.6,5.1-1.9"/>
				<path class="st0" d="M462.6,223.7c1.1,0.1,2.2,0.3,3.2,0.6"/>
				<path class="st0" d="M459.5,223.8c0.5-0.1,1-0.1,1.5-0.1"/>
				<g>
					
						<ellipse transform="matrix(0.5018 -0.865 0.865 0.5018 33.6833 515.2635)" class="st9" cx="464.1" cy="228.4" rx="1.4" ry="4.7"/>
					<path class="st9" d="M459.1,226.6l-1.6,1c0,0,0,1.6,2.8,3.4c2.7,1.8,5,1.6,5,1.6l1.6-1c0,0-2.8-0.4-4.8-1.7
						S459.1,226.6,459.1,226.6z"/>
					<path class="st9" d="M456.6,228.2l-1.6,1c0,0,0,1.6,2.8,3.4s5,1.6,5,1.6l1.6-1c0,0-2.8-0.4-4.8-1.7
						C457.5,230.1,456.6,228.2,456.6,228.2z"/>
					<path class="st9" d="M454.2,229.7l-1.6,1c0,0,0,1.6,2.8,3.4c2.7,1.8,5,1.6,5,1.6l1.6-1c0,0-2.8-0.4-4.8-1.7
						C455,231.7,454.2,229.7,454.2,229.7z"/>
				</g>
			</g>
		</g>
		<g id="app_icon_23_">
			<path class="st20" d="M472.6,257.4l12.3,7.1c2.1,1.2,5.6,1,8-0.3l13.9-8c1.4-0.8,2-1.8,2-2.8V247c0.1-0.8-0.4-1.6-1.4-2.2
				l-15.2-8.8c-2.1-1.2-5.6-1-8,0.3l-13.9,8c-1.3,0.7-2,1.7-2,2.6h0v6.7h0c0,0.8,0.4,1.5,1.4,2.1l0.7,0.4"/>
			<path class="st21" d="M493.1,257.3l-0.3,0.1c-2.4,1.4-6,1.5-8,0.3l-15.2-8.8c-2.1-1.2-1.8-3.3,0.6-4.6l13.9-8
				c2.4-1.4,6-1.5,8-0.3l15.2,8.8c2.1,1.2,1.8,3.3-0.6,4.6l-9.5,5.5"/>
			<g id="Procesor_5_">
				<g>
					<g>
						<line class="st0" x1="492.6" y1="240.2" x2="490.7" y2="241.4"/>
						<line class="st0" x1="495.5" y1="242.1" x2="493.6" y2="243.3"/>
						<line class="st0" x1="498.3" y1="243.9" x2="496.3" y2="245.1"/>
					</g>
				</g>
				<g>
					<g>
						<line class="st0" x1="480.3" y1="247.9" x2="478.3" y2="249.1"/>
						<line class="st0" x1="483.2" y1="249.8" x2="481.2" y2="251"/>
						<line class="st0" x1="485.9" y1="251.6" x2="484" y2="252.8"/>
					</g>
				</g>
				<g>
					<g>
						<line class="st0" x1="499" y1="248.6" x2="497.3" y2="247.4"/>
						<line class="st0" x1="495.8" y1="250.6" x2="494.1" y2="249.5"/>
						<line class="st0" x1="492.8" y1="252.5" x2="491" y2="251.3"/>
					</g>
				</g>
				<g>
					<g>
						<line class="st0" x1="488" y1="241.4" x2="486.2" y2="240.2"/>
						<line class="st0" x1="484.7" y1="243.4" x2="483" y2="242.3"/>
						<line class="st0" x1="481.7" y1="245.3" x2="480" y2="244.2"/>
					</g>
				</g>
				<path class="st0" d="M487.5,252.6l-7.9-5.1c-0.4-0.3-0.4-0.7,0.1-1l8.8-5.5c0.4-0.3,1.1-0.3,1.5,0l7.9,5.1
					c0.4,0.3,0.4,0.7-0.1,1l-8.8,5.5C488.6,252.9,487.9,252.9,487.5,252.6z"/>
				<path class="st0" d="M488.2,249.5l-3.6-2.3c-0.2-0.1-0.2-0.3,0-0.5l4-2.5c0.2-0.1,0.6-0.1,0.7,0l3.6,2.3c0.2,0.1,0.2,0.3,0,0.5
					l-4,2.5C488.7,249.6,488.4,249.6,488.2,249.5z"/>
			</g>
		</g>
		<g>
			<g>
				<path class="st4" d="M455.6,279.8l-15.2-8.8c-2.1-1.2-1.8-3.3,0.6-4.6l13.9-8c2.4-1.4,6-1.5,8-0.3l15.2,8.8
					c2.1,1.2,1.8,3.3-0.6,4.6l-13.9,8C461.3,280.8,457.7,281,455.6,279.8z"/>
			</g>
		</g>
	</g>
</g>
<g id="user_card_3">
	<polyline class="st0" points="236.5,78.1 314.6,30.2 428.4,96.1 349.6,142.1 	"/>
	<path class="st1" d="M240.7,266.3l11.3,6.5c4.5,2.6,11.2,2.8,15,0.6l136.2-78.6c3.9-2.2,3.4-6.1-1.1-8.7L302,128.4
		c-4.5-2.6-11.2-2.8-15-0.6l-136.2,78.6c-3.9,2.2-3.4,6.1,1.1,8.7l73,42.2L240.7,266.3z"/>
	<polyline class="st0" points="202.8,236.9 106.8,291.6 258.1,378.9 	"/>
	<path class="st2" d="M405.8,183.5v-6c0-0.1,0-0.1,0-0.2v0h0c0-1.7-1.2-3.5-3.7-4.9L302,114.6c-4.5-2.6-11.2-2.8-15-0.6l-136.2,78.6
		c-1.7,1-2.6,2.3-2.6,3.7h0v6.3h0c0,1.7,1.2,3.5,3.7,5L252,265.3c4.5,2.6,11.2,2.8,15,0.6l136.2-78.6
		C405,186.3,405.8,185,405.8,183.5L405.8,183.5z"/>
	<path class="st3" d="M240.7,252.6l11.3,6.5c4.5,2.6,11.2,2.8,15,0.6l136.2-78.6c3.9-2.2,3.4-6.1-1.1-8.7L302,114.6
		c-4.5-2.6-11.2-2.8-15-0.6l-136.2,78.6c-3.9,2.2-3.4,6.1,1.1,8.7l73,42.2"/>
	<line class="st3" x1="229.7" y1="246.2" x2="230.7" y2="246.8"/>
	<path class="st0" d="M405.8,177.4L405.8,177.4L405.8,177.4L405.8,177.4c0-0.2,0-0.5-0.1-0.7c0,0,0,0,0-0.1c0-0.2-0.1-0.4-0.2-0.6
		c0,0,0-0.1,0-0.1c-0.1-0.2-0.1-0.3-0.2-0.5c0,0,0-0.1-0.1-0.1c-0.1-0.2-0.2-0.3-0.3-0.5c0-0.1-0.1-0.1-0.1-0.2
		c-0.1-0.1-0.2-0.3-0.4-0.4c-0.1-0.1-0.1-0.1-0.2-0.2c-0.1-0.1-0.3-0.3-0.4-0.4c-0.1-0.1-0.1-0.1-0.2-0.2c-0.2-0.1-0.3-0.3-0.5-0.4
		c-0.1-0.1-0.1-0.1-0.2-0.2c-0.3-0.2-0.5-0.4-0.8-0.5L302,114.6c-1.1-0.6-2.4-1.1-3.7-1.5c-2-0.5-4.1-0.7-6.1-0.6
		c-2,0.1-3.8,0.6-5.3,1.5l-136.2,78.6c-0.4,0.2-0.7,0.5-1,0.7c0,0-0.1,0.1-0.1,0.1c-0.3,0.3-0.5,0.5-0.7,0.8c0,0-0.1,0.1-0.1,0.1
		c-0.2,0.3-0.3,0.6-0.4,0.9c0,0,0,0.1,0,0.1c-0.1,0.3-0.2,0.6-0.2,0.9h0v6.3h0c0,1.7,1.2,3.5,3.7,5L252,265.3
		c4.5,2.6,11.2,2.9,15,0.6l136.2-78.6c1.8-1,2.6-2.4,2.6-3.8h0v-6C405.8,177.5,405.8,177.4,405.8,177.4z"/>
	<g id="Inner_card_2_">
		<path class="st0" d="M243.2,177.5"/>
		<g id="vog_wheels_5_">
			<defs>
				<polygon id="SVGID_3_" points="162.7,193.3 219.7,160.7 322.9,219.5 266.3,251.7 				"/>
			</defs>
			<clipPath id="SVGID_4_">
				<use xlink:href="#SVGID_3_"  style="overflow:visible;"/>
			</clipPath>
			
				<use xlink:href="#SVGID_3_"  style="overflow:visible;fill:none;stroke:#183D54;stroke-width:1.5;stroke-linecap:round;stroke-linejoin:round;stroke-miterlimit:10;"/>
		</g>
		<g>
			<g>
				<path class="st22" d="M243.9,193.4c0.3,0.5,0.7,0.9,1.4,1.3c0.8,0.5,1.8,0.8,3,0.9c1.2,0.1,2.4-0.1,3.8-0.5l2.7-0.9
					c0.9-0.3,1.7-0.4,2.2-0.4c0.5,0,1,0.1,1.5,0.4c0.6,0.4,0.9,0.8,0.8,1.4c-0.1,0.5-0.6,1.1-1.5,1.7c-0.5,0.4-1.2,0.7-1.8,1
					c-0.7,0.3-1.4,0.5-2.1,0.7c-0.2,0.1-0.4,0.1-0.5,0.1c-0.1,0-0.2,0.1-0.3,0.1c-0.2,0.1-0.1,0.3,0.2,0.5l0.8,0.5
					c0.1,0.1,0.3,0.2,0.5,0.2c0.2,0.1,0.5,0,0.9,0"/>
				<path class="st22" d="M243.6,192c-0.1,0.5,0,1,0.3,1.4"/>
				<path class="st22" d="M245.7,189.2c-0.6,0.4-1.1,0.9-1.5,1.3"/>
				<path class="st22" d="M247.8,188.1c-0.4,0.1-0.7,0.3-1.1,0.5c-0.4,0.2-0.7,0.4-1,0.6"/>
				<path class="st22" d="M260.4,192.5c-0.8-0.5-1.8-0.8-2.8-0.9c-1.1-0.1-2.3,0.1-3.6,0.5l-2.7,0.9c-1,0.3-1.8,0.5-2.4,0.5
					c-0.6,0-1.1-0.1-1.5-0.4c-0.6-0.4-0.9-0.8-0.7-1.3c0.1-0.5,0.6-1,1.4-1.5c1-0.7,2.1-1.1,3.3-1.4c0.4-0.1,0.6-0.2,0.7-0.2
					c0.2-0.1,0.1-0.3-0.2-0.5l-0.7-0.4c-0.2-0.1-0.4-0.2-0.6-0.2c-0.2,0-0.5,0-0.8,0"/>
				<path class="st22" d="M261.9,193.8c-0.3-0.5-0.8-0.9-1.5-1.3"/>
				<path class="st22" d="M261.6,196.9c0.4-0.5,0.6-1,0.7-1.6"/>
				<path class="st22" d="M255.4,200.3c0.6-0.1,1.3-0.3,2.2-0.7c0.9-0.4,1.7-0.8,2.4-1.3c0.7-0.5,1.3-1,1.7-1.5"/>
				<path class="st22" d="M215.5,209.8c-0.5,0.6-0.8,1.1-1,1.6c-0.1,0.2-0.1,0.3-0.1,0.5c0,0.1,0.2,0.2,0.5,0.4l0.8,0.5
					c0.3,0.2,0.6,0.2,0.8,0.1c0,0,0.1-0.1,0.2-0.2c0.1-0.1,0.2-0.2,0.3-0.4c0.3-0.5,0.6-0.9,0.9-1.3c0.4-0.4,0.8-0.8,1.3-1.1
					c1.1-0.7,2-1.1,3-1.1c0.9,0,2,0.4,3.2,1.1l1.2,0.7c-0.7,0.3-1.3,0.6-1.9,0.9 M217.4,208.2c-0.8,0.5-1.4,1-1.8,1.6 M220.3,206.8
					c-0.7,0.2-1.3,0.4-2,0.8 M224.5,211.4c-0.6,0.3-1.1,0.6-1.6,0.9c-1.4,0.9-2.1,1.9-2.2,3c0,1.1,0.6,2,2,2.8
					c1.3,0.8,2.6,1.1,4,1.1c1.4,0,2.7-0.4,3.9-1.2c1.6-1.1,2.3-2.4,1.9-4c0.5,0.1,0.9,0.2,1.3,0.3c0.4,0.1,0.8,0.1,1.2,0.1
					c0.3,0,0.5,0,0.6-0.1c0.1-0.1,0.2-0.2,0.2-0.3l0.2-1c0-0.2,0-0.4-0.2-0.5c-0.1-0.1-0.3-0.1-0.5-0.2c-0.6-0.1-1.1-0.2-1.6-0.4
					c-0.5-0.1-1-0.4-1.6-0.7l-5.1-3.1c-1.7-1-3.4-1.6-5-1.6 M223.8,214.8c0-0.2,0.1-0.5,0.3-0.7 M224.9,216.4
					c-0.8-0.5-1.2-1-1.1-1.5 M229.1,216.4c-0.6,0.4-1.3,0.6-2,0.6 M224.1,214.1c0.2-0.3,0.6-0.7,1.1-1c0.4-0.3,0.9-0.5,1.4-0.8
					c0.5-0.3,1-0.5,1.5-0.7l0.7,0.4c0.5,0.3,0.9,0.6,1.2,0.9c0.3,0.3,0.5,0.6,0.5,0.9c0.1,0.5,0,1-0.3,1.5c-0.3,0.4-0.7,0.8-1.1,1.1
					"/>
				<path class="st22" d="M236.8,202.3l-1.7-1.6l12.2,4.7c0.4,0.1,0.7,0.2,0.9,0.2c0.2,0,0.5-0.1,0.7-0.3l1.2-0.8
					c0.2-0.2,0.4-0.3,0.4-0.4c0-0.1-0.1-0.3-0.3-0.6l-8.8-9.6c-0.1-0.1-0.2-0.2-0.3-0.3c-0.1-0.1-0.1-0.1-0.2-0.2
					c-0.3-0.2-0.5-0.2-0.7,0l-1.3,0.9c-0.3,0.2-0.4,0.3-0.4,0.5c0,0.1,0.1,0.3,0.3,0.6l8.1,7.9l-12.7-4.9c-0.4-0.1-0.7-0.2-0.9-0.2
					c-0.2,0-0.4,0.1-0.7,0.3l-1.1,0.7c-0.3,0.2-0.4,0.3-0.4,0.5c0,0.1,0.1,0.3,0.4,0.6l8.2,7.7l-12.7-4.7c-0.4-0.1-0.7-0.2-0.9-0.2
					c-0.2,0-0.4,0.1-0.7,0.3l-1.3,0.9c-0.2,0.2-0.2,0.3,0,0.5c0.1,0.1,0.4,0.2,0.8,0.3"/>
				<path class="st22" d="M236.8,202.3"/>
				<path class="st22" d="M228.2,206l12.1,4.1c0.4,0.1,0.7,0.2,0.9,0.2c0.2,0,0.4-0.1,0.7-0.3l1.2-0.8c0.3-0.2,0.4-0.3,0.4-0.5
					c0-0.1-0.1-0.3-0.4-0.6l-0.3-0.3"/>
			</g>
			<g>
				<path class="st23" d="M231.4,223.3c0,0,13.1-1.8,26-10.5c5.1-3.4,11.1-12.2,11.1-12.2s2.2-0.8,1.6,1.4s-2,8.6-10.7,13.9
					c-4.2,2.5-10.5,5.4-16.2,6.8C233.2,225.2,224.8,224.9,231.4,223.3z"/>
				<path class="st24" d="M266.7,209.1c1.9-2.5,3.2-5.2,3.5-7.8c0.1-0.9-1.5-1-1.9-0.3"/>
				<path class="st24" d="M235.4,222.5c-1.9,0.5-3.8,0.9-5.8,1.2c-0.8,0.1-0.6,0.8,0.2,0.7c11-0.3,21.4-3,29.4-8.4
					c0.5-0.4,1-0.7,1.6-1.1"/>
				<path class="st24" d="M237,222.1c-0.5,0.1-1,0.3-1.6,0.4"/>
				<path class="st24" d="M238.9,221.6c-0.3,0.1-0.7,0.2-1,0.3"/>
				<path class="st24" d="M268.3,201c-2.6,4.9-7,9.3-12,12.7c-4.1,2.8-8.8,5-13.9,6.8"/>
				<path class="st24" d="M264.5,199.3c-0.6,0.7-1.1,1.5-1.2,2.3"/>
				<path class="st25" d="M264.5,199.3"/>
				<path class="st24" d="M267.7,196.9c-0.5,0.3-1.1,0.6-1.7,1"/>
				<path class="st24" d="M263.3,201.6c-0.1,0.5,0.4,0.7,0.8,0.3c1.3-1.1,4.1-3.5,5.5-3.4c1.4,0.1,3.7,3,4.7,4.4
					c0.3,0.4,0.8,0.3,0.9-0.2c0.1-3-4.1-6.4-5.3-6.5c-0.2,0-0.5,0-0.9,0.2"/>
				<path class="st23" d="M263.3,201.6c-0.1,0.5,0.4,0.7,0.8,0.3c1.3-1.1,4.1-3.5,5.5-3.4c1.4,0.1,3.7,3,4.7,4.4
					c0.3,0.4,0.8,0.3,0.9-0.2c0.1-3-4.1-6.4-5.3-6.5C268.7,196.1,263.8,198.6,263.3,201.6"/>
			</g>
		</g>
		<g>
			<g>
				<g>
					<path class="st4" d="M352.1,185.5l-15.2-8.8c-2.1-1.2-1.8-3.3,0.6-4.6l13.9-8c2.4-1.4,6-1.5,8-0.3l15.2,8.8
						c2.1,1.2,1.8,3.3-0.6,4.6l-13.9,8C357.7,186.6,354.1,186.7,352.1,185.5z"/>
				</g>
			</g>
			<g>
				<g>
					<path class="st4" d="M319.5,204.8l-15.2-8.8c-2.1-1.2-1.8-3.3,0.6-4.6l13.9-8c2.4-1.4,6-1.5,8-0.3l15.2,8.8
						c2.1,1.2,1.8,3.3-0.6,4.6l-13.9,8C325.2,205.8,321.6,205.9,319.5,204.8z"/>
				</g>
			</g>
			<g id="app_icon_30_">
				<path class="st20" d="M251.3,164.9l12.3,7.1c2.1,1.2,5.6,1,8-0.3l13.9-8c1.4-0.8,2-1.8,2-2.8v-6.4c0.1-0.8-0.4-1.6-1.4-2.2
					l-15.2-8.8c-2.1-1.2-5.6-1-8,0.3l-13.9,8c-1.3,0.7-2,1.7-2,2.6h0v6.7h0c0,0.8,0.4,1.5,1.4,2.1l0.7,0.4"/>
				<path class="st21" d="M271.8,164.7l-0.3,0.1c-2.4,1.4-6,1.5-8,0.3l-15.2-8.8c-2.1-1.2-1.8-3.3,0.6-4.6l13.9-8
					c2.4-1.4,6-1.5,8-0.3l15.2,8.8c2.1,1.2,1.8,3.3-0.6,4.6l-9.5,5.5"/>
				<g>
					<polygon class="st21" points="272.3,153 268,150.6 271.2,148.4 275.4,150.8 					"/>
					<polygon class="st21" points="265.1,158.1 260.8,155.6 263.9,153.4 268.2,155.9 					"/>
					<polyline class="st21" points="268,159.8 267.4,159.4 270.6,157.2 274.8,159.7 273.8,160.4 					"/>
					<line class="st21" x1="269.6" y1="160.7" x2="268.8" y2="160.2"/>
					<path class="st21" d="M269.6,160.7"/>
					<polyline class="st21" points="272.1,161.6 271.7,161.9 270.2,161.1 					"/>
					<line class="st21" x1="273.8" y1="160.4" x2="273.3" y2="160.8"/>
					<polyline class="st21" points="259.5,150.8 261.6,152.1 258.5,154.3 254.2,151.8 257.3,149.6 258.2,150.1 					"/>
					<polyline class="st21" points="260.5,150.1 261.9,149.1 275.2,156.7 273.7,157.8 					"/>
					<line class="st21" x1="269.6" y1="152.2" x2="267.1" y2="154"/>
				</g>
			</g>
			<g id="app_icon_29_">
				<path class="st12" d="M280.8,182.3l10.4,6c2.1,1.2,5.6,1,8-0.3l13.9-8c1.4-0.8,2-1.8,2-2.8v-6.4c0.1-0.8-0.4-1.6-1.4-2.2
					l-15.2-8.8c-2.1-1.2-5.6-1-8,0.3l-13.9,8c-1.3,0.7-2,1.7-2,2.6h0v6.7h0c0,0.8,0.4,1.5,1.4,2.1l1.1,0.6"/>
				<line class="st2" x1="279" y1="181.2" x2="279.2" y2="181.3"/>
				<path class="st13" d="M299.7,181l-0.4,0.3c-2.4,1.4-6,1.5-8,0.3l-15.2-8.8c-2.1-1.2-1.8-3.3,0.6-4.6l13.9-8c2.4-1.4,6-1.5,8-0.3
					l15.2,8.8c2.1,1.2,1.8,3.3-0.6,4.6l-10.8,6.2"/>
				<path class="st26" d="M285.3,169.7L285.3,169.7L285.3,169.7z"/>
				<g>
					<path class="st0" d="M283.9,172c-0.6-2.3,0.6-4.8,3.6-6.6c4.6-2.9,11.6-3,15.7-0.4s3.7,7.2-0.9,10c-4.6,2.9-11.6,3-15.7,0.4"/>
					<g>
						
							<ellipse transform="matrix(0.9955 -9.476624e-02 9.476624e-02 0.9955 -15.1005 28.2873)" class="st9" cx="290.3" cy="173.1" rx="1.4" ry="0.9"/>
						
							<ellipse transform="matrix(0.9955 -9.476624e-02 9.476624e-02 0.9955 -14.9598 29.0253)" class="st9" cx="298.1" cy="172" rx="1.4" ry="0.9"/>
						
							<ellipse transform="matrix(0.9955 -9.476624e-02 9.476624e-02 0.9955 -14.6207 28.4447)" class="st9" cx="292.2" cy="168.2" rx="1.4" ry="0.9"/>
						
							<ellipse transform="matrix(0.9955 -9.476624e-02 9.476624e-02 0.9955 -14.7022 28.862)" class="st9" cx="296.5" cy="169.2" rx="1.4" ry="0.9"/>
						<g>
							<path class="st14" d="M300.9,172.2c-0.6-0.4-0.5-1,0.1-1.4c0.6-0.4,1.6-0.4,2.1,0s0.5,1-0.1,1.4S301.5,172.6,300.9,172.2z
								 M302.9,171c-0.4-0.3-1.2-0.3-1.7,0c-0.5,0.3-0.5,0.8-0.1,1.1s1.2,0.3,1.7,0C303.3,171.8,303.4,171.3,302.9,171z"/>
						</g>
						<g>
							<path class="st14" d="M298.3,168.1c-0.6-0.4-0.5-1,0.1-1.4c0.6-0.4,1.6-0.4,2.1,0s0.5,1-0.1,1.4
								C299.8,168.4,298.9,168.5,298.3,168.1z M300.3,166.8c-0.4-0.3-1.2-0.3-1.7,0c-0.5,0.3-0.5,0.8-0.1,1.1s1.2,0.3,1.7,0
								S300.8,167.1,300.3,166.8z"/>
						</g>
						<g>
							<path class="st14" d="M291.9,166.4c-0.6-0.4-0.5-1,0.1-1.4s1.6-0.4,2.1,0c0.6,0.4,0.5,1-0.1,1.4
								C293.4,166.7,292.4,166.7,291.9,166.4z M293.9,165.1c-0.4-0.3-1.2-0.3-1.7,0c-0.5,0.3-0.5,0.8-0.1,1.1c0.4,0.3,1.2,0.3,1.7,0
								C294.3,165.9,294.3,165.4,293.9,165.1z"/>
						</g>
					</g>
					<line class="st15" x1="290.3" y1="173.1" x2="292.2" y2="168.2"/>
					<line class="st15" x1="290.3" y1="173.1" x2="296.5" y2="169.2"/>
					<line class="st15" x1="298.1" y1="172" x2="290" y2="173.1"/>
				</g>
			</g>
			<g id="app_icon_28_">
				<path class="st16" d="M317.3,137c0.1-0.8-0.4-1.6-1.4-2.2l-15.2-8.8c-2.1-1.2-5.6-1-8,0.3l-13.9,8c-1.3,0.7-2,1.7-2,2.6h0v6.7h0
					c0,0.8,0.4,1.5,1.4,2.1l15.2,8.8c2.1,1.2,5.6,1,8-0.3l13.9-8c1.4-0.8,2-1.8,2-2.8V137z"/>
				<path class="st17" d="M284.3,142.5l-6-3.5c-2.1-1.2-1.8-3.3,0.6-4.6l13.9-8c2.4-1.4,6-1.5,8-0.3l15.2,8.8
					c2.1,1.2,1.8,3.3-0.6,4.6l-13.9,8c-2.4,1.4-6,1.5-8,0.3l-4.4-2.5"/>
				<line class="st3" x1="287.1" y1="144.1" x2="286.8" y2="143.9"/>
				<g>
					<path class="st9" d="M296.2,142.9l5.4-5.3l-9.2,3.4l-0.9-0.5l3.3-6.4l-7.1,4.4l-3.1-1.6l12.5-7.6l3.1,1.6l-3.3,5.9l8.5-3.3
						l3.1,1.6l-9.2,9.3L296.2,142.9z"/>
				</g>
			</g>
			<g id="app_icon_27_">
				<path class="st18" d="M345.3,153.1c0.1-0.8-0.4-1.6-1.4-2.2l-15.2-8.8c-2.1-1.2-5.6-1-8,0.3l-13.9,8c-1.3,0.7-2,1.7-2,2.6h0v6.7
					h0c0,0.8,0.4,1.5,1.4,2.1l15.2,8.8c2.1,1.2,5.6,1,8-0.3l13.9-8c1.4-0.8,2-1.8,2-2.8V153.1z"/>
				<path class="st19" d="M323.2,164.5c-0.6-0.1-1.2-0.3-1.7-0.6l-15.2-8.8c-2.1-1.2-1.8-3.3,0.6-4.6l13.9-8c2.4-1.4,6-1.5,8-0.3
					l15.2,8.8c2.1,1.2,1.8,3.3-0.6,4.6l-13.9,8c-0.9,0.5-2.1,0.9-3.3,1"/>
				<g id="Procesor_6_">
					<g>
						<g>
							<line class="st0" x1="329.2" y1="146" x2="327.2" y2="147.2"/>
							<line class="st0" x1="332.1" y1="147.9" x2="330.1" y2="149.1"/>
							<line class="st0" x1="334.8" y1="149.6" x2="332.8" y2="150.9"/>
						</g>
					</g>
					<g>
						<g>
							<line class="st0" x1="316.8" y1="153.7" x2="314.9" y2="154.9"/>
							<line class="st0" x1="319.7" y1="155.6" x2="317.8" y2="156.8"/>
							<line class="st0" x1="322.4" y1="157.4" x2="320.5" y2="158.6"/>
						</g>
					</g>
					<g>
						<g>
							<line class="st0" x1="335.6" y1="154.3" x2="333.8" y2="153.2"/>
							<line class="st0" x1="332.3" y1="156.4" x2="330.6" y2="155.2"/>
							<line class="st0" x1="329.3" y1="158.3" x2="327.5" y2="157.1"/>
						</g>
					</g>
					<g>
						<g>
							<line class="st0" x1="324.5" y1="147.1" x2="322.7" y2="146"/>
							<line class="st0" x1="321.2" y1="149.2" x2="319.5" y2="148"/>
							<line class="st0" x1="318.2" y1="151.1" x2="316.5" y2="149.9"/>
						</g>
					</g>
					<path class="st0" d="M324,158.4l-7.9-5.1c-0.4-0.3-0.4-0.7,0.1-1l8.8-5.5c0.4-0.3,1.1-0.3,1.5,0l7.9,5.1c0.4,0.3,0.4,0.7-0.1,1
						l-8.8,5.5C325.1,158.6,324.4,158.7,324,158.4z"/>
					<path class="st0" d="M324.7,155.2l-3.6-2.3c-0.2-0.1-0.2-0.3,0-0.5l4-2.5c0.2-0.1,0.6-0.1,0.7,0l3.6,2.3c0.2,0.1,0.2,0.3,0,0.5
						l-4,2.5C325.2,155.4,324.9,155.4,324.7,155.2z"/>
				</g>
			</g>
		</g>
	</g>
</g>
<g id="user_card_2">
	<path class="st1" d="M104.5,188.6l11.3,6.5c4.5,2.6,11.2,2.8,15,0.6L267,117.1c3.9-2.2,3.4-6.1-1.1-8.7L165.8,50.6
		c-4.5-2.6-11.2-2.8-15-0.6L14.6,128.6c-3.9,2.2-3.4,6.1,1.1,8.7l73,42.2L104.5,188.6z"/>
	<path class="st2" d="M269.6,105.8v-6c0-0.1,0-0.1,0-0.2v0h0c0-1.7-1.2-3.5-3.7-4.9L165.8,36.9c-4.5-2.6-11.2-2.8-15-0.6L14.6,114.9
		c-1.7,1-2.6,2.3-2.6,3.7h0v6.3h0c0,1.7,1.2,3.5,3.7,5l100.1,57.8c4.5,2.6,11.2,2.8,15,0.6L267,109.6
		C268.7,108.6,269.6,107.2,269.6,105.8L269.6,105.8z"/>
	<path class="st3" d="M104.5,174.8l11.3,6.5c4.5,2.6,11.2,2.8,15,0.6L267,103.4c3.9-2.2,3.4-6.1-1.1-8.7L165.8,36.9
		c-4.5-2.6-11.2-2.8-15-0.6L14.6,114.9c-3.9,2.2-3.4,6.1,1.1,8.7l73,42.2"/>
	<line class="st27" x1="93.4" y1="168.5" x2="94.5" y2="169.1"/>
	<path class="st0" d="M269.6,99.6L269.6,99.6L269.6,99.6L269.6,99.6c0-0.2,0-0.5-0.1-0.7c0,0,0,0,0-0.1c0-0.2-0.1-0.4-0.2-0.6
		c0,0,0-0.1,0-0.1c-0.1-0.2-0.1-0.3-0.2-0.5c0,0,0-0.1-0.1-0.1c-0.1-0.2-0.2-0.3-0.3-0.5c0-0.1-0.1-0.1-0.1-0.2
		c-0.1-0.1-0.2-0.3-0.4-0.4c-0.1-0.1-0.1-0.1-0.2-0.2c-0.1-0.1-0.3-0.3-0.4-0.4c-0.1-0.1-0.1-0.1-0.2-0.2c-0.2-0.1-0.3-0.3-0.5-0.4
		c-0.1-0.1-0.1-0.1-0.2-0.2c-0.3-0.2-0.5-0.4-0.8-0.5L165.8,36.9c-1.1-0.6-2.4-1.1-3.7-1.5c-2-0.5-4.1-0.7-6.1-0.6
		c-2,0.1-3.8,0.6-5.3,1.5L14.6,114.9c-0.4,0.2-0.7,0.5-1,0.7c0,0-0.1,0.1-0.1,0.1c-0.3,0.3-0.5,0.5-0.7,0.8c0,0-0.1,0.1-0.1,0.1
		c-0.2,0.3-0.3,0.6-0.4,0.9c0,0,0,0.1,0,0.1c-0.1,0.3-0.2,0.6-0.2,0.9h0v6.3h0c0,1.7,1.2,3.5,3.7,5l100.1,57.8
		c4.5,2.6,11.2,2.9,15,0.6L267,109.6c1.8-1,2.6-2.4,2.6-3.8h0v-6C269.6,99.7,269.6,99.7,269.6,99.6z"/>
	<g id="Inner_card_1_">
		<g>
			<g>
				<path class="st4" d="M125.9,93.7L110.8,85c-2.1-1.2-1.8-3.3,0.6-4.6l13.9-8c2.4-1.4,6-1.5,8-0.3l15.2,8.8
					c2.1,1.2,1.8,3.3-0.6,4.6l-13.9,8C131.5,94.8,128,94.9,125.9,93.7z"/>
			</g>
		</g>
		<line class="st3" x1="92.1" y1="91.4" x2="178.2" y2="140.5"/>
		<g id="vog_wheels_4_">
			<defs>
				<polygon id="SVGID_5_" points="26.5,115.5 83.4,82.9 186.7,141.8 130.1,174 				"/>
			</defs>
			<clipPath id="SVGID_6_">
				<use xlink:href="#SVGID_5_"  style="overflow:visible;"/>
			</clipPath>
			<g class="st28">
				<polyline class="st29" points="18,142 -1.3,130.6 94.9,76 97.3,74.6 207,137.1 205.1,138.2 106.6,194.1 25.2,146.2 				"/>
			</g>
			
				<use xlink:href="#SVGID_5_"  style="overflow:visible;fill:none;stroke:#183D54;stroke-width:1.5;stroke-linecap:round;stroke-linejoin:round;stroke-miterlimit:10;"/>
		</g>
		<g>
			<g>
				<g>
					<path class="st4" d="M125.3,93.2l-15.2-8.8c-2.1-1.2-1.8-3.3,0.6-4.6l13.9-8c2.4-1.4,6-1.5,8-0.3l15.2,8.8
						c2.1,1.2,1.8,3.3-0.6,4.6l-13.9,8C131,94.2,127.4,94.4,125.3,93.2z"/>
				</g>
			</g>
			<g>
				<g>
					<path class="st4" d="M153.7,108.8l-15.2-8.8c-2.1-1.2-1.8-3.3,0.6-4.6l13.9-8c2.4-1.4,6-1.5,8-0.3l15.2,8.8
						c2.1,1.2,1.8,3.3-0.6,4.6l-13.9,8C159.3,109.8,155.7,110,153.7,108.8z"/>
				</g>
			</g>
			<g>
				<g>
					<path class="st4" d="M212.7,106.8L197.5,98c-2.1-1.2-1.8-3.3,0.6-4.6l13.9-8c2.4-1.4,6-1.5,8-0.3l15.2,8.8
						c2.1,1.2,1.8,3.3-0.6,4.6l-13.9,8C218.3,107.8,214.7,108,212.7,106.8z"/>
				</g>
			</g>
			<g id="app_icon_22_">
				<path class="st12" d="M144.6,69.4l10.4,6c2.1,1.2,5.6,1,8-0.3l13.9-8c1.4-0.8,2-1.8,2-2.8v-6.4c0.1-0.8-0.4-1.6-1.4-2.2
					L162.2,47c-2.1-1.2-5.6-1-8,0.3l-13.9,8c-1.3,0.7-2,1.7-2,2.6h0v6.7h0c0,0.8,0.4,1.5,1.4,2.1l1.1,0.6"/>
				<line class="st12" x1="142.7" y1="68.4" x2="142.9" y2="68.5"/>
				<path class="st13" d="M163.4,68.1l-0.4,0.3c-2.4,1.4-6,1.5-8,0.3l-15.2-8.8c-2.1-1.2-1.8-3.3,0.6-4.6l13.9-8
					c2.4-1.4,6-1.5,8-0.3l15.2,8.8c2.1,1.2,1.8,3.3-0.6,4.6l-10.8,6.2"/>
				<g>
					<path class="st9" d="M156.9,65.8L145.6,59c-0.5-0.3-0.5-0.9,0.1-1.2l8-5.4c0.6-0.4,1.4-0.4,1.9-0.1l11.3,6.8
						c0.5,0.3,0.5,0.9-0.1,1.2l-8,5.4C158.3,66.1,157.4,66.1,156.9,65.8z"/>
					<g>
						<path class="st9" d="M156,59.2c-2.7-1.6-2.6-4.5,0.3-6.5c2.9-1.9,7.4-2.2,10.1-0.6s2.6,4.5-0.3,6.5S158.7,60.9,156,59.2z
							 M165,53.1c-2-1.2-5.3-1-7.4,0.4c-2.1,1.4-2.2,3.5-0.2,4.7c2,1.2,5.3,1,7.4-0.4C166.9,56.4,167,54.3,165,53.1z"/>
					</g>
				</g>
			</g>
			<g id="app_icon_21_">
				<path class="st16" d="M205.4,108.1c0.1-0.8-0.4-1.6-1.4-2.2l-15.2-8.8c-2.1-1.2-5.6-1-8,0.3l-13.9,8c-1.3,0.7-2,1.7-2,2.6h0v6.7
					h0c0,0.8,0.4,1.5,1.4,2.1l15.2,8.8c2.1,1.2,5.6,1,8-0.3l13.9-8c1.4-0.8,2-1.8,2-2.8V108.1z"/>
				<path class="st17" d="M172.4,113.6l-6-3.5c-2.1-1.2-1.8-3.3,0.6-4.6l13.9-8c2.4-1.4,6-1.5,8-0.3L204,106
					c2.1,1.2,1.8,3.3-0.6,4.6l-13.9,8c-2.4,1.4-6,1.5-8,0.3l-4.4-2.5"/>
				<line class="st3" x1="175.2" y1="115.3" x2="174.9" y2="115.1"/>
				<g>
					<path class="st0" d="M190.7,101.2c1,0.3,2,0.7,2.8,1.3c4.1,2.7,3.7,7.1-0.8,10c-4.6,2.8-11.6,3-15.7,0.3
						c-4.1-2.7-3.7-7.1,0.8-10c1.5-0.9,3.3-1.6,5.1-1.9"/>
					<path class="st0" d="M187.5,100.6c1.1,0.1,2.2,0.3,3.2,0.6"/>
					<path class="st0" d="M184.4,100.6c0.5-0.1,1-0.1,1.5-0.1"/>
					<g>
						
							<ellipse transform="matrix(0.5018 -0.865 0.865 0.5018 3.188 215.945)" class="st9" cx="189.1" cy="105.2" rx="1.4" ry="4.7"/>
						<path class="st9" d="M184.1,103.4l-1.6,1c0,0,0,1.6,2.8,3.4s5,1.6,5,1.6l1.6-1c0,0-2.8-0.4-4.8-1.7
							C184.9,105.4,184.1,103.4,184.1,103.4z"/>
						<path class="st9" d="M181.5,105l-1.6,1c0,0,0,1.6,2.8,3.4c2.7,1.8,5,1.6,5,1.6l1.6-1c0,0-2.8-0.4-4.8-1.7
							C182.4,106.9,181.5,105,181.5,105z"/>
						<path class="st9" d="M179.1,106.5l-1.6,1c0,0,0,1.6,2.8,3.4s5,1.6,5,1.6l1.6-1c0,0-2.8-0.4-4.8-1.7
							C179.9,108.5,179.1,106.5,179.1,106.5z"/>
					</g>
				</g>
			</g>
			<g id="app_icon_20_">
				<path class="st18" d="M207.4,74c0.1-0.8-0.4-1.6-1.4-2.2l-15.2-8.8c-2.1-1.2-5.6-1-8,0.3l-13.9,8c-1.3,0.7-2,1.7-2,2.6h0v6.7h0
					c0,0.8,0.4,1.5,1.4,2.1l15.2,8.8c2.1,1.2,5.6,1,8-0.3l13.9-8c1.4-0.8,2-1.8,2-2.8V74z"/>
				<path class="st19" d="M185.3,85.4c-0.6-0.1-1.2-0.3-1.7-0.6L168.4,76c-2.1-1.2-1.8-3.3,0.6-4.6l13.9-8c2.4-1.4,6-1.5,8-0.3
					l15.2,8.8c2.1,1.2,1.8,3.3-0.6,4.6l-13.9,8c-0.9,0.5-2.1,0.9-3.3,1"/>
				<g>
					<path class="st0" d="M196.1,76.9c-0.6,0.6-1.3,1.3-2.2,1.8c-4.5,2.7-11.4,2.7-15.3,0s-3.5-7,1-9.7c4.5-2.7,11.4-2.7,15.3,0
						c2,1.3,2.8,3.1,2.7,4.9"/>
					<path class="st0" d="M181.5,72.4c-2.1,1-3.8,2.5-4.8,4.6"/>
					<path class="st0" d="M181.5,72.4"/>
					<path class="st0" d="M196.1,70c0,0-6.1-0.4-11.6,1.3"/>
					<path class="st0" d="M178.2,69.9c0,0-0.6,7.4,13.1,9.9"/>
					<path class="st0" d="M194.4,68.7c0,0-10.3,5-6.1,11.9"/>
					<path class="st0" d="M182.6,72c0,0,0.2-0.1,0.3-0.1"/>
				</g>
			</g>
		</g>
	</g>
	<g>
		<g>
			<path class="st30" d="M86.1,141c-0.3,0-0.5,0-0.8,0c-1.7-0.1-3.3-0.7-4.6-1.6c-1.4-1-2.1-2.1-2.1-3.3c0-1.3,0.6-2.3,2-3
				c0.6-0.4,1.4-0.6,2.2-0.8c0.5-0.1,1-0.1,1.4-0.1c0.3,0,0.6,0,0.9,0.1c0.2,0,0.4,0.2,0.4,0.5l0,0.9c0,0.1-0.1,0.3-0.2,0.4
				c-0.1,0.1-0.2,0.1-0.3,0.1c0,0,0,0-0.1,0c-0.2,0-0.5,0-0.7,0c-0.8,0-1.5,0.2-2.2,0.6c-0.7,0.4-1,0.9-1,1.5c0,0.6,0.4,1.2,1.3,1.8
				c0.9,0.6,2,1,3.1,1.1c0.2,0,0.3,0,0.5,0c0.9,0,1.7-0.2,2.4-0.6c0.7-0.4,1.1-0.9,1.1-1.5c0-0.3-0.2-0.6-0.6-1l-2.6,1.5
				c-0.1,0-0.2,0.1-0.2,0.1c-0.1,0-0.2,0-0.3-0.1l-1-0.7c-0.1-0.1-0.2-0.3-0.2-0.4c0-0.2,0.1-0.3,0.2-0.4l3.9-2.3
				c0.1,0,0.2-0.1,0.2-0.1c0.1,0,0.2,0,0.2,0.1c0.3,0.1,0.5,0.3,0.7,0.4c1.3,0.9,2,1.9,2,2.9c0.1,1.2-0.6,2.2-2,3
				C88.8,140.7,87.5,141,86.1,141z"/>
			<path class="st26" d="M84.2,132.7c0.3,0,0.6,0,0.9,0.1l0,0.9c-0.3,0-0.5-0.1-0.8-0.1c-0.9,0-1.7,0.2-2.4,0.6
				c-0.8,0.5-1.3,1.1-1.3,1.9c0,0.8,0.5,1.5,1.5,2.2c1,0.7,2.1,1.1,3.4,1.2c0.2,0,0.3,0,0.5,0c1,0,1.9-0.2,2.6-0.6
				c0.9-0.5,1.3-1.2,1.3-2c0-0.5-0.4-1-1-1.6l-2.9,1.7l-1-0.7l3.9-2.3c0.3,0.1,0.5,0.3,0.7,0.4c1.2,0.8,1.8,1.7,1.8,2.5
				c0.1,1-0.5,1.9-1.7,2.6c-1,0.6-2.2,0.9-3.5,0.9c-0.2,0-0.5,0-0.7,0c-1.7-0.1-3.1-0.6-4.4-1.5c-1.2-0.9-1.9-1.8-1.9-2.9
				c0-1.1,0.5-1.9,1.7-2.6c0.6-0.3,1.2-0.6,2-0.7C83.3,132.7,83.7,132.7,84.2,132.7 M84.2,131.7c-0.5,0-1,0-1.5,0.1
				c-0.9,0.2-1.7,0.4-2.3,0.8c-1.9,1.1-2.2,2.5-2.2,3.5c0,1.4,0.8,2.6,2.3,3.7c1.4,1,3,1.5,4.9,1.7c0.3,0,0.5,0,0.8,0
				c1.5,0,2.9-0.3,4-1c2-1.1,2.3-2.5,2.2-3.5c0-1.2-0.8-2.3-2.2-3.3c-0.2-0.2-0.5-0.3-0.8-0.5c-0.1-0.1-0.3-0.1-0.5-0.1
				c-0.2,0-0.3,0-0.5,0.1l-3.9,2.3c-0.3,0.2-0.5,0.5-0.5,0.8c0,0.3,0.1,0.7,0.4,0.9l1,0.7c0.2,0.1,0.4,0.2,0.6,0.2
				c0.2,0,0.3,0,0.5-0.1l2.3-1.3c0.1,0.2,0.2,0.3,0.2,0.4c0,0.2,0,0.6-0.8,1.1c-0.6,0.3-1.3,0.5-2.1,0.5c-0.1,0-0.3,0-0.4,0
				c-1.1-0.1-2-0.4-2.8-1c-0.7-0.5-1.1-1-1.1-1.4c0-0.3,0.1-0.7,0.8-1.1c0.6-0.3,1.2-0.5,1.9-0.5c0.2,0,0.4,0,0.7,0c0,0,0.1,0,0.1,0
				c0.2,0,0.5-0.1,0.7-0.3c0.2-0.2,0.3-0.5,0.3-0.8l0-0.9c0-0.5-0.4-0.9-0.9-1C84.8,131.7,84.5,131.7,84.2,131.7L84.2,131.7z"/>
		</g>
		<g>
			<path class="st31" d="M95.9,135c-0.2,0-0.4,0-0.6,0c-1.2-0.1-2.3-0.5-3.2-1.2c-1-0.7-1.5-1.5-1.6-2.4c0-0.6,0.2-1.5,1.4-2.3
				c0.8-0.4,1.6-0.7,2.6-0.7c0.2,0,0.4,0,0.6,0c1.2,0.1,2.3,0.5,3.2,1.2c1,0.7,1.5,1.5,1.6,2.4c0,0.6-0.2,1.5-1.4,2.3
				C97.8,134.8,96.9,135,95.9,135z M94.6,130.5c-0.5,0-0.9,0.1-1.2,0.3c-0.4,0.2-0.5,0.5-0.4,0.7c0,0.4,0.4,0.7,0.8,1
				c0.6,0.4,1.1,0.6,1.8,0.7c0.1,0,0.2,0,0.3,0c0.5,0,0.9-0.1,1.2-0.3c0.4-0.2,0.5-0.5,0.4-0.7c0-0.4-0.4-0.7-0.8-1
				c-0.6-0.4-1.1-0.6-1.8-0.7C94.8,130.5,94.7,130.5,94.6,130.5z"/>
			<path class="st32" d="M94.5,129c0.2,0,0.4,0,0.6,0c1.1,0.1,2.1,0.5,3,1.1c0.9,0.6,1.3,1.3,1.4,2c0.1,0.7-0.3,1.3-1.2,1.8
				c-0.7,0.4-1.5,0.6-2.3,0.6c-0.2,0-0.4,0-0.6,0c-1.1-0.1-2.1-0.5-3-1.1c-0.9-0.6-1.3-1.3-1.4-2c-0.1-0.7,0.3-1.3,1.2-1.8
				C92.8,129.2,93.6,129,94.5,129 M95.8,133.6c0.6,0,1.1-0.1,1.5-0.3c0.5-0.3,0.7-0.7,0.7-1.1c0-0.5-0.3-0.9-1-1.4
				c-0.6-0.4-1.3-0.7-2-0.7c-0.1,0-0.3,0-0.4,0c-0.6,0-1.1,0.1-1.5,0.3c-0.5,0.3-0.7,0.7-0.7,1.1c0,0.5,0.3,0.9,1,1.4
				c0.6,0.4,1.3,0.7,2,0.7C95.6,133.6,95.7,133.6,95.8,133.6 M94.5,128c-1.1,0-2,0.2-2.8,0.7c-1.5,0.8-1.7,2-1.7,2.7
				c0.1,1,0.7,2,1.8,2.7c1,0.7,2.2,1.1,3.5,1.2c0.2,0,0.4,0,0.7,0c1.1,0,2-0.2,2.8-0.7c1.5-0.8,1.7-2,1.7-2.7c-0.1-1-0.7-2-1.8-2.7
				c-1-0.7-2.2-1.1-3.5-1.2C94.9,128,94.7,128,94.5,128L94.5,128z M95.8,132.6c-0.1,0-0.2,0-0.3,0c-0.6,0-1.1-0.2-1.6-0.6
				c-0.4-0.3-0.5-0.5-0.5-0.6c0,0,0-0.1,0.2-0.2c0.2-0.1,0.6-0.2,1-0.2c0.1,0,0.2,0,0.3,0c0.6,0,1.1,0.2,1.6,0.6
				c0.4,0.3,0.5,0.5,0.5,0.6c0,0,0,0.1-0.2,0.2C96.5,132.5,96.2,132.6,95.8,132.6L95.8,132.6z"/>
		</g>
		<g>
			<path class="st33" d="M103.7,130.7c-0.2,0-0.4,0-0.6,0c-1.2-0.1-2.3-0.5-3.2-1.2c-1-0.7-1.5-1.5-1.6-2.4c0-0.6,0.2-1.5,1.4-2.3
				c0.8-0.4,1.6-0.7,2.6-0.7c0.2,0,0.4,0,0.6,0c1.2,0.1,2.3,0.5,3.2,1.2c1,0.7,1.5,1.5,1.6,2.4c0,0.6-0.2,1.5-1.4,2.3
				C105.6,130.5,104.7,130.7,103.7,130.7z M102.4,126.2c-0.5,0-0.9,0.1-1.2,0.3c-0.4,0.2-0.5,0.5-0.4,0.7c0,0.4,0.4,0.7,0.8,1
				c0.6,0.4,1.1,0.6,1.8,0.7c0.1,0,0.2,0,0.3,0c0.5,0,0.9-0.1,1.2-0.3c0.4-0.2,0.5-0.5,0.4-0.7c0-0.4-0.4-0.7-0.8-1
				c-0.6-0.4-1.1-0.6-1.8-0.7C102.6,126.2,102.5,126.2,102.4,126.2z"/>
			<path class="st34" d="M102.3,124.7c0.2,0,0.4,0,0.6,0c1.1,0.1,2.1,0.5,3,1.1c0.9,0.6,1.3,1.3,1.4,2c0.1,0.7-0.3,1.3-1.2,1.8
				c-0.7,0.4-1.5,0.6-2.3,0.6c-0.2,0-0.4,0-0.6,0c-1.1-0.1-2.1-0.5-3-1.1c-0.9-0.6-1.3-1.3-1.4-2c-0.1-0.7,0.3-1.3,1.2-1.8
				C100.6,124.9,101.4,124.7,102.3,124.7 M103.6,129.3c0.6,0,1.1-0.1,1.5-0.3c0.5-0.3,0.7-0.7,0.7-1.1c0-0.5-0.3-0.9-1-1.4
				c-0.6-0.4-1.3-0.7-2-0.7c-0.1,0-0.3,0-0.4,0c-0.6,0-1.1,0.1-1.5,0.3c-0.5,0.3-0.7,0.7-0.7,1.1c0,0.5,0.3,0.9,1,1.4
				c0.6,0.4,1.3,0.7,2,0.7C103.4,129.3,103.5,129.3,103.6,129.3 M102.3,123.7L102.3,123.7c-1.1,0-2,0.2-2.8,0.7
				c-1.5,0.8-1.7,2-1.7,2.7c0.1,1,0.7,2,1.8,2.7c1,0.7,2.2,1.1,3.5,1.2c0.2,0,0.4,0,0.7,0c1.1,0,2-0.2,2.8-0.7
				c1.5-0.8,1.7-2,1.7-2.7c-0.1-1-0.7-2-1.8-2.7c-1-0.7-2.2-1.1-3.5-1.2C102.7,123.7,102.5,123.7,102.3,123.7L102.3,123.7z
				 M103.6,128.3c-0.1,0-0.2,0-0.3,0c-0.6,0-1.1-0.2-1.6-0.6c-0.4-0.3-0.5-0.5-0.5-0.6c0,0,0-0.1,0.2-0.2c0.2-0.1,0.6-0.2,1-0.2
				c0.1,0,0.2,0,0.3,0c0.6,0,1.1,0.2,1.6,0.6c0.4,0.3,0.5,0.5,0.5,0.6c0,0,0,0.1-0.2,0.2C104.3,128.2,104,128.3,103.6,128.3
				L103.6,128.3z"/>
		</g>
		<g>
			<path class="st30" d="M113.4,128.1c-0.8,0-1.5-0.1-2.2-0.3c-0.1,0-0.3-0.2-0.3-0.3c-0.1-0.1,0-0.3,0.1-0.4l0.5-0.8
				c-0.2,0-0.4,0-0.6,0c-0.2,0-0.5,0-0.7,0c-1.2-0.1-2.3-0.5-3.2-1.2c-1-0.7-1.5-1.5-1.6-2.3c-0.1-0.6,0.1-1.5,1.2-2.2
				c0.5-0.3,1-0.4,1.6-0.5c0.1,0,0.2,0,0.3,0c0,0,0,0,0,0c0-0.2,0.1-0.3,0.2-0.4l1-0.6c0.1,0,0.2-0.1,0.2-0.1c0.1,0,0.2,0,0.3,0.1
				l5.5,3.8c1.1,0.8,1.7,1.6,1.6,2.5c0,0.9-0.5,1.6-1.5,2.1C115.1,127.9,114.3,128.1,113.4,128.1
				C113.4,128.1,113.4,128.1,113.4,128.1z M112.4,126c0.2,0.1,0.5,0.1,0.8,0.1l0.1,0c0.4,0,0.8-0.1,1-0.3c0.6-0.3,0.6-0.6,0.6-0.7
				c0-0.2-0.2-0.5-0.6-0.8c0,0.1-0.1,0.2-0.1,0.2c-0.2,0.4-0.5,0.8-1,1.1C112.9,125.8,112.7,126,112.4,126z M109.3,121.7
				c-0.5,0-0.8,0.1-1.2,0.3c-0.4,0.2-0.4,0.5-0.4,0.6c0,0.4,0.4,0.7,0.8,1c0.6,0.4,1.1,0.6,1.8,0.7c0.1,0,0.2,0,0.4,0
				c0.5,0,0.8-0.1,1.1-0.3c0.4-0.2,0.4-0.5,0.4-0.6c0-0.4-0.4-0.7-0.8-1c-0.6-0.4-1.2-0.6-1.8-0.7
				C109.6,121.7,109.5,121.7,109.3,121.7z"/>
			<path class="st26" d="M109.9,119.4l5.5,3.8c1,0.7,1.5,1.4,1.4,2c0,0.7-0.4,1.2-1.2,1.7c-0.7,0.4-1.4,0.6-2.1,0.6c0,0,0,0,0,0
				c-0.8,0-1.4-0.1-2.1-0.3l0.5-0.8c0.4,0.1,0.8,0.2,1.2,0.2c0,0,0.1,0,0.1,0c0.5,0,0.9-0.1,1.3-0.3c0.6-0.3,0.8-0.7,0.8-1.2
				c0-0.4-0.4-0.9-1-1.3l-0.6-0.4l0,0c0.1,0.3,0.1,0.6-0.1,0.9c-0.1,0.3-0.4,0.6-0.8,0.8c-0.6,0.3-1.2,0.5-2,0.5c-0.2,0-0.4,0-0.7,0
				c-1.1-0.1-2.1-0.5-3-1.1c-0.9-0.6-1.3-1.3-1.4-2c-0.1-0.7,0.3-1.3,1-1.7c0.4-0.2,0.9-0.4,1.4-0.4c0.2,0,0.4,0,0.6,0
				c0.3,0,0.6,0,0.9,0.1l0,0l-0.8-0.6L109.9,119.4 M110.7,124.8c0.5,0,1-0.1,1.4-0.3c0.5-0.3,0.7-0.7,0.7-1.1c0-0.5-0.4-0.9-1-1.4
				c-0.6-0.4-1.3-0.7-2-0.8c-0.1,0-0.3,0-0.4,0c-0.5,0-1,0.1-1.4,0.3c-0.5,0.3-0.7,0.6-0.7,1.1c0,0.5,0.4,0.9,1,1.4
				c0.6,0.4,1.3,0.7,2,0.8C110.4,124.8,110.6,124.8,110.7,124.8 M109.9,118.4c-0.2,0-0.3,0-0.5,0.1l-1,0.6c-0.2,0.1-0.3,0.2-0.4,0.4
				c-0.6,0.1-1.2,0.3-1.7,0.6c-1,0.6-1.6,1.5-1.5,2.6c0.1,1,0.7,1.9,1.8,2.7c1,0.7,2.2,1.1,3.4,1.3c0.1,0,0.3,0,0.4,0
				c-0.2,0.3-0.2,0.6-0.1,0.8c0.1,0.3,0.3,0.5,0.6,0.6c0.7,0.2,1.5,0.4,2.4,0.4c0.9,0,1.8-0.2,2.6-0.7c1.4-0.8,1.7-1.8,1.7-2.5
				c0.1-1-0.6-2-1.9-2.9l-5.5-3.8C110.3,118.5,110.1,118.4,109.9,118.4L109.9,118.4z M110.7,123.8c-0.1,0-0.2,0-0.3,0
				c-0.6-0.1-1.1-0.2-1.5-0.6c-0.4-0.3-0.6-0.5-0.6-0.6c0,0,0.1-0.1,0.2-0.2c0.2-0.1,0.5-0.2,0.9-0.2c0.1,0,0.2,0,0.3,0
				c0.5,0.1,1.1,0.2,1.5,0.6c0.4,0.3,0.6,0.5,0.6,0.6c0,0,0,0.1-0.2,0.2C111.4,123.8,111.1,123.8,110.7,123.8L110.7,123.8z"/>
		</g>
		<g>
			<path class="st35" d="M118.7,122.8c-0.1,0-0.2,0-0.3-0.1l-8.4-5.9c-0.1-0.1-0.2-0.3-0.2-0.4c0-0.2,0.1-0.3,0.2-0.4l1-0.6
				c0.1,0,0.2-0.1,0.2-0.1c0.1,0,0.2,0,0.3,0.1l8.4,5.9c0.1,0.1,0.2,0.3,0.2,0.4c0,0.2-0.1,0.3-0.2,0.4l-1,0.6
				C118.9,122.8,118.8,122.8,118.7,122.8z"/>
			<path class="st36" d="M111.4,115.8l8.4,5.9l-1,0.6l-8.4-5.9L111.4,115.8 M111.4,114.8c-0.2,0-0.3,0-0.5,0.1l-1,0.6
				c-0.3,0.2-0.5,0.5-0.5,0.8c0,0.3,0.1,0.7,0.4,0.9l8.4,5.9c0.2,0.1,0.4,0.2,0.6,0.2c0.2,0,0.3,0,0.5-0.1l1-0.6
				c0.3-0.2,0.5-0.5,0.5-0.8c0-0.3-0.1-0.7-0.4-0.9l-8.4-5.9C111.8,114.9,111.6,114.8,111.4,114.8L111.4,114.8z"/>
		</g>
		<g>
			<path class="st31" d="M122.3,120c-0.5,0-1-0.1-1.5-0.2c-1.2-0.3-2-0.8-2.5-1.5c-0.6-0.8-0.6-1.7-0.1-2.6c0.5-0.8,1.3-1.4,2.4-1.8
				c0.6-0.2,1.2-0.3,1.8-0.3c0.5,0,1.1,0.1,1.7,0.2l0.3,0.1c0.2,0,0.3,0.2,0.3,0.3c0.1,0.1,0,0.3,0,0.4l-2,3.3c0.4,0,0.7-0.1,1-0.2
				c0.5-0.2,0.8-0.4,1-0.7c0.3-0.4,0.2-0.7-0.2-1c-0.1-0.1-0.2-0.2-0.2-0.4c0-0.2,0.1-0.3,0.2-0.4l1-0.7c0.1-0.1,0.2-0.1,0.3-0.1
				c0.1,0,0.2,0,0.3,0.1c0.6,0.3,0.9,0.8,1.1,1.4c0.2,0.6,0.1,1.2-0.3,1.9c-0.5,0.9-1.4,1.5-2.5,1.8C123.6,119.9,123,120,122.3,120z
				 M121.5,115.8c-0.1,0-0.2,0.1-0.4,0.1c-0.4,0.1-0.7,0.4-0.9,0.7c-0.2,0.3-0.1,0.4-0.1,0.5c0.1,0.1,0.2,0.2,0.3,0.3L121.5,115.8z"
				/>
			<path class="st32" d="M122.3,114.3c0.5,0,1,0.1,1.5,0.2l0.2,0.1l-2.4,4c0.3,0,0.5,0.1,0.8,0.1c0.4,0,0.8-0.1,1.2-0.2
				c0.6-0.2,1-0.5,1.3-1c0.4-0.7,0.3-1.2-0.4-1.6l1-0.7c0.5,0.3,0.8,0.7,0.9,1.1c0.1,0.5,0.1,1-0.3,1.5c-0.5,0.8-1.2,1.3-2.2,1.6
				c-0.6,0.2-1.1,0.3-1.7,0.3c-0.5,0-0.9-0.1-1.4-0.2c-1-0.2-1.8-0.7-2.3-1.3c-0.5-0.6-0.5-1.3-0.1-2c0.5-0.7,1.2-1.3,2.1-1.6
				C121.2,114.4,121.8,114.3,122.3,114.3 M120.7,118.2l1.8-2.9c-0.1,0-0.3,0-0.4,0c-0.3,0-0.6,0.1-1,0.2c-0.5,0.2-0.9,0.5-1.2,1
				c-0.2,0.3-0.2,0.7-0.1,1C119.9,117.7,120.2,118,120.7,118.2 M122.3,113.3c-0.7,0-1.3,0.1-1.9,0.3c-1.2,0.4-2.1,1-2.7,2
				c-0.6,1.1-0.6,2.2,0.1,3.1c0.6,0.8,1.6,1.4,2.8,1.7c0.5,0.1,1.1,0.2,1.6,0.2c0.7,0,1.4-0.1,2-0.3c1.2-0.4,2.2-1.1,2.8-2
				c0.6-1,0.5-1.8,0.4-2.3c-0.2-0.7-0.7-1.2-1.3-1.7c-0.2-0.1-0.3-0.2-0.5-0.2c-0.2,0-0.4,0.1-0.6,0.2c0,0,0,0,0-0.1
				c-0.1-0.3-0.4-0.5-0.7-0.6l-0.2-0.1C123.5,113.4,122.9,113.3,122.3,113.3L122.3,113.3z M123.6,117.3l0.5-0.8c0,0,0,0,0,0
				c0.1,0,0.1,0.1,0.1,0.1c0,0,0,0.1-0.1,0.2C124.1,117.1,123.9,117.2,123.6,117.3L123.6,117.3z"/>
		</g>
	</g>
</g>
<g>
	<polyline id="Line_Connect" class="st0" points="77.1,166.2 15.5,204.2 286.7,360 	"/>
	<g>
		<g>
			<path class="st18" d="M73.9,221.7c0.1-0.8-0.4-1.6-1.4-2.2l-15-8.7c-2-1.2-5.6-1-7.9,0.3l-13.7,7.9c-1.3,0.7-1.9,1.7-1.9,2.6h0
				v6.6h0c0,0.8,0.4,1.5,1.4,2.1l15,8.7c2,1.2,5.6,1,7.9-0.3l13.7-7.9c1.4-0.8,2-1.8,1.9-2.8V221.7z"/>
			<path class="st19" d="M62,229.8l-3.8,2.2c-2.3,1.4-5.9,1.5-7.9,0.3l-15-8.7c-2-1.2-1.8-3.2,0.6-4.6l13.7-7.9
				c2.3-1.4,5.9-1.5,7.9-0.3l15,8.7c2,1.2,1.8,3.2-0.6,4.6l-7.6,4.4"/>
		</g>
		<line class="st37" x1="40.8" y1="212.9" x2="34.5" y2="209.1"/>
		<line class="st37" x1="32.7" y1="219.4" x2="18.7" y2="211"/>
	</g>
	<line class="st0" x1="64.5" y1="232.3" x2="76.5" y2="239.2"/>
	<g>
		<g>
			<path class="st16" d="M177.3,257.8c0.1-0.8-0.4-1.6-1.4-2.2l-15-8.7c-2-1.2-5.6-1-7.9,0.3l-13.7,7.9c-1.3,0.7-1.9,1.7-1.9,2.6h0
				v6.6h0c0,0.8,0.4,1.5,1.4,2.1l15,8.7c2,1.2,5.6,1,7.9-0.3l13.7-7.9c1.4-0.8,2-1.8,1.9-2.8V257.8z"/>
			<path class="st17" d="M144.6,263.2l-5.9-3.4c-2-1.2-1.8-3.2,0.6-4.6l13.7-7.9c2.3-1.4,5.9-1.5,7.9-0.3l15,8.7
				c2,1.2,1.8,3.2-0.6,4.6l-13.7,7.9c-2.3,1.4-5.9,1.5-7.9,0.3l-4.3-2.5"/>
		</g>
		<line class="st37" x1="169.9" y1="247.9" x2="176.8" y2="243.8"/>
		<line class="st37" x1="180.3" y1="253.4" x2="193.6" y2="245.8"/>
	</g>
	<line class="st0" x1="146.1" y1="268.8" x2="132.5" y2="276.9"/>
	<g>
		<g>
			<path class="st38" d="M377.9,124.9l10.3,5.9c2,1.2,5.6,1,7.9-0.3l13.7-7.9c1.4-0.8,2-1.8,1.9-2.8v-6.3c0.1-0.8-0.4-1.6-1.4-2.2
				l-15-8.7c-2-1.2-5.6-1-7.9,0.3l-13.7,7.9c-1.3,0.7-1.9,1.7-1.9,2.6h0v6.6h0c0,0.8,0.4,1.5,1.4,2.1l1.1,0.6"/>
			<path class="st21" d="M396.5,123.6l-0.4,0.3c-2.3,1.4-5.9,1.5-7.9,0.3l-15-8.7c-2-1.2-1.8-3.2,0.6-4.6l13.7-7.9
				c2.3-1.4,5.9-1.5,7.9-0.3l15,8.7c2,1.2,1.8,3.2-0.6,4.6l-10.7,6.2"/>
		</g>
		<line class="st37" x1="405.2" y1="103.9" x2="416.6" y2="96.4"/>
		<line class="st37" x1="402.3" y1="102.4" x2="407.9" y2="98.9"/>
		<line class="st37" x1="413" y1="109.5" x2="416" y2="107.7"/>
	</g>
	<line class="st0" x1="370" y1="130.2" x2="381.1" y2="123.6"/>
	<g>
		<g>
			<path class="st20" d="M252.5,64.9l12.2,7c2,1.2,5.6,1,7.9-0.3l13.7-7.9c1.4-0.8,2-1.8,1.9-2.8v-6.3c0.1-0.8-0.4-1.6-1.4-2.2
				l-15-8.7c-2-1.2-5.6-1-7.9,0.3L250.2,52c-1.3,0.7-1.9,1.7-1.9,2.6h0v6.6h0c0,0.8,0.4,1.5,1.4,2.1l0.7,0.4"/>
			<path class="st21" d="M272.8,64.8l-0.3,0.1c-2.3,1.4-5.9,1.5-7.9,0.3l-15-8.7c-2-1.2-1.8-3.2,0.6-4.6l13.7-7.9
				c2.3-1.4,5.9-1.5,7.9-0.3l15,8.7c2,1.2,1.8,3.2-0.6,4.6l-9.4,5.4"/>
		</g>
		<line class="st37" x1="256" y1="70.9" x2="244.7" y2="78.3"/>
		<line class="st39" x1="258.9" y1="74.6" x2="253" y2="78.3"/>
	</g>
	<line class="st0" x1="251.8" y1="68.7" x2="256.9" y2="65.5"/>
	<line class="st0" x1="331.8" y1="40.1" x2="329.3" y2="38.6"/>
	<g>
		<g>
			<path class="st12" d="M294.4,352l12.2,7c2,1.2,5.6,1,7.9-0.3l13.7-7.9c1.4-0.8,2-1.8,1.9-2.8v-6.3c0.1-0.8-0.4-1.6-1.4-2.2
				l-15-8.7c-2-1.2-5.6-1-7.9,0.3l-13.7,7.9c-1.3,0.7-1.9,1.7-1.9,2.6h0v6.6h0c0,0.8,0.4,1.5,1.4,2.1l0.7,0.4"/>
			<path class="st13" d="M314.7,351.9l-0.3,0.1c-2.3,1.4-5.9,1.5-7.9,0.3l-15-8.7c-2-1.2-1.8-3.2,0.6-4.6l13.7-7.9
				c2.3-1.4,5.9-1.5,7.9-0.3l15,8.7c2,1.2,1.8,3.2-0.6,4.6l-9.4,5.4"/>
		</g>
		<line class="st37" x1="297.7" y1="362.2" x2="275.2" y2="376.3"/>
		<line class="st37" x1="296.8" y1="358.6" x2="286.4" y2="365.1"/>
		<line class="st37" x1="288.8" y1="354" x2="285.7" y2="356.1"/>
	</g>
	<line class="st0" x1="298.9" y1="353.2" x2="284.5" y2="362.2"/>
</g>
</svg>
