<?xml version="1.0" encoding="utf-8"?>
<!-- Generator: Adobe Illustrator 24.0.0, SVG Export Plug-In . SVG Version: 6.00 Build 0)  -->
<svg version="1.1" id="Layer_1" xmlns="http://www.w3.org/2000/svg" xmlns:xlink="http://www.w3.org/1999/xlink" x="0px" y="0px"
	 viewBox="0 0 900 900" style="enable-background:new 0 0 900 900;" xml:space="preserve">
<style type="text/css">
	.st0{fill:#FFFFFF;}
	.st1{fill:none;stroke:#183D54;stroke-width:5.1019;stroke-linecap:round;stroke-linejoin:round;stroke-miterlimit:10;}
	.st2{fill:none;stroke:#183D54;stroke-width:5;stroke-linecap:round;stroke-linejoin:round;stroke-miterlimit:10;}
	.st3{fill:#DCE7F2;}
	
		.st4{fill-rule:evenodd;clip-rule:evenodd;fill:#DCE7F2;stroke:#183D54;stroke-width:5;stroke-linecap:round;stroke-linejoin:round;stroke-miterlimit:10;}
	
		.st5{fill-rule:evenodd;clip-rule:evenodd;fill:#FFFFFF;stroke:#183D54;stroke-width:5;stroke-linecap:round;stroke-linejoin:round;stroke-miterlimit:10;}
	.st6{fill:none;stroke:#183D54;stroke-width:1.6683;stroke-linecap:round;stroke-linejoin:round;stroke-miterlimit:10;}
	.st7{fill:#183D54;}
	.st8{fill:#FFFFFF;stroke:#183D54;stroke-width:5;stroke-linecap:round;stroke-linejoin:round;stroke-miterlimit:10;}
	.st9{fill:#DCE7F2;stroke:#183D54;stroke-width:5;stroke-linecap:round;stroke-linejoin:round;stroke-miterlimit:10;}
	
		.st10{fill-rule:evenodd;clip-rule:evenodd;fill:none;stroke:#183D54;stroke-width:5;stroke-linecap:round;stroke-linejoin:round;stroke-miterlimit:10;}
	.st11{fill-rule:evenodd;clip-rule:evenodd;fill:#FFFFFF;}
	
		.st12{fill-rule:evenodd;clip-rule:evenodd;fill:#DCE7F2;stroke:#183D54;stroke-width:5.4241;stroke-linecap:round;stroke-linejoin:round;stroke-miterlimit:10;}
	
		.st13{fill-rule:evenodd;clip-rule:evenodd;fill:#F9D093;stroke:#183D54;stroke-width:5;stroke-linecap:round;stroke-linejoin:round;stroke-miterlimit:10;}
	.st14{fill:#35D0BA;}
	.st15{fill:#FFCD3C;}
	.st16{fill:#F3807B;}
	
		.st17{fill-rule:evenodd;clip-rule:evenodd;fill:#FFFFFF;stroke:#183D54;stroke-width:5.4241;stroke-linecap:round;stroke-linejoin:round;stroke-miterlimit:10;}
	.st18{fill:#35D0BA;stroke:#183D54;stroke-width:5;stroke-linecap:round;stroke-linejoin:round;stroke-miterlimit:10;}
	.st19{fill:#FFCD3C;stroke:#183D54;stroke-width:5;stroke-linecap:round;stroke-linejoin:round;stroke-miterlimit:10;}
	.st20{fill:#F3807B;stroke:#183D54;stroke-width:5;stroke-linecap:round;stroke-linejoin:round;stroke-miterlimit:10;}
	.st21{fill:#EFA0A0;stroke:#183D54;stroke-width:5;stroke-linecap:round;stroke-linejoin:round;stroke-miterlimit:10;}
	.st22{clip-path:url(#SVGID_2_);fill:#F7D186;}
	.st23{clip-path:url(#SVGID_4_);fill:#FF9234;}
	.st24{clip-path:url(#SVGID_6_);enable-background:new    ;}
	.st25{clip-path:url(#SVGID_8_);}
	.st26{clip-path:url(#SVGID_10_);}
	.st27{clip-path:url(#SVGID_12_);fill:#FFCD3C;}
	.st28{clip-path:url(#SVGID_14_);enable-background:new    ;}
	.st29{clip-path:url(#SVGID_16_);}
	.st30{clip-path:url(#SVGID_18_);}
	.st31{clip-path:url(#SVGID_20_);fill:#F3807B;}
	.st32{clip-path:url(#SVGID_22_);enable-background:new    ;}
	.st33{clip-path:url(#SVGID_24_);}
	.st34{clip-path:url(#SVGID_26_);}
	.st35{clip-path:url(#SVGID_28_);fill:#35D0BA;}
	.st36{clip-path:url(#SVGID_30_);fill:#D8AE64;}
	.st37{clip-path:url(#SVGID_32_);fill:#183D54;}
	.st38{clip-path:url(#SVGID_34_);fill:#183D54;}
	.st39{clip-path:url(#SVGID_36_);fill:#183D54;}
	.st40{clip-path:url(#SVGID_38_);fill:#183D54;}
	.st41{clip-path:url(#SVGID_40_);fill:#183D54;}
	.st42{clip-path:url(#SVGID_42_);fill:#183D54;}
	.st43{clip-path:url(#SVGID_44_);fill:#183D54;}
	.st44{clip-path:url(#SVGID_46_);fill:#183D54;}
	.st45{clip-path:url(#SVGID_48_);fill:#183D54;}
	.st46{clip-path:url(#SVGID_50_);fill:#183D54;}
</style>
<g>
	<g>
		<g>
			<path class="st0" d="M276.4,569c0.9-11.4-7.5-21.4-18.9-22.3c-4.8-0.4-9.3,0.9-13,3.3c-4.5-4.5-10.6-7.5-17.5-8.1
				c-15.5-1.3-29.1,10.2-30.4,25.7c-1.3,15.5,10.2,29.1,25.7,30.4c7.6,0.6,14.8-1.9,20.3-6.4c0.9,0.3,1.8,0.5,2.8,0.6
				c3.9,0.3,7.5-1.4,9.8-4.2C266.1,588.3,275.5,580,276.4,569"/>
			<path class="st1" d="M253.2,546.7c-3.2,0.4-6.2,1.5-8.8,3.2c-4.5-4.5-10.6-7.5-17.5-8.1c-13.9-1.1-26.3,8-29.6,21.1"/>
			<path class="st2" d="M196.6,567.6c-1.3,15.5,10.2,29.1,25.7,30.4c7.6,0.6,14.8-1.9,20.3-6.4c0.9,0.3,1.8,0.5,2.8,0.6
				c3.9,0.3,7.5-1.4,9.8-4.2c10.9,0.3,20.3-8,21.2-19"/>
			<path class="st0" d="M225.8,469.2c3.1-6.1,8.5-10.5,14.7-12.6"/>
			<path class="st1" d="M225.8,469.2c3.1-6.1,8.5-10.5,14.7-12.6"/>
			<path class="st0" d="M273.9,535.6c0.8,0.1,1.6,0.3,2.4,0.6c2.2,0.7,4.1,1.9,5.6,3.4"/>
			<path class="st1" d="M273.9,535.6c0.8,0.1,1.6,0.3,2.4,0.6c2.2,0.7,4.1,1.9,5.6,3.4"/>
			<path class="st3" d="M238.9,519.8c-0.3-2.7-1.3-5.3-3.1-7.5c-5-6.2-14.2-7.1-20.5-2c-1.4,1.2-2.6,2.5-3.5,4
				c0.8-2.6,2.4-5,4.6-6.8c6-4.8,14.8-4,19.5,1.9C238.4,512.5,239.4,516.2,238.9,519.8z"/>
			<path class="st1" d="M242.8,591.3c-1.5-0.7-2.8-1.8-3.8-3.1"/>
			<circle class="st0" cx="93.9" cy="542.8" r="7"/>
			<path class="st3" d="M101.6,543.8c-1.2,3.7-5.2,5.6-8.9,4.4c-3.7-1.2-5.6-5.2-4.4-8.9c0.2-0.6,0.5-1.2,0.9-1.7
				c-0.5,3.3,1.5,6.5,4.7,7.6c3,1,6.3-0.1,8-2.7C101.8,542.9,101.7,543.3,101.6,543.8z"/>
			<circle class="st2" cx="93.9" cy="542.8" r="7"/>
			<path class="st0" d="M150.1,405.6c-5.8,8.2-14.4,16.9-24.2,14.8c-4.3-9.8-15.5-16-26.1-14.6c-10.6,1.5-19.7,10.5-21.1,21.1
				c-13-0.1-25.5,9.6-28.7,22.3c-1.4,5.8-0.9,11.9,1.3,17.4c-0.2-0.1-0.3-0.1-0.5-0.2c-0.4-0.1-0.8-0.3-1.2-0.4
				c-4.1-1-8.3-0.4-11.9,1.7c-3.6,2.2-6.2,5.6-7.2,9.7c-2,7.9,2.5,16.2,10.2,18.8c0.4,0.1,0.8,0.3,1.2,0.4c2.5,0.6,5.1,0.6,7.4,0.1
				c2.8,4.5,7.1,8.1,12.5,10c3.8,1.3,7.7,1.6,11.5,1c1.6,1.5,3.3,2.8,5.2,3.9c9.9,5.7,23.4,4.3,32-3.2c5.7,8.2,16.5,12.5,26.2,10.4
				c0.7,10.1,10.3,18.8,20.4,18.6c-3.2,13.5,5.9,28.7,19.4,32.3c13.4,3.5,28.9-5.3,32.7-18.6c2.3,1.8,4.9,3.1,7.6,4.1
				c0.2,10.9,7.1,21.1,18,24.8c13.4,4.6,28-2.2,33.3-15.2c3.8,0.9,7.7,0.3,11-1.6"/>
			<path class="st1" d="M285.9,554c1.6-6.4-1.3-13-6.7-16.2c1.3-1.4,2.6-2.9,3.6-4.6c6.3-10,6.2-23.5-0.1-33.5
				c-3.6-5.6-3.5-5.3-2.8-12c0.8-8.8-2.6-17.7-8.7-24"/>
			<path class="st3" d="M62.3,504.4c-4.9-1.7-9-4.9-11.7-9.1l-0.7-1.1l-1.3,0.3c-2.2,0.5-4.4,0.4-6.7-0.1c-0.3-0.1-0.7-0.2-1.1-0.3
				c-6.9-2.4-11-9.5-9.3-16.4c0.9-3.5,3.1-6.5,6.3-8.3c2.2-1.3,4.8-1.9,7.4-1.8c-0.5,0.9-0.8,1.9-1.1,3c-2,8,2.7,16.5,10.9,19.2
				c0.5,0.2,0.9,0.3,1.3,0.4c2.1,0.5,4.3,0.7,6.5,0.4c3,4.1,7.2,7.3,12.1,8.9c3.5,1.2,7.1,1.6,10.7,1.2c1.4,1.2,3,2.3,4.6,3.2
				c1.4,0.8,3,1.5,4.5,2c4.6,1.6,9.6,1.9,14.3,1.2c-6.8,5.6-16.8,7.3-25.7,4.3c-1.5-0.5-2.9-1.1-4.2-1.9c-1.8-1-3.4-2.2-4.8-3.6
				l-0.7-0.6l-0.9,0.1C69.4,505.9,65.7,505.6,62.3,504.4z"/>
			<path class="st3" d="M176.1,566.8c-11.8-4-19.4-17.1-16.7-28.6l0.5-2.1l-2.3,0c-1.9,0-3.8-0.3-5.7-0.9c-7-2.4-12.3-8.8-12.9-15.5
				l-0.2-2l-2,0.4c-4,0.8-8.2,0.5-12.3-0.9c-4.9-1.7-9.1-4.7-11.9-8.6l-0.5-0.7c3.3-0.8,6.4-2.2,9.2-4.2c3,3.5,7,6.2,11.6,7.8
				c3.8,1.3,7.7,1.7,11.4,1.3c1.4,6.9,6.9,13.1,14.1,15.5c1.4,0.5,2.9,0.8,4.3,1c-1.6,11.8,6.3,24.5,18.2,28.5
				c0.5,0.2,1.1,0.4,1.6,0.5c8.7,2.3,18-0.3,24.5-6c-4,11.1-17.7,18.1-29.5,15C177,567.2,176.6,567,176.1,566.8z"/>
			<path class="st2" d="M279.2,563c-3.3,2-7.3,2.6-11,1.6c-5.3,13-19.9,19.8-33.3,15.2c-10.9-3.7-17.9-13.9-18-24.8
				c-2.7-0.9-5.3-2.3-7.6-4.1c-3.8,13.4-19.3,22.1-32.7,18.6c-13.4-3.5-22.6-18.7-19.4-32.3c-10.2,0.2-19.7-8.5-20.4-18.6
				c-9.7,2.1-20.5-2.2-26.2-10.4c-8.6,7.5-22.1,8.9-32,3.2c-1.9-1.1-3.6-2.4-5.2-3.9c-3.7,0.6-7.6,0.4-11.5-1
				c-5.4-1.8-9.7-5.5-12.5-10c-2.4,0.6-4.9,0.6-7.4-0.1c-0.1,0-0.1,0-0.2-0.1c-7.4-2-12.4-9.1-11.6-16.7c0.5-5.1,3.3-9.5,7.6-12
				c3.6-2.2,7.9-2.8,11.9-1.7c0.4,0.1,0.8,0.2,1.2,0.4c0.2,0.1,0.3,0.1,0.5,0.2c-2.1-5.5-2.7-11.7-1.3-17.4
				c3.2-12.7,15.6-22.3,28.7-22.3c1.5-10.6,10.6-19.6,21.1-21.1c10.6-1.5,21.8,4.8,26.1,14.6c6.9-4.8,16.4-1.7,19.2,6.1l1.9,6.6
				c1.9,6.5,5.6,12.3,10.8,16.6c8.7-5.4,20.1-1,22.9,8.9"/>
			<path class="st1" d="M81.7,442.9c-3.4-6-4.3-13.3-1.9-20.3c0.1-0.4,0.3-0.8,0.4-1.1"/>
			<path class="st0" d="M88.4,450.6c-0.6-0.5-1.2-1-1.8-1.5"/>
			<path class="st1" d="M88.4,450.6c-0.6-0.5-1.2-1-1.8-1.5"/>
			<path class="st3" d="M275.8,560c-2.9,1.6-6.2,2.1-9.4,1.3l-1.5-0.4l-0.5,1.3c-4.7,11.5-17.9,17.2-30.1,13.1
				c-9.7-3.3-16.4-12.2-16.7-22.1l0-1.2l-1.2-0.4c-2.6-0.9-4.9-2.1-6.9-3.7l-0.6-0.5c1.7-1.9,3.1-4.1,4-6.5c1.3,0.8,2.8,1.6,4.3,2.2
				c0.8,10.1,7.8,19,17.8,22.4c12.6,4.3,26.2-1.3,31.6-12.7c3.4,0.5,6.8-0.1,9.8-1.8c2-1.2,3.7-2.7,4.9-4.6"/>
			<path class="st1" d="M208.5,457.4c-0.1-0.3-0.2-0.6-0.3-0.9c-1.5-4.5-5-7.7-9.3-9.1c0.2-2-0.1-4.1-0.7-6.1
				c-1.9-5.8-6.8-9.7-12.7-11c0.5-4.2,0.2-8.5-1.2-12.8c-5.1-15.6-22.1-23.9-38-18.8c-15.9,5.2-24.7,22-19.7,37.6
				c0.8,2.5,1.9,4.8,3.3,6.9"/>
			<path class="st3" d="M120,501.3c5-4,9-9.5,11.3-16c6.2-18.3-3.5-38.1-21.8-44.3c-4.2-1.4-8.4-2-12.5-1.8
				c6.2-1.8,13.1-1.7,19.7,0.5c17.4,5.9,26.7,24.8,20.8,42.2C134.4,490.8,127.9,497.6,120,501.3z"/>
			<path class="st3" d="M211.1,530.1c-0.4-4.5-2.2-9-5.2-12.7c-8.5-10.5-24.1-12.1-34.8-3.4c-2.4,2-4.4,4.3-5.9,6.8
				c1.4-4.4,4-8.5,7.9-11.6c10.2-8.2,25-6.8,33.1,3.3C210.4,517.6,212,524,211.1,530.1z"/>
		</g>
		<g>
			<path class="st0" d="M191.7,472.1c11.1-6.8,14.5-21.3,7.7-32.4c-2.9-4.6-7.1-7.9-11.8-9.7c1.1-7.2-0.3-14.8-4.4-21.5
				c-9.3-15-29-19.7-44-10.4c-15,9.3-19.7,29-10.4,44c4.6,7.4,11.7,12.3,19.5,14.2c0.3,1,0.8,2,1.4,3c2.3,3.8,6.3,6,10.5,6.2
				C167.1,475.7,181,478.7,191.7,472.1z"/>
			<path class="st3" d="M161.4,465.2c-0.1-0.2-0.4-0.3-0.6-0.3c-3.4-0.3-6.6-2.1-8.6-5.2c-0.4-0.7-0.8-1.4-1-2.1
				c-0.1-0.3-0.3-0.5-0.6-0.5c-6.5-1.7-12.4-5.9-16.2-12c-2.8-4.6-4.1-9.7-4.1-14.7c0-1,1.4-1.2,1.7-0.3c0.7,2.1,1.6,4.2,2.8,6.1
				c3.8,6.2,9.7,10.3,16.2,12c0.3,0.1,0.5,0.3,0.6,0.5c0.3,0.7,0.6,1.4,1,2.1c1.9,3.1,5.1,5,8.6,5.2c0.2,0,0.5,0.1,0.6,0.3
				c6.1,8.5,17.8,10.9,26.8,5.3c3.4-2.1,5.9-5,7.5-8.3c0.4-0.8,1.6-0.5,1.6,0.4c-0.1,6.6-3.5,13-9.6,16.8
				C179.2,476.1,167.5,473.6,161.4,465.2z"/>
			<path class="st2" d="M201.8,445c3.2,10-0.7,21.3-10.1,27.1c-10.7,6.6-24.6,3.6-31.7-6.6c-4.2-0.2-8.1-2.4-10.5-6.2
				c-0.6-0.9-1-1.9-1.4-3c-7.8-1.9-14.9-6.8-19.5-14.2c-9.3-15-4.6-34.7,10.4-44c0,0,15.6-10.6,31,1.1"/>
		</g>
		<g>
			<path class="st4" d="M332.1,568.3c0-31.5-22.2-69.8-49.7-85.7c-13.9-8-26.5-8.7-35.5-3.3l0,0l-29.1,16l0,0
				c-9.2,5-14.9,16.1-14.9,32.1c0,31.5,22.2,69.8,49.7,85.7c13.9,8,26.5,8.7,35.5,3.3l29.4-16.2c0,0,0.1,0,0.1-0.1l0.2-0.1l0,0
				C326.6,594.9,332.1,583.9,332.1,568.3z"/>
			
				<ellipse transform="matrix(0.8632 -0.5049 0.5049 0.8632 -246.1893 203.5835)" class="st4" cx="252.6" cy="556.1" rx="40.4" ry="70"/>
			
				<ellipse transform="matrix(0.8632 -0.5049 0.5049 0.8632 -246.1893 203.5835)" class="st4" cx="252.6" cy="556.1" rx="28.2" ry="48.9"/>
			
				<ellipse transform="matrix(0.875 -0.4841 0.4841 0.875 -235.4171 193.7987)" class="st4" cx="257.6" cy="552.8" rx="21.4" ry="40.9"/>
			<path class="st5" d="M268.1,558.1c0.4-5.6-3.3-13.3-8.3-17.2c-2.9-2.3-5.6-2.7-7.4-1.6l0,0l-6.6,4.3l0,0
				c-1.2,0.8-2.1,2.3-2.2,4.6c-0.4,5.6,3.3,13.3,8.3,17.2c3,2.4,5.7,2.8,7.6,1.5l0,0l6.6-4.3l0-0.1
				C267.2,561.7,267.9,560.2,268.1,558.1z"/>
			
				<ellipse transform="matrix(0.875 -0.4841 0.4841 0.875 -237.2431 191.7023)" class="st5" cx="252.6" cy="555.2" rx="7.1" ry="13.6"/>
		</g>
		<g>
			<path class="st0" d="M461.7,671.8c5.6-1.1,11.8,1.9,14.3,7c2.6,5.1,1.3,11.8-2.9,15.7c4,5.7,3.5,14.1-1.1,19.4
				c-2.1,2.4-5,4-8.1,4.7c0.1,0,0.2,0.1,0.2,0.2c0.2,0.1,0.4,0.3,0.5,0.4c1.7,1.5,2.7,3.5,2.9,5.8c0.2,2.2-0.6,4.4-2.1,6.1
				c-2.9,3.3-7.9,3.8-11.4,1.2c-0.2-0.1-0.3-0.3-0.5-0.4c-1.1-0.9-1.8-2-2.3-3.3c-2.8,0.2-5.7-0.6-8.2-2.5c-1.7-1.3-3-2.9-3.9-4.7
				c-1.1-0.2-2.2-0.6-3.3-1.1c-5.5-2.6-9-9-8.3-15c-5.3,0-10.5-3.5-12.5-8.4c-4.7,2.8-11.4,1.2-14.4-3.3c-5,5.5-14.4,6.1-20.1,1.3
				c-5.6-4.8-6.5-14.3-1.7-20c-1.5-0.5-2.9-1.2-4.1-2.1c-4.9,3.2-11.4,3.3-16.4-0.4c-6.1-4.5-7.5-13-3.4-19.2
				c-1.6-1.4-2.5-3.3-2.6-5.4c-0.1-2.1,0.5-4.1,1.9-5.7c2.3-2.7,6.1-3.4,9.2-2c0.2-1,0.5-2,0.9-3c2.5-5.8,8.5-9.9,14.7-10.1
				c3.6-0.1,3.4-0.1,6.1-2.4c4.5-3.8,11.2-4.8,16.7-2.4c5.4,2.4,9.3,7.9,9.6,13.8"/>
			<path class="st6" d="M461.7,671.8c5.6-1.1,11.8,1.9,14.3,7c2.6,5.1,1.3,11.8-2.9,15.7c4,5.7,3.5,14.1-1.1,19.4
				c-2.1,2.4-5,4-8.1,4.7c0.1,0,0.2,0.1,0.2,0.2c0.2,0.1,0.4,0.3,0.5,0.4c1.7,1.5,2.7,3.5,2.9,5.8c0.2,2.2-0.6,4.4-2.1,6.1
				c-2.9,3.3-7.9,3.8-11.4,1.2c-0.2-0.1-0.3-0.3-0.5-0.4c-1.1-0.9-1.8-2-2.3-3.3c-2.8,0.2-5.7-0.6-8.2-2.5c-1.7-1.3-3-2.9-3.9-4.7
				c-1.1-0.2-2.2-0.6-3.3-1.1c-5.5-2.6-9-9-8.3-15c-5.3,0-10.5-3.5-12.5-8.4c-4.7,2.8-11.4,1.2-14.4-3.3c-5,5.5-14.4,6.1-20.1,1.3
				c-5.6-4.8-6.5-14.3-1.7-20c-1.5-0.5-2.9-1.2-4.1-2.1c-4.9,3.2-11.4,3.3-16.4-0.4c-6.1-4.5-7.5-13-3.4-19.2
				c-1.6-1.4-2.5-3.3-2.6-5.4c-0.1-2.1,0.5-4.1,1.9-5.7c2.3-2.7,6.1-3.4,9.2-2c0.2-1,0.5-2,0.9-3c2.5-5.8,8.5-9.9,14.7-10.1
				c3.6-0.1,3.4-0.1,6.1-2.4c3.6-3,8.6-4.2,13.2-3.4"/>
			<path class="st3" d="M439.9,719.9l-0.2-0.4l-0.5-0.1c-1-0.2-2-0.6-3-1c-0.7-0.3-1.4-0.8-2-1.2c-3.9-2.9-6.1-7.7-5.7-12.2
				c1.1,2.2,2.7,4.2,4.7,5.7c0.7,0.5,1.4,1,2.2,1.3c0.9,0.4,1.8,0.8,2.7,1c0.9,1.6,2.1,3.1,3.7,4.2c2.1,1.6,4.7,2.5,7.4,2.5
				c0.5,1,1.2,1.9,2.1,2.7c0.2,0.2,0.4,0.3,0.6,0.5c3.6,2.7,8.6,2.2,11.4-1c0.4-0.4,0.7-0.9,1-1.3c0.8,1.1,1.3,2.4,1.4,3.7
				c0.2,1.9-0.4,3.7-1.7,5.1c-2.4,2.7-6.7,3.1-9.7,0.9c-0.2-0.1-0.3-0.2-0.5-0.4c-0.9-0.8-1.6-1.7-2-2.8l-0.3-0.6l-0.7,0
				c-2.6,0.1-5.2-0.7-7.4-2.3C441.9,723,440.7,721.5,439.9,719.9z M357.3,654l0.4-0.6l-0.6-0.5c-1.3-1.2-2.2-2.8-2.3-4.5
				c-0.2-1.8,0.4-3.4,1.5-4.8c0.7-0.8,1.6-1.4,2.7-1.8c-0.4,1.1-0.6,2.3-0.5,3.5c0.2,1.8,0.9,3.5,2.2,4.9c-3.4,5.9-1.7,13.5,4,17.8
				c4.5,3.4,10.6,3.7,15.3,1c0.7,0.5,1.5,0.9,2.3,1.2c-0.8,1.2-1.3,2.4-1.6,3.8l-0.4-0.1c-1.3-0.4-2.5-1.1-3.7-1.9l-0.5-0.4
				l-0.5,0.3c-4.4,2.9-10.4,2.6-14.8-0.6C355.2,667.1,353.7,659.6,357.3,654z M382.6,693.2c-4.9-4.2-5.9-12.3-2.3-17.3
				c-0.5,4.5,1.2,9.3,4.8,12.4c0.2,0.2,0.5,0.4,0.7,0.6c5.3,3.9,13.2,3.6,17.8-0.7c0.5,0.6,1.1,1.1,1.7,1.6c3.2,2.4,7.6,2.9,11,1.5
				c0.9,1.7,2.3,3.3,4,4.6c2.1,1.5,4.4,2.5,6.9,2.7c0,1.8,0.3,3.5,0.9,5.2l-0.4,0c-2.5,0-5.1-1-7.3-2.6c-1.8-1.4-3.2-3.1-4.1-5.1
				l-0.4-1l-0.9,0.5c-3.1,1.8-7.5,1.4-10.6-0.9c-0.8-0.6-1.5-1.4-2.1-2.2l-0.7-1l-0.8,0.9c-4.2,4.6-12.2,5.2-17.4,1.3
				C383,693.5,382.8,693.3,382.6,693.2z"/>
			<path class="st3" d="M387.6,667.7c2.1-1.2,4.6-1.8,7.2-1.6c7.2,0.5,12.6,6.9,12.1,14.2c-0.1,1.7-0.5,3.2-1.2,4.7
				c1.5-1.9,2.5-4.3,2.7-7c0.5-7-4.6-13.1-11.5-13.6C393.4,664.2,390,665.4,387.6,667.7z"/>
			<circle class="st0" cx="417.7" cy="723" r="3.7"/>
			<path class="st6" d="M421.4,723c0,2.1-1.7,3.7-3.7,3.7c-2.1,0-3.7-1.7-3.7-3.7c0-2.1,1.7-3.7,3.7-3.7
				C419.7,719.3,421.4,721,421.4,723z"/>
			<path class="st0" d="M398.6,621.1c-4.6-0.8-9.6,0.4-13.2,3.4c-2.8,2.3-2.6,2.3-6.1,2.4c-6.3,0.2-12.3,4.4-14.7,10.1
				c-0.4,1-0.7,2-0.9,3c-3.1-1.4-6.9-0.7-9.2,2c-1.4,1.6-2.1,3.6-1.9,5.7c0.1,2.1,1.1,4,2.6,5.4c-4.1,6.3-2.7,14.7,3.4,19.2
				c5,3.7,11.5,3.6,16.4,0.4c1.2,0.9,2.6,1.6,4.1,2.1c-4.7,5.7-3.9,15.2,1.7,20c5.6,4.8,15.1,4.2,20.1-1.3c3,4.5,9.7,6.1,14.4,3.3
				c2,4.9,7.2,8.4,12.5,8.4c-0.7,6.1,2.8,12.4,8.3,15c1,0.5,2.1,0.9,3.3,1.1c0.9,1.8,2.2,3.5,3.9,4.7c2.5,1.8,5.4,2.6,8.2,2.5
				c0.5,1.2,1.2,2.3,2.3,3.3c0,0,0,0,0.1,0.1c3.1,2.6,7.7,2.7,10.8,0.1c2.1-1.8,3.2-4.4,3-7.1c-0.2-2.2-1.2-4.3-2.9-5.8
				c-0.2-0.2-0.3-0.3-0.5-0.4c-0.1-0.1-0.2-0.1-0.2-0.2c3.1-0.8,6-2.4,8.1-4.7c4.6-5.2,5.1-13.7,1.1-19.4c4.2-3.9,5.4-10.6,2.9-15.7
				c-2.6-5.1-8.7-8.1-14.3-7l0-0.5c3-28.3-29.5-46.2-51.8-28.6c1.7-3.2,2-6.9,1.1-10.3"/>
			<path class="st3" d="M439.3,721.9l-0.2-0.4l-0.5-0.1c-1-0.2-2.1-0.6-3.1-1c-0.7-0.4-1.4-0.8-2.1-1.3c-4-3-6.3-7.9-5.9-12.6
				c1.1,2.3,2.8,4.4,4.9,5.9c0.7,0.5,1.5,1,2.3,1.4c0.9,0.4,1.8,0.8,2.8,1c0.9,1.7,2.2,3.2,3.8,4.4c2.2,1.6,4.9,2.6,7.6,2.6
				c0.5,1,1.3,2,2.1,2.7c0.2,0.2,0.4,0.3,0.6,0.5c3.7,2.7,8.9,2.3,11.8-1.1c0.4-0.4,0.7-0.9,1-1.4c0.8,1.1,1.3,2.4,1.4,3.8
				c0.2,2-0.4,3.8-1.7,5.3c-2.5,2.8-6.9,3.2-10,0.9c-0.2-0.1-0.3-0.3-0.5-0.4c-0.9-0.8-1.6-1.8-2.1-2.9l-0.3-0.6l-0.7,0
				c-2.7,0.1-5.4-0.7-7.6-2.4C441.4,725.2,440.1,723.6,439.3,721.9z M354,654l0.4-0.7l-0.6-0.6c-1.4-1.2-2.2-2.9-2.4-4.7
				c-0.2-1.8,0.4-3.6,1.6-4.9c0.7-0.8,1.7-1.5,2.8-1.8c-0.5,1.1-0.6,2.4-0.5,3.7c0.2,1.9,1,3.6,2.3,5c-3.5,6.1-1.7,14,4.2,18.3
				c4.7,3.5,10.9,3.8,15.8,1c0.8,0.5,1.5,0.9,2.3,1.3c-0.8,1.2-1.4,2.5-1.7,3.9l-0.4-0.1c-1.3-0.4-2.6-1.1-3.8-2l-0.5-0.4l-0.6,0.4
				c-4.6,3-10.7,2.7-15.3-0.6C351.8,667.5,350.3,659.7,354,654z M380.2,694.4c-5.1-4.3-6.1-12.7-2.4-17.9c-0.5,4.7,1.2,9.6,4.9,12.8
				c0.2,0.2,0.5,0.4,0.7,0.6c5.5,4.1,13.6,3.7,18.4-0.7c0.5,0.6,1.1,1.1,1.8,1.6c3.3,2.5,7.8,3,11.3,1.5c1,1.8,2.4,3.4,4.1,4.7
				c2.1,1.6,4.6,2.5,7.1,2.8c0,1.8,0.3,3.7,1,5.4l-0.4,0c-2.6,0-5.3-1-7.5-2.7c-1.9-1.4-3.4-3.2-4.2-5.2l-0.4-1l-0.9,0.5
				c-3.2,1.8-7.7,1.4-11-1c-0.9-0.6-1.6-1.4-2.2-2.2l-0.7-1l-0.8,0.9c-4.3,4.8-12.6,5.4-18,1.4C380.6,694.7,380.4,694.6,380.2,694.4
				z"/>
			<path class="st2" d="M398.6,621.1c-4.6-0.8-9.6,0.4-13.2,3.4c-2.8,2.3-2.6,2.3-6.1,2.4c-6.3,0.2-12.3,4.4-14.7,10.1
				c-0.4,1-0.7,2-0.9,3c-3.1-1.4-6.9-0.7-9.2,2c-1.4,1.6-2.1,3.6-1.9,5.7c0.1,2.1,1.1,4,2.6,5.4c-4.1,6.3-2.7,14.7,3.4,19.2
				c5,3.7,11.5,3.6,16.4,0.4c1.2,0.9,2.6,1.6,4.1,2.1c-4.7,5.7-3.9,15.2,1.7,20c5.6,4.8,15.1,4.2,20.1-1.3c3,4.5,9.7,6.1,14.4,3.3
				c2,4.9,7.2,8.4,12.5,8.4c-0.7,6.1,2.8,12.4,8.3,15c1,0.5,2.1,0.9,3.3,1.1c0.9,1.8,2.2,3.5,3.9,4.7c2.5,1.8,5.4,2.6,8.2,2.5
				c0.5,1.2,1.2,2.3,2.3,3.3c0,0,0,0,0.1,0.1c3.1,2.6,7.7,2.7,10.8,0.1c2.1-1.8,3.2-4.4,3-7.1c-0.2-2.2-1.2-4.3-2.9-5.8
				c-0.2-0.2-0.3-0.3-0.5-0.4c-0.1-0.1-0.2-0.1-0.2-0.2c3.1-0.8,6-2.4,8.1-4.7c4.6-5.2,5.1-13.7,1.1-19.4c4.2-3.9,5.4-10.6,2.9-15.7
				s-8.7-8.1-14.3-7l0-0.5c3-28.3-29.5-46.2-51.8-28.6c1.7-3.2,2-6.9,1.1-10.3"/>
			<path class="st3" d="M387.6,667.7c2.1-1.2,4.6-1.8,7.2-1.6c7.2,0.5,12.6,6.9,12.1,14.2c-0.1,1.7-0.5,3.2-1.2,4.7
				c1.5-1.9,2.5-4.3,2.7-7c0.5-7-4.6-13.1-11.5-13.6C393.4,664.2,390,665.4,387.6,667.7z"/>
			<circle class="st0" cx="417.7" cy="723" r="3.7"/>
			<g>
				<path class="st7" d="M417.7,719.3c2.1,0,3.7,1.7,3.7,3.7c0,2.1-1.7,3.7-3.7,3.7c-2.1,0-3.7-1.7-3.7-3.7
					C413.9,721,415.6,719.3,417.7,719.3 M417.7,714.3c-4.8,0-8.7,3.9-8.7,8.7s3.9,8.7,8.7,8.7c4.8,0,8.7-3.9,8.7-8.7
					S422.5,714.3,417.7,714.3L417.7,714.3z"/>
			</g>
		</g>
		<g>
			<path class="st4" d="M550,692.8c0-31.5-22.2-69.8-49.7-85.7c-13.9-8-26.5-8.7-35.5-3.3l0,0l-29.1,16l0,0
				c-9.2,5-14.9,16.1-14.9,32.1c0,31.5,22.2,69.8,49.7,85.7c13.9,8,26.5,8.7,35.5,3.3l29.4-16.2c0,0,0.1,0,0.1-0.1l0.2-0.1l0,0
				C544.5,719.3,550,708.4,550,692.8z"/>
			
				<ellipse transform="matrix(0.8632 -0.5049 0.5049 0.8632 -279.2261 330.6278)" class="st4" cx="470.5" cy="680.5" rx="40.4" ry="70"/>
			
				<ellipse transform="matrix(0.8632 -0.5049 0.5049 0.8632 -279.2261 330.6278)" class="st4" cx="470.5" cy="680.5" rx="28.2" ry="48.9"/>
			
				<ellipse transform="matrix(0.875 -0.4841 0.4841 0.875 -268.4437 314.8604)" class="st4" cx="475.5" cy="677.2" rx="21.4" ry="40.9"/>
			<path class="st5" d="M486,682.6c0.4-5.6-3.3-13.3-8.3-17.2c-2.9-2.3-5.6-2.7-7.4-1.6l0,0l-6.6,4.3l0,0c-1.2,0.8-2.1,2.3-2.2,4.6
				c-0.4,5.6,3.3,13.3,8.3,17.2c3,2.4,5.7,2.8,7.6,1.5l0,0l6.6-4.3l0-0.1C485.1,686.2,485.8,684.7,486,682.6z"/>
			
				<ellipse transform="matrix(0.875 -0.4841 0.4841 0.875 -270.2696 312.7639)" class="st5" cx="470.5" cy="679.7" rx="7.1" ry="13.6"/>
		</g>
		<path class="st5" d="M731.4,537l-42-23.9L558.5,629.2l16.9,118.7l175.5-96.2l0.8-81.2C751.1,556.6,743.5,543.9,731.4,537z"/>
		<g>
			<path class="st0" d="M320.8,550.7c11.1-6.8,14.5-21.3,7.7-32.4c-2.9-4.6-7.1-7.9-11.8-9.7c1.1-7.2-0.3-14.8-4.4-21.5
				c-9.3-15-29-19.7-44-10.4c-15,9.3-19.7,29-10.4,44c4.6,7.4,11.7,12.3,19.5,14.2c0.3,1,0.8,2,1.4,3c2.3,3.8,6.3,6,10.5,6.2
				C296.2,554.3,310.1,557.3,320.8,550.7z"/>
			<path class="st3" d="M290.5,543.8c-0.1-0.2-0.4-0.3-0.6-0.3c-3.4-0.3-6.6-2.1-8.6-5.2c-0.4-0.7-0.8-1.4-1-2.1
				c-0.1-0.3-0.3-0.5-0.6-0.5c-6.5-1.7-12.4-5.9-16.2-12c-2.8-4.6-4.1-9.7-4.1-14.7c0-1,1.4-1.2,1.7-0.3c0.7,2.1,1.6,4.2,2.8,6.1
				c3.8,6.2,9.7,10.3,16.2,12c0.3,0.1,0.5,0.3,0.6,0.5c0.3,0.7,0.6,1.4,1,2.1c1.9,3.1,5.1,5,8.6,5.2c0.2,0,0.5,0.1,0.6,0.3
				c6.1,8.5,17.8,10.9,26.8,5.3c3.4-2.1,5.9-5,7.5-8.3c0.4-0.8,1.6-0.5,1.6,0.4c-0.1,6.6-3.5,13-9.6,16.8
				C308.3,554.6,296.6,552.2,290.5,543.8z"/>
			<path class="st2" d="M268.2,476.7c-15,9.3-19.7,29-10.4,44c4.6,7.4,11.7,12.3,19.5,14.2c0.3,1,0.8,2,1.4,3
				c2.3,3.8,6.3,6,10.5,6.2c7.1,10.2,21,13.2,31.7,6.6c9.4-5.8,13.3-17.1,10.1-27.1"/>
		</g>
		<g>
			<ellipse class="st0" cx="209" cy="492.3" rx="29.1" ry="29.1"/>
			<path class="st2" d="M180,491.1c-2.2-15.9,14.2-28.5,30.3-27.8c16,0.7,28.5,14.2,27.8,30.3c-0.7,16-14.2,28.5-30.3,27.8
				C207.8,521.4,184.3,523,180,491.1z"/>
			<path class="st1" d="M194.1,517.3c-1.9-1.1-3.6-2.5-5.2-4"/>
		</g>
		<path class="st5" d="M526.2,427.2l5.4,16.4l26.8,185.5c9.2,10.4,16.9,24.8,16.9,38.7v80l-44.5-25.7c0.4-3,0.6-6.3,0.6-9.7
			c0-37.6-26.6-83.5-59.4-102.4c-32.8-18.9-59.4-3.8-59.4,33.9c0,3.4,0.2,6.8,0.6,10.3l-53.9-31.1l-46.8-27.9
			c0.2-2.3,0.3-4.6,0.3-7.1c0-37.1-26.2-82.3-58.5-100.9c-32.3-18.7-58.5-3.7-58.5,33.4c0,2.4,0.1,4.9,0.4,7.5l-23.9-12.7V249.7"/>
		<path class="st5" d="M730.5,535.5l-19.2-158.8c-2-16.2-12.1-30.3-26.9-37.4L370.9,167.7c-4.9-2.3-10.6-2.3-15.4,0.1l-183.1,81.9
			L504,435.6c18,10.2,30,28.2,32.5,48.7l21.9,144.9L730.5,535.5z"/>
		<path class="st4" d="M714.1,494.9l-11-99.8c-0.9-7.1-8.7-11-14.8-7.4L554,459.9c-3.4,2-5.4,5.8-4.9,9.8l17.3,99.1
			c0.9,7.1,8.7,11,14.8,7.4l128-71.5C712.7,502.7,714.6,498.9,714.1,494.9z"/>
		<path class="st4" d="M468.6,525.5l55,31.8c3.3,1.9,7.3-0.7,6.9-4.5l-4.5-53.5c-2.3-21-14.4-39.6-32.7-50.2l-75-43.4
			c-5.8-3.4-13.1,0.8-13.1,7.5v75.5l40.8,23.6"/>
		<path class="st4" d="M300.1,429l60.1,34.8c3.6,2.1,8-0.8,7.5-4.9l1.1-62.3c0-5.5,2.1-15.8-11.9-24.1L245,310.8
			c-6.3-3.7-14.3,4.5-14.3,11.8v66.3l44.6,25.8"/>
		<line class="st5" x1="402.9" y1="507.8" x2="431.6" y2="523.3"/>
		<g>
			<path class="st3" d="M617.2,363.8L338.6,214.5c-9.8-5.4-28.3-23.5-28.3-23.5l-48.6,21.7l32.1,14.9c0,0-9.4,28.3,13.1,44.7
				l231.6,127.9c23.8,12.3,95.5,8.7,79.2-35.1L617.2,363.8z"/>
		</g>
		<g>
			<g>
				<path class="st8" d="M830.5,727.4l-88.7-50.6c-4-2.3-7.2-7.8-7.2-12.4V425.9c0-5.9-4.1-13-9.2-15.9v0c-2.2-1.2-4.1-1.5-5.7-1
					l0,0l-0.1,0.1c-0.4,0.1-0.8,0.4-1.2,0.6l-14,7.6c-2.1,0.8-3.4,2.9-3.4,6.3v243.3c0,8.8,6.2,19.5,13.9,23.9l110.2,63.1l15.2-8.2
					L830.5,727.4z"/>
				<path class="st9" d="M815.4,735.6L726.7,685c-4-2.3-7.2-7.8-7.2-12.4V434.1c0-5.9-4.1-13-9.2-15.9v0c-5.1-2.9-9.2-0.6-9.2,5.3
					v243.3c0,8.8,6.2,19.5,13.9,23.9l110.2,63.1L815.4,735.6z"/>
				<line class="st8" x1="815.4" y1="735.6" x2="830.5" y2="727.4"/>
			</g>
			<path class="st9" d="M702.3,647.1L670.9,629c-1.5-0.8-0.9-2.9,1.2-4.6l1.3-1.1c2.1-1.7,5-2.4,6.5-1.6l31.4,18.1L702.3,647.1z"/>
			<polygon class="st9" points="653.7,621.1 646.6,581.2 701,551.6 719.5,565.3 719.5,583.9 			"/>
			<line class="st8" x1="657.3" y1="600.2" x2="719.5" y2="565.3"/>
			<polygon class="st9" points="653.6,684.1 653.6,667.5 653.8,653.2 701.5,630.9 714.9,633.6 714.9,652.1 			"/>
			<line class="st8" x1="656" y1="661.6" x2="713.9" y2="633.8"/>
			<g>
				<path class="st8" d="M755.6,775.5L666.9,725c-4-2.3-7.2-7.8-7.2-12.4V474c0-5.9-4.1-13-9.2-15.9v0c-2.2-1.2-4.1-1.5-5.7-1l0,0
					l-0.1,0.1c-0.4,0.1-0.8,0.4-1.2,0.6l-14,7.6c-2.1,0.8-3.4,2.9-3.4,6.3v243.3c0,8.8,6.2,19.5,13.9,23.9l110.2,63.1l15.2-8.2
					L755.6,775.5z"/>
				<path class="st8" d="M644.6,672.3l-0.1-190.2c0-5.9-4.1-13-9.2-15.9l0,0c-5.1-2.9-9.2-0.6-9.2,5.3v243.3
					c0,8.8,6.2,19.5,13.9,23.9l110.2,63.1l-9.7-18.1l-88.7-50.6c-4-2.3-7.2-7.8-7.2-12.4v-51.2"/>
				<line class="st8" x1="644.6" y1="638.8" x2="644.6" y2="635.8"/>
				<line class="st8" x1="740.4" y1="783.7" x2="755.6" y2="775.5"/>
			</g>
		</g>
		<path class="st5" d="M304.2,502.5l-111-67c-5.4-3.1-4.7-8.6,1.5-12.2l28.6-16.5L354,485.1l-28.6,16.5
			C319.2,505.2,309.7,505.6,304.2,502.5z"/>
		<line class="st5" x1="214.2" y1="425.9" x2="314.3" y2="486.3"/>
		
			<ellipse transform="matrix(7.416457e-02 -0.9972 0.9972 7.416457e-02 -136.0498 1246.531)" class="st5" cx="603.3" cy="696.5" rx="20.2" ry="11.9"/>
		<polygon class="st3" points="215.8,323.4 248.9,342.9 292.7,317.8 257.9,297.6 		"/>
		<polygon class="st3" points="278.9,359.8 312,379.3 356,354.7 321.6,334.4 		"/>
		<polygon class="st0" points="312.3,379.6 345.4,399 389.4,374.4 354.9,354.1 		"/>
		<polygon class="st0" points="247.4,341.2 280.5,360.6 324.5,336 290,315.7 		"/>
		<polyline class="st10" points="184.5,306.4 227.9,280.6 391.4,372.1 342.5,399.8 		"/>
		<g>
			<polygon class="st11" points="189.8,329.5 339.3,419.3 339.8,430.3 325.3,427.6 282.4,402.6 199.2,352.3 			"/>
			<polyline class="st5" points="184.5,331.1 184.5,306.4 342.6,398.4 342.6,424.6 			"/>
			<path class="st5" d="M206.9,357.2c-2.3,2.1-5.1,3.4-8,3.4c-7.9,0-14.4-8.8-14.4-19.7v-19.7"/>
			<path class="st5" d="M229.6,370.3c-2.3,2.1-5.1,3.4-8,3.4c-7.9,0-14.4-8.8-14.4-19.7"/>
			<path class="st5" d="M251.3,382.3c-2.3,2.1-5.1,3.4-8,3.4c-7.9,0-14.4-8.8-14.4-19.7"/>
			<path class="st5" d="M273.9,394.3c-2.3,2.1-5.1,3.4-8,3.4c-7.9,0-14.4-8.8-14.4-19.7"/>
			<path class="st5" d="M296.3,408.8c-2.3,2.1-5.1,3.4-8,3.4c-7.9,0-14.4-8.8-14.4-19.7"/>
			<path class="st5" d="M318.8,422c-2.3,2.1-5.1,3.4-8,3.4c-7.9,0-14.4-8.8-14.4-19.7"/>
			<path class="st5" d="M342.6,420.2c0.6,10.2-2.7,13.5-2.7,13.5c-2.3,2.1-5,3.3-7.9,3.3c-7.9,0-14.4-8.8-14.4-19.7"/>
		</g>
		<line class="st4" x1="544.3" y1="437.8" x2="678.7" y2="366.2"/>
		<line class="st4" x1="215.3" y1="322.6" x2="258.4" y2="298.5"/>
		<line class="st4" x1="247" y1="342.8" x2="292.3" y2="317.4"/>
		<line class="st12" x1="279.3" y1="359.3" x2="322.4" y2="335.2"/>
		<line class="st12" x1="313.2" y1="378.2" x2="356.3" y2="354.1"/>
		<g>
			<path class="st13" d="M351.2,202.1L269,155.7c-2-1.1-3.6-1.8-3.6-5.1v-33.9c0-3.3,1.8-4.4,3.8-5.3l4.9-1.9c0,0,1.4-0.5,2.3-0.1
				c0.9,0.5,77.5,42.1,77.5,42.1"/>
			<path class="st4" d="M544.6,375.3c44,21.2,85.9-11,89.2-66.8c5.3-88.2-34.8-113.4-77.4-136.8c0,0-193.7-110.9-197.5-112.8
				c-3.8-1.9-9.4,0.3-9.4,0.3L329,67.3c-8.3,3.7-15.9,8.3-15.9,22.1v140.5c0,14.1,6.7,16.6,14.9,21.4L544.6,375.3z"/>
			<path class="st14" d="M327.9,251.3L493,138.1L355.2,58.8l-1.9,1.5l-42.2,16.2l2,161.1C313.1,237.7,313.8,249.4,327.9,251.3z"/>
			<path class="st15" d="M328.9,252.3L451.7,164c2.1-1.5,4.1-3.1,6-4.8c1.5-1.3,32.2-22.6,32.2-22.6l94.7,48.7l28.3,25.7
				c0,0-58.5,30-67.6,38.1c-21.3,19-96,72.4-96,72.4L328.9,252.3z"/>
			<g>
				<path class="st16" d="M448,320l95,55c0,0,46.5,23.5,76.3-25.3S635,236,603,203L448,320z"/>
			</g>
			<line class="st10" x1="327.4" y1="85" x2="500.8" y2="184.5"/>
			<line class="st4" x1="266.7" y1="114.7" x2="294.6" y2="129.8"/>
			<path class="st10" d="M544.6,375.3c44,21.2,85.9-11,89.2-66.8c5.3-88.2-34.8-113.4-77.4-136.8c0,0-193.7-110.9-197.5-112.8
				c-3.8-1.9-9.4,0.3-9.4,0.3L329,67.3c-8.3,3.7-15.9,8.3-15.9,22.1v140.5c0,14.1,6.7,16.6,14.9,21.4L544.6,375.3z"/>
		</g>
		<path class="st4" d="M516.4,582.4L516.4,582.4c-10.1,2.5-18.2-4.5-18.1-15.5l0.3-33.4c0.1-11.1,8.4-22.2,18.5-24.7v0
			c10.1-2.5,18.2,4.5,18.1,15.5l-0.3,33.4C534.8,568.8,526.5,579.9,516.4,582.4z"/>
		<path class="st4" d="M521.1,565.3L521.1,565.3c-4.6,1.1-8.3-2.1-8.2-7.2l0.3-15.2c0.1-5,3.9-10,8.5-11.1l0,0
			c4.6-1.1,8.3,2.1,8.2,7.2l-0.3,15.2C529.6,559.2,525.7,564.2,521.1,565.3z"/>
		<path class="st10" d="M602.8,335c0,25.4-18.2,46.1-40.6,46.1"/>
		<line class="st5" x1="212" y1="322.6" x2="212" y2="336.7"/>
		<line class="st5" x1="247.4" y1="344.4" x2="247.4" y2="355.1"/>
		<line class="st5" x1="278.9" y1="360.9" x2="278.9" y2="371.5"/>
		<line class="st17" x1="311.4" y1="381.1" x2="311.4" y2="391.7"/>
	</g>
	<g>
		<g>
			<path class="st0" d="M432.8,693.1c-3.8,0-7.4-1.7-9.8-4.5c-2.2-0.4-4.2-1.8-5.4-3.7c-0.1-0.2-0.2-0.4-0.3-0.5
				c-3.7-1.2-6.8-3.6-8.9-6.9c-2.3-3.7-3.1-8.2-2.1-12.5c1-4.3,3.6-8,7.3-10.3c2.6-1.7,5.7-2.5,8.8-2.5c5.7,0,11,2.9,14,7.7
				c1.7,2.8,2.6,6,2.5,9.2c1.9,1,3.5,2.5,4.7,4.4c1.8,2.9,2.4,6.3,1.6,9.7c-0.8,3.3-2.8,6.2-5.7,8
				C437.6,692.4,435.2,693.1,432.8,693.1C432.8,693.1,432.8,693.1,432.8,693.1z"/>
			<path class="st7" d="M422.5,654.7c4.7,0,9.2,2.3,11.9,6.6c1.8,2.9,2.4,6.2,2,9.4c2.1,0.8,3.9,2.2,5.2,4.2
				c3,4.8,1.6,11.2-3.3,14.2c-1.7,1.1-3.6,1.6-5.5,1.6c-3.3,0-6.4-1.5-8.4-4.4c-1.8-0.1-3.6-1-4.6-2.7c-0.3-0.4-0.5-0.9-0.6-1.3
				c-3.4-0.8-6.6-2.9-8.6-6.2c-4.1-6.6-2.1-15.2,4.4-19.3C417.4,655.4,419.9,654.7,422.5,654.7 M422.5,649.7c-3.6,0-7.1,1-10.1,2.9
				c-4.3,2.7-7.3,6.9-8.4,11.9c-1.1,4.9-0.3,10,2.4,14.3c2.2,3.5,5.5,6.2,9.3,7.6c1.4,2.2,3.6,3.7,6.1,4.4c2.9,3,6.9,4.8,11.1,4.8
				c2.9,0,5.7-0.8,8.1-2.3c3.5-2.2,5.9-5.6,6.8-9.5c0.9-4,0.2-8.1-1.9-11.6c-1.1-1.8-2.6-3.3-4.3-4.5c-0.2-3.2-1.1-6.3-2.9-9.1
				C435.1,653,429.1,649.7,422.5,649.7L422.5,649.7z"/>
		</g>
		<path class="st3" d="M424.8,685c-0.1-0.1-0.2-0.1-0.3-0.2c-1.5-0.1-2.9-0.9-3.8-2.3c-0.2-0.3-0.3-0.6-0.5-0.9
			c0-0.1-0.1-0.2-0.3-0.2c-2.9-0.7-5.4-2.5-7.1-5.2c-1.3-2-1.8-4.2-1.8-6.4c0-0.4,0.6-0.5,0.7-0.1c0.3,0.9,0.7,1.8,1.3,2.7
			c1.7,2.7,4.3,4.5,7.1,5.2c0.1,0,0.2,0.1,0.3,0.2c0.1,0.3,0.3,0.6,0.5,0.9c0.9,1.4,2.3,2.2,3.8,2.3c0.1,0,0.2,0.1,0.3,0.2
			c2.7,3.7,7.8,4.7,11.8,2.2c1.5-0.9,2.6-2.2,3.3-3.7c0.2-0.4,0.7-0.2,0.7,0.2c0,2.9-1.5,5.7-4.1,7.4
			C432.6,689.7,427.5,688.7,424.8,685z"/>
	</g>
	<line class="st2" x1="417.6" y1="187.7" x2="437.3" y2="173.8"/>
	<line class="st2" x1="382.1" y1="212.9" x2="404" y2="197.4"/>
	<line class="st2" x1="327.9" y1="251.3" x2="382.1" y2="212.9"/>
	<line class="st2" x1="448.3" y1="320.3" x2="544.3" y2="247.9"/>
	<path class="st10" d="M560.2,212.9l3,2c16.4,11,27.7,28,31.5,47.4l0,0"/>
	<g>
		<g>
			<path class="st18" d="M644.6,693.5c-0.3-3.7,1.7-7.2,6.2-9.8l68.3-39.4c9.2-5.3,25.4-4.7,36.1,1.5l62.5,36.1
				c5.8,3.4,8.8,7.7,8.8,11.7h0v30h0c0.2,3.5-1.9,6.9-6.2,9.4L752,772.5c-9.2,5.3-25.4,4.7-36.1-1.5l-62.5-36.1
				c-6.2-3.6-9.2-8.2-8.8-12.5V693.5z"/>
			<path class="st8" d="M697.2,729.8l18.7,10.8c10.7,6.2,26.8,6.8,36.1,1.5l68.3-39.4c9.2-5.3,8.1-14.7-2.6-20.8l-62.5-36.1
				c-10.7-6.2-26.8-6.8-36.1-1.5l-68.3,39.4c-9.2,5.3-8.1,14.7,2.6,20.8l31.1,18"/>
		</g>
	</g>
	<g>
		<g>
			<path class="st19" d="M644.6,663.9c-0.3-3.7,1.7-7.2,6.2-9.8l68.3-39.4c9.2-5.3,25.4-4.7,36.1,1.5l62.5,36.1
				c5.8,3.4,8.8,7.7,8.8,11.7h0v30h0c0.2,3.5-1.9,6.9-6.2,9.4L752,742.8c-9.2,5.3-25.4,4.7-36.1-1.5l-62.5-36.1
				c-6.2-3.6-9.2-8.2-8.8-12.5V663.9z"/>
			<path class="st8" d="M697.2,700.2l18.7,10.8c10.7,6.2,26.8,6.8,36.1,1.5l68.3-39.4c9.2-5.3,8.1-14.7-2.6-20.8l-62.5-36.1
				c-10.7-6.2-26.8-6.8-36.1-1.5l-68.3,39.4c-9.2,5.3-8.1,14.7,2.6,20.8l31.1,18"/>
		</g>
	</g>
	<g>
		<g>
			<path class="st20" d="M644.6,633.4c-0.3-3.7,1.7-7.2,6.2-9.8l68.3-39.4c9.2-5.3,25.4-4.7,36.1,1.5l62.5,36.1
				c5.8,3.4,8.8,7.7,8.8,11.7h0v30h0c0.2,3.5-1.9,6.9-6.2,9.4L752,712.3c-9.2,5.3-25.4,4.7-36.1-1.5l-62.5-36.1
				c-6.2-3.6-9.2-8.2-8.8-12.5V633.4z"/>
			<path class="st21" d="M697.2,669.6l18.7,10.8c10.7,6.2,26.8,6.8,36.1,1.5l68.3-39.4c9.2-5.3,8.1-14.7-2.6-20.8l-62.5-36.1
				c-10.7-6.2-26.8-6.8-36.1-1.5l-68.3,39.4c-9.2,5.3-8.1,14.7,2.6,20.8l31.1,18"/>
		</g>
	</g>
</g>
<g>
	<g>
		<defs>
			<path id="SVGID_1_" d="M357.2,516.8c-1.3-0.7-2.4,0.1-2.5,1.7l-1.2,27.4c-0.1,1.6,0.9,3.5,2.2,4.1c1.3,0.7,2.4-0.1,2.5-1.7
				l1.2-27.4C359.5,519.3,358.5,517.4,357.2,516.8"/>
		</defs>
		<clipPath id="SVGID_2_">
			<use xlink:href="#SVGID_1_"  style="overflow:visible;"/>
		</clipPath>
		<polygon class="st22" points="351.6,550 359.6,554.1 361.3,516.8 353.3,512.6 		"/>
	</g>
	<g>
		<defs>
			<path id="SVGID_3_" d="M366.8,518.1c0-0.2,0-0.4,0-0.5c0-0.2,0-0.4,0-0.5c0.1-6.3-3.8-13.3-8.8-16c-5-2.6-9.3,0.2-9.8,6.2
				c0,0.2,0,0.4,0,0.5c0,0.2,0,0.4,0,0.6c0,0.1,0,0.2,0,0.3l-0.9,19.1c-0.2,3.6,2.1,7.9,5,9.4l8,4.2c2.9,1.5,5.5-0.2,5.6-3.8
				l0.9-19.1C366.8,518.3,366.8,518.2,366.8,518.1"/>
		</defs>
		<clipPath id="SVGID_4_">
			<use xlink:href="#SVGID_3_"  style="overflow:visible;"/>
		</clipPath>
		<polygon class="st23" points="345.2,535.6 367.1,547 369.1,504.7 347.1,493.2 		"/>
	</g>
	<g>
		<defs>
			<path id="SVGID_5_" d="M348.2,507.3c0,0.2,0,0.4,0,0.5c0,0.2,0,0.4,0,0.6c0,0.1,0,0.2,0,0.3l-0.9,19.1c-0.2,3.6,2.1,7.9,5,9.4
				l8,4.2c2.9,1.5,5.5-0.2,5.6-3.8l0.9-19.1c0-0.1,0-0.2,0-0.3c0-0.2,0-0.4,0-0.5c0-0.2,0-0.4,0-0.5c0.1-6.3-3.8-13.3-8.8-16
				C353,498.4,348.7,501.2,348.2,507.3z"/>
		</defs>
		<clipPath id="SVGID_6_">
			<use xlink:href="#SVGID_5_"  style="overflow:visible;"/>
		</clipPath>
		<g class="st24">
			<g>
				<defs>
					<polygon id="SVGID_7_" points="340.8,533.3 371.1,549.2 372.9,511.4 342.5,495.5 					"/>
				</defs>
				<clipPath id="SVGID_8_">
					<use xlink:href="#SVGID_7_"  style="overflow:visible;"/>
				</clipPath>
				<g class="st25">
					<defs>
						<polygon id="SVGID_9_" points="372.5,520.3 348,537 341.5,524.9 366,508.2 						"/>
					</defs>
					<clipPath id="SVGID_10_">
						<use xlink:href="#SVGID_9_"  style="overflow:visible;"/>
					</clipPath>
					<g class="st26">
						<defs>
							<polygon id="SVGID_11_" points="346.8,534.3 366,544.3 367.7,505.8 348.6,495.8 							"/>
						</defs>
						<clipPath id="SVGID_12_">
							<use xlink:href="#SVGID_11_"  style="overflow:visible;"/>
						</clipPath>
						<polygon class="st27" points="339.4,534.6 372.7,552.1 374.6,510.6 341.2,493.2 						"/>
					</g>
				</g>
			</g>
		</g>
	</g>
	<g>
		<defs>
			<path id="SVGID_13_" d="M348.2,507.3c0,0.2,0,0.4,0,0.5c0,0.2,0,0.4,0,0.6c0,0.1,0,0.2,0,0.3l-0.9,19.1c-0.2,3.6,2.1,7.9,5,9.4
				l8,4.2c2.9,1.5,5.5-0.2,5.6-3.8l0.9-19.1c0-0.1,0-0.2,0-0.3c0-0.2,0-0.4,0-0.5c0-0.2,0-0.4,0-0.5c0.1-6.3-3.8-13.3-8.8-16
				C353,498.4,348.7,501.2,348.2,507.3z"/>
		</defs>
		<clipPath id="SVGID_14_">
			<use xlink:href="#SVGID_13_"  style="overflow:visible;"/>
		</clipPath>
		<g class="st28">
			<g>
				<defs>
					<polygon id="SVGID_15_" points="332.9,520.8 364.9,537.5 366.7,497.7 334.7,480.9 					"/>
				</defs>
				<clipPath id="SVGID_16_">
					<use xlink:href="#SVGID_15_"  style="overflow:visible;"/>
				</clipPath>
				<g class="st29">
					<defs>
						<polygon id="SVGID_17_" points="366,508.2 341.5,524.9 333.4,509.8 357.9,493.1 						"/>
					</defs>
					<clipPath id="SVGID_18_">
						<use xlink:href="#SVGID_17_"  style="overflow:visible;"/>
					</clipPath>
					<g class="st30">
						<defs>
							<polygon id="SVGID_19_" points="346.8,534.3 366,544.3 367.7,505.8 348.6,495.8 							"/>
						</defs>
						<clipPath id="SVGID_20_">
							<use xlink:href="#SVGID_19_"  style="overflow:visible;"/>
						</clipPath>
						<polygon class="st31" points="331.2,521.6 366.2,539.9 368.2,496.3 333.2,478 						"/>
					</g>
				</g>
			</g>
		</g>
	</g>
	<g>
		<defs>
			<path id="SVGID_21_" d="M348.2,507.3c0,0.2,0,0.4,0,0.5c0,0.2,0,0.4,0,0.6c0,0.1,0,0.2,0,0.3l-0.9,19.1c-0.2,3.6,2.1,7.9,5,9.4
				l8,4.2c2.9,1.5,5.5-0.2,5.6-3.8l0.9-19.1c0-0.1,0-0.2,0-0.3c0-0.2,0-0.4,0-0.5c0-0.2,0-0.4,0-0.5c0.1-6.3-3.8-13.3-8.8-16
				C353,498.4,348.7,501.2,348.2,507.3z"/>
		</defs>
		<clipPath id="SVGID_22_">
			<use xlink:href="#SVGID_21_"  style="overflow:visible;"/>
		</clipPath>
		<g class="st32">
			<g>
				<defs>
					<polygon id="SVGID_23_" points="347.3,545.5 377.7,561.4 379.4,523.6 349,507.8 					"/>
				</defs>
				<clipPath id="SVGID_24_">
					<use xlink:href="#SVGID_23_"  style="overflow:visible;"/>
				</clipPath>
				<g class="st33">
					<defs>
						<polygon id="SVGID_25_" points="378.9,532.5 354.5,549.2 348,537.1 372.5,520.4 						"/>
					</defs>
					<clipPath id="SVGID_26_">
						<use xlink:href="#SVGID_25_"  style="overflow:visible;"/>
					</clipPath>
					<g class="st34">
						<defs>
							<polygon id="SVGID_27_" points="346.8,534.3 366,544.3 367.7,505.8 348.6,495.8 							"/>
						</defs>
						<clipPath id="SVGID_28_">
							<use xlink:href="#SVGID_27_"  style="overflow:visible;"/>
						</clipPath>
						<polygon class="st35" points="345.9,546.8 379.2,564.2 381.1,522.8 347.7,505.3 						"/>
					</g>
				</g>
			</g>
		</g>
	</g>
	<g>
		<defs>
			<path id="SVGID_29_" d="M354.5,538.4l3.8,7.2l0.2-5.1C358.5,540.4,354.4,538.3,354.5,538.4"/>
		</defs>
		<clipPath id="SVGID_30_">
			<use xlink:href="#SVGID_29_"  style="overflow:visible;"/>
		</clipPath>
		<polygon class="st36" points="352.5,544.6 359.9,548.4 360.3,539.2 352.9,535.4 		"/>
	</g>
	<g>
		<defs>
			<path id="SVGID_31_" d="M385.9,551.6c-6-3.1-10.5-11.7-10.2-19.1c0.3-7.4,5.4-10.9,11.4-7.8c3.1,1.6,6,4.9,7.9,8.8
				c0.6,1.3,0.5,2.6-0.3,3.1c-0.8,0.5-1.9-0.3-2.5-1.5c-1.3-2.7-3.2-4.8-5.3-5.9c-4-2.1-7.4,0.2-7.6,5.2c-0.2,5,2.9,10.7,6.8,12.8
				c2.1,1.1,4.1,1,5.6-0.2c0.7-0.6,1.8-0.1,2.5,1.1c0.7,1.2,0.7,2.6,0,3.2C392,553.1,389,553.2,385.9,551.6"/>
		</defs>
		<use xlink:href="#SVGID_31_"  style="overflow:visible;fill-rule:evenodd;clip-rule:evenodd;fill:#183D54;"/>
		<clipPath id="SVGID_32_">
			<use xlink:href="#SVGID_31_"  style="overflow:visible;"/>
		</clipPath>
		<polygon class="st37" points="373.3,547.1 396,559 397.4,527.9 374.7,516.1 		"/>
	</g>
	<g>
		<defs>
			<path id="SVGID_33_" d="M406.9,543.7c-0.1,1.2-0.9,1.8-1.9,1.3c-2-1-3.5,0.2-3.7,2.9l-0.4,9.3c-0.1,1.2-0.9,1.8-1.9,1.3
				c-1-0.5-1.7-1.9-1.7-3.2l0.8-16.7c0.1-1.2,0.9-1.8,1.9-1.3c0.8,0.4,1.5,1.5,1.6,2.5c1.1-0.2,2.3,0,3.6,0.6
				C406.2,541,406.9,542.5,406.9,543.7"/>
		</defs>
		<use xlink:href="#SVGID_33_"  style="overflow:visible;fill-rule:evenodd;clip-rule:evenodd;fill:#183D54;"/>
		<clipPath id="SVGID_34_">
			<use xlink:href="#SVGID_33_"  style="overflow:visible;"/>
		</clipPath>
		<polygon class="st38" points="395.5,558.7 407.6,565 408.7,539.8 396.6,533.5 		"/>
	</g>
	<g>
		<defs>
			<path id="SVGID_35_" d="M415.1,567c-4.7-2.4-8.2-9.2-8-15c0.3-5.8,4.3-8.6,8.9-6.1c4.7,2.4,8.3,9.2,8,15
				C423.8,566.7,419.8,569.4,415.1,567 M415.9,550.3c-2.7-1.4-5,0.2-5.2,3.6c-0.2,3.3,1.9,7.2,4.6,8.6c2.7,1.4,5-0.2,5.2-3.5
				C420.6,555.6,418.6,551.7,415.9,550.3"/>
		</defs>
		<use xlink:href="#SVGID_35_"  style="overflow:visible;fill-rule:evenodd;clip-rule:evenodd;fill:#183D54;"/>
		<clipPath id="SVGID_36_">
			<use xlink:href="#SVGID_35_"  style="overflow:visible;"/>
		</clipPath>
		<polygon class="st39" points="404.9,563.7 425.2,574.3 426.3,549.1 406.1,538.5 		"/>
	</g>
	<g>
		<defs>
			<path id="SVGID_37_" d="M426.7,569c-0.4-1.3,0.1-2.5,1-2.5c0.9-0.1,2,1,2.3,2.3c0.2,0.7,0.9,1.8,2.1,2.4c1.7,0.9,2.3-0.1,2.3-0.9
				c0.1-1.1-0.2-1.6-2.5-3.6c-1.1-0.9-2.2-1.8-3.1-3.1c-1.2-1.7-1.9-3.7-1.8-5.7c0.1-1.6,0.7-2.9,1.7-3.5c1.1-0.7,2.5-0.6,4.1,0.2
				c2.3,1.2,4.2,3.6,4.9,6.3c0.4,1.3-0.1,2.4-1,2.5c-0.9,0.1-2-1-2.3-2.3c-0.2-0.6-0.7-1.5-1.8-2c-1.4-0.7-2,0.1-2,0.7
				c0,0.8,0.1,1.1,2.3,3.1c2,1.7,5.3,4.4,5.1,9.3c-0.1,1.6-0.7,3-1.7,3.7c-0.8,0.5-2.2,0.9-4.4-0.2
				C429.5,574.4,427.5,571.8,426.7,569"/>
		</defs>
		<use xlink:href="#SVGID_37_"  style="overflow:visible;fill-rule:evenodd;clip-rule:evenodd;fill:#183D54;"/>
		<clipPath id="SVGID_38_">
			<use xlink:href="#SVGID_37_"  style="overflow:visible;"/>
		</clipPath>
		<polygon class="st40" points="424.6,573.9 439.3,581.6 440.4,556.4 425.8,548.7 		"/>
	</g>
	<g>
		<defs>
			<path id="SVGID_39_" d="M440.9,576.4c-0.4-1.3,0.1-2.5,1-2.5c0.9-0.1,2,1,2.3,2.3c0.2,0.7,0.9,1.8,2.1,2.4
				c1.7,0.9,2.3-0.1,2.3-0.9c0.1-1.1-0.2-1.6-2.5-3.6c-1.1-0.9-2.2-1.8-3.1-3.1c-1.2-1.7-1.9-3.7-1.8-5.7c0.1-1.6,0.7-2.9,1.7-3.5
				c1.1-0.7,2.5-0.6,4.1,0.2c2.3,1.2,4.2,3.6,4.9,6.3c0.4,1.3-0.1,2.4-1,2.5c-0.9,0.1-2-1-2.3-2.3c-0.2-0.6-0.7-1.5-1.8-2
				c-1.4-0.7-2,0.1-2,0.7c0,0.8,0.1,1.1,2.3,3.1c2,1.7,5.3,4.4,5.1,9.3c-0.1,1.6-0.7,3-1.7,3.7c-0.8,0.5-2.2,0.9-4.4-0.2
				C443.6,581.8,441.6,579.2,440.9,576.4"/>
		</defs>
		<use xlink:href="#SVGID_39_"  style="overflow:visible;fill-rule:evenodd;clip-rule:evenodd;fill:#183D54;"/>
		<clipPath id="SVGID_40_">
			<use xlink:href="#SVGID_39_"  style="overflow:visible;"/>
		</clipPath>
		<polygon class="st41" points="438.8,581.3 453.4,589 454.6,563.8 439.9,556.1 		"/>
	</g>
	<g>
		<defs>
			<path id="SVGID_41_" d="M471.3,585.4c-0.1,2.8-1,5-2.6,6.2c-1.6,1.2-3.7,1.3-6,0.1c-1.6-0.9-3.1-2.3-4.4-4l-0.4,9
				c-0.1,1.2-0.9,1.8-1.9,1.3c-1-0.5-1.7-1.9-1.7-3.2l1.2-26.2c0.1-1.2,0.9-1.8,1.9-1.3c0.8,0.4,1.5,1.5,1.7,2.6
				c1.4-0.4,3-0.2,4.6,0.6c2.3,1.2,4.3,3.4,5.7,6.2C470.7,579.5,471.4,582.6,471.3,585.4 M467.7,583.5c0.2-3.5-1.6-7.1-4.2-8.4
				c-2.6-1.4-4.6,0.2-4.7,3.8c-0.2,3.5,1.6,7.1,4.2,8.4C465.5,588.6,467.5,587,467.7,583.5"/>
		</defs>
		<use xlink:href="#SVGID_41_"  style="overflow:visible;fill-rule:evenodd;clip-rule:evenodd;fill:#183D54;"/>
		<clipPath id="SVGID_42_">
			<use xlink:href="#SVGID_41_"  style="overflow:visible;"/>
		</clipPath>
		<polygon class="st42" points="452.5,598.3 471.9,608.4 473.5,573.7 454,563.5 		"/>
	</g>
	<g>
		<defs>
			<path id="SVGID_43_" d="M475.5,598.4c-1-0.5-1.7-1.9-1.7-3.2l1-22.4c0.1-1.2,0.9-1.8,1.9-1.3c1,0.5,1.8,1.9,1.7,3.2l-1,22.4
				C477.3,598.4,476.5,598.9,475.5,598.4"/>
		</defs>
		<use xlink:href="#SVGID_43_"  style="overflow:visible;fill-rule:evenodd;clip-rule:evenodd;fill:#183D54;"/>
		<clipPath id="SVGID_44_">
			<use xlink:href="#SVGID_43_"  style="overflow:visible;"/>
		</clipPath>
		<polygon class="st43" points="472,598.7 478.9,602.3 480.3,571.3 473.4,567.7 		"/>
	</g>
	<g>
		<defs>
			<path id="SVGID_45_" d="M497.2,590.4l-0.8,16.7c-0.1,1.2-0.9,1.8-1.9,1.3c-0.9-0.5-1.5-1.5-1.7-2.6c-1.3,0.4-2.9,0.2-4.6-0.6
				c-2.3-1.2-4.3-3.4-5.7-6.2c-1.3-2.7-2-5.7-1.9-8.5c0.1-2.8,1-5.1,2.6-6.2c1.6-1.3,3.7-1.3,6-0.1c1.7,0.9,3.2,2.3,4.4,4.1
				c0.2-0.9,1-1.3,1.8-0.8C496.5,587.8,497.3,589.2,497.2,590.4 M493.3,596.9c0.2-3.6-1.6-7.1-4.2-8.5c-2.6-1.4-4.6,0.2-4.8,3.8
				c-0.2,3.5,1.6,7.1,4.2,8.4C491.1,602,493.1,600.5,493.3,596.9"/>
		</defs>
		<use xlink:href="#SVGID_45_"  style="overflow:visible;fill-rule:evenodd;clip-rule:evenodd;fill:#183D54;"/>
		<clipPath id="SVGID_46_">
			<use xlink:href="#SVGID_45_"  style="overflow:visible;"/>
		</clipPath>
		<polygon class="st44" points="478.5,602.1 497.9,612.2 499.1,587 479.6,576.9 		"/>
	</g>
	<g>
		<defs>
			<path id="SVGID_47_" d="M514,606.3l-0.4,9.7c-0.1,1.2-0.9,1.8-1.9,1.3c-1-0.5-1.7-1.9-1.7-3.2l0.4-9.7c0.1-2.3-0.8-5.2-3.1-6.4
				c-2.1-1.1-3.7,0.1-3.8,2.8l0,0.2l0,0.2l-0.4,9.4c-0.1,1.2-0.9,1.8-1.9,1.3c-1-0.5-1.7-1.9-1.7-3.2l0.4-9.5l0-0.3l0.3-6.9
				c0.1-1.2,0.9-1.8,1.9-1.3c0.7,0.4,1.3,1.2,1.6,2.2c1.1-0.3,2.4-0.1,3.8,0.7C511.5,595.6,514.3,601.1,514,606.3"/>
		</defs>
		<use xlink:href="#SVGID_47_"  style="overflow:visible;fill-rule:evenodd;clip-rule:evenodd;fill:#183D54;"/>
		<clipPath id="SVGID_48_">
			<use xlink:href="#SVGID_47_"  style="overflow:visible;"/>
		</clipPath>
		<polygon class="st45" points="497.7,612.1 515.1,621.2 516.2,596 498.8,586.9 		"/>
	</g>
	<g>
		<defs>
			<path id="SVGID_49_" d="M524.3,624.1c-2.3-1.2-4.3-3.5-5.7-6.4c-1.4-2.7-2-5.7-1.9-8.5c0.3-6.1,3.9-8.8,8.4-6.4
				c4.5,2.4,7.6,8.5,7.3,14.7c-0.1,1.2-0.9,1.8-1.9,1.3l-10.1-5.3c0.5,2.7,2,5.1,4,6.2c1.2,0.6,2.2,0.8,3,0.4
				c0.2-0.1,0.4-0.4,0.6-0.7c0.6-0.8,1.7-0.5,2.5,0.5c0.8,1.1,1,2.6,0.5,3.4C529.6,625.7,527.2,625.6,524.3,624.1 M520.7,609
				l8.1,4.2c-0.5-3-2.1-5.1-3.8-6C523.3,606.4,521.4,606.7,520.7,609"/>
		</defs>
		<use xlink:href="#SVGID_49_"  style="overflow:visible;fill-rule:evenodd;clip-rule:evenodd;fill:#183D54;"/>
		<clipPath id="SVGID_50_">
			<use xlink:href="#SVGID_49_"  style="overflow:visible;"/>
		</clipPath>
		<polygon class="st46" points="514.5,621.1 533.5,631.1 534.7,605.8 515.7,595.8 		"/>
	</g>
</g>
</svg>
