<?xml version="1.0" encoding="utf-8"?>
<!-- Generator: Adobe Illustrator 23.0.3, SVG Export Plug-In . SVG Version: 6.00 Build 0)  -->
<svg version="1.1" id="Layer_1" xmlns="http://www.w3.org/2000/svg" xmlns:xlink="http://www.w3.org/1999/xlink" x="0px" y="0px"
	 viewBox="0 0 800 800" style="enable-background:new 0 0 800 800;" xml:space="preserve">
<style type="text/css">
	.st0{display:none;}
	.st1{display:inline;fill:#183D54;}
	.st2{clip-path:url(#SVGID_2_);}
	.st3{clip-path:url(#SVGID_4_);}
	.st4{clip-path:url(#SVGID_6_);}
	.st5{clip-path:url(#SVGID_8_);}
	.st6{clip-path:url(#SVGID_10_);}
	.st7{clip-path:url(#SVGID_12_);}
	.st8{clip-path:url(#SVGID_14_);}
	.st9{clip-path:url(#SVGID_16_);}
	.st10{clip-path:url(#SVGID_18_);}
	.st11{clip-path:url(#SVGID_20_);}
	.st12{display:inline;}
</style>
<g class="st0">
	<rect class="st1" width="800" height="800"/>
</g>
<g>
	<g>
		<g>
			<defs>
				<path id="SVGID_1_" d="M110.43,723.13c-25.56,0-46.24-20.82-46.24-46.38c0-25.43,20.68-46.24,46.24-46.24
					c13.31,0,26.09,5.8,34.78,15.81c2.77,3.29,2.5,8.04-0.66,10.8c-3.16,2.9-8.04,2.5-10.8-0.66c-5.93-6.72-14.36-10.54-23.32-10.54
					c-17,0-30.96,13.83-30.96,30.83c0,17.13,13.96,30.96,30.96,30.96c8.96,0,17.39-3.82,23.32-10.54c2.77-3.16,7.64-3.56,10.8-0.66
					c3.16,2.77,3.43,7.51,0.66,10.8C136.51,717.34,123.73,723.13,110.43,723.13"/>
			</defs>
			<use xlink:href="#SVGID_1_"  style="overflow:visible;fill-rule:evenodd;clip-rule:evenodd;"/>
			<clipPath id="SVGID_2_">
				<use xlink:href="#SVGID_1_"  style="overflow:visible;"/>
			</clipPath>
			<rect x="57.12" y="623.45" class="st2" width="97.05" height="106.74"/>
		</g>
		<g>
			<defs>
				<path id="SVGID_3_" d="M196.72,659.76c0,4.22-3.43,7.64-7.77,7.64c-8.43,0-14.76,6.85-14.76,16.21v31.88
					c0,4.22-3.42,7.64-7.64,7.64c-4.22,0-7.64-3.43-7.64-7.64v-57.31c0-4.22,3.42-7.64,7.64-7.64c3.56,0,6.45,2.37,7.38,5.66
					c4.48-2.64,9.62-4.08,15.02-4.08C193.29,652.12,196.72,655.55,196.72,659.76"/>
			</defs>
			<use xlink:href="#SVGID_3_"  style="overflow:visible;fill-rule:evenodd;clip-rule:evenodd;"/>
			<clipPath id="SVGID_4_">
				<use xlink:href="#SVGID_3_"  style="overflow:visible;"/>
			</clipPath>
			<rect x="151.85" y="643.48" class="st3" width="51.93" height="86.71"/>
		</g>
		<g>
			<defs>
				<path id="SVGID_5_" d="M235.58,723.53c-20.03,0-36.23-16.34-36.23-36.23c0-20.03,16.2-36.36,36.23-36.36
					c20.03,0,36.36,16.34,36.36,36.36C271.95,707.19,255.61,723.53,235.58,723.53 M235.58,666.22c-11.59,0-20.95,9.49-20.95,21.08
					c0,11.46,9.35,20.95,20.95,20.95c11.59,0,20.95-9.49,20.95-20.95C256.53,675.7,247.18,666.22,235.58,666.22"/>
			</defs>
			<use xlink:href="#SVGID_5_"  style="overflow:visible;fill-rule:evenodd;clip-rule:evenodd;"/>
			<clipPath id="SVGID_6_">
				<use xlink:href="#SVGID_5_"  style="overflow:visible;"/>
			</clipPath>
			<rect x="192.29" y="643.88" class="st4" width="86.71" height="86.71"/>
		</g>
		<g>
			<defs>
				<path id="SVGID_7_" d="M284.59,709.83c-1.85-3.82-0.13-8.43,3.69-10.15c3.95-1.84,8.43-0.13,10.15,3.69
					c1.05,2.11,3.95,4.48,9.09,4.48c7.11,0,9.62-4.35,9.62-7.25c0-3.95-1.05-5.14-11.33-7.77c-4.61-1.05-9.36-2.24-13.44-4.87
					c-5.53-3.69-8.56-9.22-8.56-16.07c0-5.4,2.37-10.8,6.45-14.76c4.35-4.22,10.41-6.59,17.26-6.59c9.75,0,18.05,4.74,21.61,12.51
					c1.85,3.82,0.13,8.3-3.69,10.14c-3.82,1.84-8.43,0.13-10.14-3.69c-0.79-1.71-3.29-3.69-7.77-3.69c-6.06,0-8.3,3.82-8.3,6.06
					c0,2.64,0.53,3.69,10.28,6.19c8.56,2.11,22.92,5.66,22.92,22.53c0,5.66-2.37,11.33-6.59,15.55c-3.29,3.16-9.09,6.98-18.31,6.98
					C297.11,723.13,288.28,718,284.59,709.83"/>
			</defs>
			<use xlink:href="#SVGID_7_"  style="overflow:visible;fill-rule:evenodd;clip-rule:evenodd;"/>
			<clipPath id="SVGID_8_">
				<use xlink:href="#SVGID_7_"  style="overflow:visible;"/>
			</clipPath>
			<rect x="276.74" y="643.48" class="st5" width="62.74" height="86.71"/>
		</g>
		<g>
			<defs>
				<path id="SVGID_9_" d="M345.06,709.83c-1.84-3.82-0.13-8.43,3.69-10.15c3.95-1.84,8.43-0.13,10.15,3.69
					c1.05,2.11,3.95,4.48,9.09,4.48c7.12,0,9.62-4.35,9.62-7.25c0-3.95-1.05-5.14-11.33-7.77c-4.61-1.05-9.36-2.24-13.44-4.87
					c-5.53-3.69-8.56-9.22-8.56-16.07c0-5.4,2.37-10.8,6.46-14.76c4.35-4.22,10.41-6.59,17.26-6.59c9.75,0,18.05,4.74,21.61,12.51
					c1.85,3.82,0.13,8.3-3.69,10.14c-3.82,1.84-8.43,0.13-10.15-3.69c-0.79-1.71-3.29-3.69-7.77-3.69c-6.06,0-8.3,3.82-8.3,6.06
					c0,2.64,0.53,3.69,10.28,6.19c8.56,2.11,22.92,5.66,22.92,22.53c0,5.66-2.37,11.33-6.59,15.55c-3.29,3.16-9.09,6.98-18.31,6.98
					C357.58,723.13,348.75,718,345.06,709.83"/>
			</defs>
			<use xlink:href="#SVGID_9_"  style="overflow:visible;fill-rule:evenodd;clip-rule:evenodd;"/>
			<clipPath id="SVGID_10_">
				<use xlink:href="#SVGID_9_"  style="overflow:visible;"/>
			</clipPath>
			<rect x="337.21" y="643.48" class="st6" width="62.74" height="86.71"/>
		</g>
		<g>
			<defs>
				<path id="SVGID_11_" d="M473.78,686.77c0,9.75-3.29,18.71-9.49,25.43c-6.45,6.98-15.28,10.93-25.03,10.93
					c-6.98,0-13.57-2.11-19.1-5.8v31.09c0,4.22-3.56,7.64-7.77,7.64c-4.22,0-7.64-3.42-7.64-7.64v-90.25c0-4.22,3.42-7.64,7.64-7.64
					c3.56,0,6.72,2.5,7.51,5.93c5.67-3.82,12.38-5.93,19.37-5.93c9.75,0,18.58,3.82,25.03,10.8
					C470.49,668.06,473.78,677.15,473.78,686.77 M458.5,686.77c0-12.12-8.04-20.95-19.24-20.95c-11.07,0-19.1,8.83-19.1,20.95
					c0,12.12,8.04,20.95,19.1,20.95C450.46,707.72,458.5,698.89,458.5,686.77"/>
			</defs>
			<use xlink:href="#SVGID_11_"  style="overflow:visible;fill-rule:evenodd;clip-rule:evenodd;"/>
			<clipPath id="SVGID_12_">
				<use xlink:href="#SVGID_11_"  style="overflow:visible;"/>
			</clipPath>
			<rect x="397.68" y="643.48" class="st7" width="83.15" height="119.65"/>
		</g>
		<g>
			<defs>
				<path id="SVGID_13_" d="M493.94,723.13c-4.22,0-7.64-3.43-7.64-7.64v-77.2c0-4.22,3.43-7.64,7.64-7.64
					c4.22,0,7.77,3.42,7.77,7.64v77.2C501.71,719.71,498.15,723.13,493.94,723.13"/>
			</defs>
			<use xlink:href="#SVGID_13_"  style="overflow:visible;fill-rule:evenodd;clip-rule:evenodd;"/>
			<clipPath id="SVGID_14_">
				<use xlink:href="#SVGID_13_"  style="overflow:visible;"/>
			</clipPath>
			<rect x="479.23" y="623.59" class="st8" width="29.54" height="106.61"/>
		</g>
		<g>
			<defs>
				<path id="SVGID_15_" d="M583.26,658.18v57.31c0,4.22-3.43,7.64-7.64,7.64c-3.69,0-6.72-2.5-7.51-5.93
					c-5.53,3.82-12.25,5.93-19.37,5.93c-9.75,0-18.58-3.82-25.03-10.93c-6.06-6.59-9.48-15.68-9.48-25.3
					c0-9.75,3.42-18.84,9.48-25.43c6.46-7.11,15.28-10.93,25.03-10.93c7.11,0,13.83,2.11,19.37,5.93c0.79-3.43,3.82-5.93,7.51-5.93
					C579.83,650.54,583.26,653.97,583.26,658.18 M567.98,686.9c0-12.25-8.17-21.08-19.23-21.08c-11.2,0-19.24,8.83-19.24,21.08
					c0,12.12,8.04,20.95,19.24,20.95C559.81,707.85,567.98,699.02,567.98,686.9"/>
			</defs>
			<use xlink:href="#SVGID_15_"  style="overflow:visible;fill-rule:evenodd;clip-rule:evenodd;"/>
			<clipPath id="SVGID_16_">
				<use xlink:href="#SVGID_15_"  style="overflow:visible;"/>
			</clipPath>
			<rect x="507.16" y="643.48" class="st9" width="83.16" height="86.71"/>
		</g>
		<g>
			<defs>
				<path id="SVGID_17_" d="M656.64,682.03v33.46c0,4.22-3.43,7.64-7.77,7.64c-4.22,0-7.64-3.42-7.64-7.64v-33.46
					c0-7.77-4.35-16.21-14.1-16.21c-8.83,0-15.41,6.98-15.41,16.21v0.53v0.53v32.41c0,4.22-3.43,7.64-7.64,7.64
					c-4.22,0-7.64-3.42-7.64-7.64v-32.54v-0.92v-23.85c0-4.22,3.43-7.64,7.64-7.64c3.16,0,5.8,1.84,6.98,4.48
					c4.61-2.9,10.14-4.48,16.07-4.48C643.86,650.54,656.64,664.11,656.64,682.03"/>
			</defs>
			<use xlink:href="#SVGID_17_"  style="overflow:visible;fill-rule:evenodd;clip-rule:evenodd;"/>
			<clipPath id="SVGID_18_">
				<use xlink:href="#SVGID_17_"  style="overflow:visible;"/>
			</clipPath>
			<rect x="589.37" y="643.48" class="st10" width="74.33" height="86.71"/>
		</g>
		<g>
			<defs>
				<path id="SVGID_19_" d="M703.02,723.79c-9.75,0-18.58-4.22-25.03-11.33c-6.19-6.59-9.48-15.68-9.48-25.3
					c0-20.82,14.62-36.36,33.86-36.36c19.37,0,33.46,15.28,33.46,36.36c0,4.22-3.42,7.64-7.77,7.64h-43.08
					c2.64,8.04,9.49,13.7,18.05,13.7c5.16,0,9.54-1.09,12.67-4.09c0.95-0.91,1.78-2,2.48-3.28c2.24-3.69,6.98-4.74,10.54-2.64
					c3.69,2.24,4.74,6.98,2.63,10.54C725.41,719.71,715.14,723.79,703.02,723.79 M684.83,679.39h34.65
					c-2.64-9.09-9.88-13.31-17.13-13.31C695.24,666.09,687.6,670.3,684.83,679.39"/>
			</defs>
			<use xlink:href="#SVGID_19_"  style="overflow:visible;fill-rule:evenodd;clip-rule:evenodd;"/>
			<clipPath id="SVGID_20_">
				<use xlink:href="#SVGID_19_"  style="overflow:visible;"/>
			</clipPath>
			<rect x="661.44" y="643.74" class="st11" width="81.44" height="87.11"/>
		</g>
	</g>
</g>
<g>
	<g>
		<path d="M415.89,477.51v51.19v35.43c0,12.07-7.86,21.9-17.51,21.9c-9.66,0-17.51-9.82-17.51-21.9v-86.62H415.89 M431.93,461.47
			h-67.11v102.66c0,20.96,15.02,37.94,33.55,37.94c18.54,0,33.55-16.98,33.55-37.94V528.7V461.47L431.93,461.47z"/>
		<path d="M500.07,107.58c11.22,17.44,17.57,37.35,18.53,58.41c0.08,1.82,0.13,3.68,0.13,5.53c0,1.82-0.05,3.71-0.14,5.64
			l-0.04,0.79l0.04,0.79c0.03,0.46,0.06,0.91,0.09,1.37c0.04,0.62,0.09,1.21,0.09,1.56v62.91L310.08,453.27
			c-17.79-11.12-28.84-30.6-28.84-51.94v-74.92L500.07,107.58 M501.72,84.59L266.15,320.17v81.17c0,31.54,19.38,58.77,46.81,70.38
			l220.89-220.89v-69.15c0-1.28-0.13-2.52-0.2-3.78c0.1-2.12,0.16-4.24,0.16-6.38c0-2.09-0.05-4.16-0.14-6.22
			C532.27,134.54,520.47,106.51,501.72,84.59L501.72,84.59z"/>
		<g>
			<path d="M399.98,37.69c-71.83,0-130.45,56.58-133.69,127.61c-0.09,2.06-0.14,4.13-0.14,6.22c0,2.29,0.05,4.56,0.17,6.82
				c-0.05,1.12-0.17,2.21-0.17,3.34v138.43L501.7,84.56C477.15,55.88,440.7,37.69,399.98,37.69z"/>
		</g>
		<g>
			<path d="M342.52,477.71h114.95c42.01,0,76.38-34.37,76.38-76.37V250.32L312.61,471.56C321.81,475.51,331.92,477.71,342.52,477.71
				z"/>
		</g>
		<g class="st0">
			<polygon class="st12" points="431.92,537.17 431.92,477.71 373.43,477.71 			"/>
		</g>
	</g>
</g>
</svg>
