<?xml version="1.0" encoding="utf-8"?>
<!-- Generator: Adobe Illustrator 23.0.3, SVG Export Plug-In . SVG Version: 6.00 Build 0)  -->
<svg version="1.1" id="Layer_1" xmlns="http://www.w3.org/2000/svg" xmlns:xlink="http://www.w3.org/1999/xlink" x="0px" y="0px"
	 viewBox="0 0 1181.8 251.8" style="enable-background:new 0 0 1181.8 251.8;" xml:space="preserve">
<style type="text/css">
	.st0{display:none;}
	.st1{display:inline;}
</style>
<g>
	<g>
		<path d="M247.9,65c13.4,0,26,5.7,34.8,15.7c4.1,4.7,11.4,5.3,16.1,1c4.7-4.1,5.1-11.2,1-16.1c-13-15-32.1-23.6-51.9-23.6
			c-38.2,0-69.1,31.1-69.1,69.1c0,38.2,30.9,69.3,69.1,69.3c19.9,0,39-8.7,51.9-23.6c4.1-4.9,3.7-12-1-16.1c-4.7-4.3-12-3.7-16.1,1
			c-8.9,10-21.4,15.7-34.8,15.7c-25.4,0-46.2-20.7-46.2-46.2C201.7,85.7,222.5,65,247.9,65z"/>
		<path d="M365.1,74.3c-8.1,0-15.7,2.2-22.4,6.1c-1.4-4.9-5.7-8.5-11-8.5c-6.3,0-11.4,5.1-11.4,11.4v85.6c0,6.3,5.1,11.4,11.4,11.4
			s11.4-5.1,11.4-11.4v-47.6c0-14,9.4-24.2,22-24.2c6.5,0,11.6-5.1,11.6-11.4C376.8,79.4,371.6,74.3,365.1,74.3z"/>
		<path d="M434.8,72.5c-29.9,0-54.1,24.4-54.1,54.3c0,29.7,24.2,54.1,54.1,54.1s54.3-24.4,54.3-54.1
			C489.1,96.9,464.7,72.5,434.8,72.5z M434.8,158.1c-17.3,0-31.3-14.2-31.3-31.3c0-17.3,14-31.5,31.3-31.5s31.3,14.2,31.3,31.5
			C466.1,143.9,452.1,158.1,434.8,158.1z"/>
		<path d="M545.2,113.1c-14.6-3.7-15.3-5.3-15.3-9.2c0-3.3,3.3-9.1,12.4-9.1c6.7,0,10.4,3,11.6,5.5c2.6,5.7,9.4,8.3,15.1,5.5
			c5.7-2.8,8.3-9.4,5.5-15.1C569.2,79.1,556.8,72,542.2,72c-10.2,0-19.3,3.5-25.8,9.8c-6.1,5.9-9.6,14-9.6,22
			c0,10.2,4.5,18.5,12.8,24c6.1,3.9,13.2,5.7,20.1,7.3c15.3,3.9,16.9,5.7,16.9,11.6c0,4.3-3.7,10.8-14.4,10.8
			c-7.7,0-12-3.5-13.6-6.7c-2.6-5.7-9.2-8.3-15.2-5.5c-5.7,2.6-8.3,9.4-5.5,15.2c5.5,12.2,18.7,19.9,34.2,19.9
			c13.8,0,22.4-5.7,27.3-10.4c6.3-6.3,9.8-14.8,9.8-23.2C579.4,121.5,557.9,116.2,545.2,113.1z"/>
		<path d="M635.5,113.1c-14.6-3.7-15.3-5.3-15.3-9.2c0-3.3,3.3-9.1,12.4-9.1c6.7,0,10.4,3,11.6,5.5c2.6,5.7,9.4,8.3,15.2,5.5
			c5.7-2.8,8.3-9.4,5.5-15.1C659.6,79.1,647.2,72,632.6,72c-10.2,0-19.3,3.5-25.8,9.8c-6.1,5.9-9.6,14-9.6,22
			c0,10.2,4.5,18.5,12.8,24c6.1,3.9,13.2,5.7,20.1,7.3c15.3,3.9,16.9,5.7,16.9,11.6c0,4.3-3.7,10.8-14.4,10.8
			c-7.7,0-12-3.5-13.6-6.7c-2.6-5.7-9.2-8.3-15.2-5.5c-5.7,2.6-8.3,9.4-5.5,15.2c5.5,12.2,18.7,19.9,34.2,19.9
			c13.8,0,22.4-5.7,27.3-10.4c6.3-6.3,9.8-14.8,9.8-23.2C669.7,121.5,648.2,116.2,635.5,113.1z"/>
		<path d="M738.9,71.9c-10.4,0-20.5,3.1-28.9,8.9c-1.2-5.1-5.9-8.9-11.2-8.9c-6.3,0-11.4,5.1-11.4,11.4v134.8
			c0,6.3,5.1,11.4,11.4,11.4c6.3,0,11.6-5.1,11.6-11.4v-46.4c8.3,5.5,18.1,8.7,28.5,8.7c14.6,0,27.7-5.9,37.4-16.3
			c9.2-10,14.2-23.4,14.2-38c0-14.4-4.9-27.9-14.2-38C766.7,77.6,753.5,71.9,738.9,71.9z M738.9,157.3c-16.5,0-28.5-13.2-28.5-31.3
			s12-31.3,28.5-31.3c16.7,0,28.7,13.2,28.7,31.3C767.7,144.1,755.7,157.3,738.9,157.3z"/>
		<path d="M820.6,42.2c-6.3,0-11.4,5.1-11.4,11.4v115.3c0,6.3,5.1,11.4,11.4,11.4c6.3,0,11.6-5.1,11.6-11.4V53.6
			C832.2,47.3,826.9,42.2,820.6,42.2z"/>
		<path d="M942.6,71.9c-5.5,0-10,3.7-11.2,8.9c-8.3-5.7-18.3-8.9-28.9-8.9c-14.6,0-27.7,5.7-37.4,16.3c-9,9.8-14.2,23.4-14.2,38
			c0,14.4,5.1,27.9,14.2,37.8c9.6,10.6,22.8,16.3,37.4,16.3c10.6,0,20.7-3.1,28.9-8.9c1.2,5.1,5.7,8.9,11.2,8.9
			c6.3,0,11.4-5.1,11.4-11.4V83.3C954,77,948.9,71.9,942.6,71.9z M902.4,157.5c-16.7,0-28.7-13.2-28.7-31.3
			c0-18.3,12-31.5,28.7-31.5c16.5,0,28.7,13.2,28.7,31.5C931.2,144.3,919,157.5,902.4,157.5z"/>
		<path d="M1019.5,71.9c-8.9,0-17.1,2.4-24,6.7c-1.8-3.9-5.7-6.7-10.4-6.7c-6.3,0-11.4,5.1-11.4,11.4V119v1.4V169
			c0,6.3,5.1,11.4,11.4,11.4c6.3,0,11.4-5.1,11.4-11.4v-48.4v-0.8V119c0-13.8,9.8-24.2,23-24.2c14.6,0,21,12.6,21,24.2v50
			c0,6.3,5.1,11.4,11.4,11.4c6.5,0,11.6-5.1,11.6-11.4v-50C1063.6,92.2,1044.5,71.9,1019.5,71.9z"/>
		<path d="M1131.8,72.3c-28.7,0-50.6,23.2-50.6,54.3c0,14.4,4.9,27.9,14.2,37.8c9.6,10.6,22.8,16.9,37.4,16.9
			c18.1,0,33.4-6.1,42.3-22c3.1-5.3,1.6-12.4-3.9-15.7c-5.3-3.1-12.4-1.6-15.7,3.9c-1.1,1.9-2.3,3.5-3.7,4.9
			c-4.7,4.5-11.2,6.1-18.9,6.1c-12.8,0-23-8.5-27-20.5h64.3c6.5,0,11.6-5.1,11.6-11.4C1181.8,95.1,1160.7,72.3,1131.8,72.3z
			 M1105.7,115c4.1-13.6,15.5-19.9,26.2-19.9c10.8,0,21.6,6.3,25.6,19.9H1105.7z"/>
	</g>
</g>
<g>
	<g>
		<path d="M66.8,196.3v22.9v15.8c0,5.4-3.5,9.8-7.8,9.8s-7.8-4.4-7.8-9.8v-38.7H66.8 M74,189.1H44v45.8c0,9.4,6.7,16.9,15,16.9
			s15-7.6,15-16.9v-15.8V189.1L74,189.1z"/>
		<path d="M104.4,31.1c5,7.8,7.8,16.7,8.3,26.1c0,0.8,0.1,1.6,0.1,2.5c0,0.8,0,1.7-0.1,2.5l0,0.4l0,0.4c0,0.2,0,0.4,0,0.6
			c0,0.3,0,0.5,0,0.7v28.1l-93.2,93.2c-7.9-5-12.9-13.7-12.9-23.2v-33.4L104.4,31.1 M105.2,20.9L0,126v36.2
			c0,14.1,8.7,26.2,20.9,31.4l98.6-98.6V64.2c0-0.6-0.1-1.1-0.1-1.7c0-0.9,0.1-1.9,0.1-2.8c0-0.9,0-1.9-0.1-2.8
			C118.8,43.2,113.5,30.7,105.2,20.9L105.2,20.9z"/>
		<g>
			<path d="M59.7-0.1c-32.1,0-58.2,25.3-59.7,57C0,57.8,0,58.7,0,59.7c0,1,0,2,0.1,3c0,0.5-0.1,1-0.1,1.5V126L105.1,20.9
				C94.2,8.1,77.9-0.1,59.7-0.1z"/>
		</g>
		<g>
			<path d="M34.1,196.4h51.3c18.8,0,34.1-15.3,34.1-34.1V94.8l-98.8,98.8C24.8,195.4,29.4,196.4,34.1,196.4z"/>
		</g>
		<g class="st0">
			<polygon class="st1" points="74,222.9 74,196.4 47.9,196.4 			"/>
		</g>
	</g>
</g>
</svg>
